UnuarangaKuriero-Bold.ufo
<glyph name="Schwa" format="1">
  <advance width="1228"/>
  <unicode hex="018F"/>
  <outline>
    <contour>
      <point x="622" y="205" type="curve" smooth="yes"/>
      <point x="696.667" y="205"/>
      <point x="757.167" y="227.667"/>
      <point x="803.5" y="273" type="curve" smooth="yes"/>
      <point x="849.833" y="318.333"/>
      <point x="880.333" y="384"/>
      <point x="895" y="470" type="curve"/>
      <point x="348" y="470" type="line"/>
      <point x="363.333" y="384"/>
      <point x="394.167" y="318.333"/>
      <point x="440.5" y="273" type="curve" smooth="yes"/>
      <point x="486.833" y="227.667"/>
      <point x="547.333" y="205"/>
    </contour>
    <contour>
      <point x="622" y="1210" type="curve" smooth="yes"/>
      <point x="704.667" y="1210"/>
      <point x="779.833" y="1195.67"/>
      <point x="847.5" y="1167" type="curve" smooth="yes"/>
      <point x="915.167" y="1138.33"/>
      <point x="973.167" y="1097.5"/>
      <point x="1021.5" y="1044.5" type="curve" smooth="yes"/>
      <point x="1069.83" y="991.5"/>
      <point x="1107.17" y="926.833"/>
      <point x="1133.5" y="850.5" type="curve" smooth="yes"/>
      <point x="1159.83" y="774.167"/>
      <point x="1173" y="688.667"/>
      <point x="1173" y="594" type="curve" smooth="yes"/>
      <point x="1173" y="498.667"/>
      <point x="1159.83" y="413"/>
      <point x="1133.5" y="337" type="curve" smooth="yes"/>
      <point x="1107.17" y="261"/>
      <point x="1069.83" y="196.5"/>
      <point x="1021.5" y="143.5" type="curve" smooth="yes"/>
      <point x="973.167" y="90.5"/>
      <point x="915.167" y="49.6667"/>
      <point x="847.5" y="21" type="curve" smooth="yes"/>
      <point x="779.833" y="-7.66667"/>
      <point x="704.667" y="-22"/>
      <point x="622" y="-22" type="curve" smooth="yes"/>
      <point x="539.333" y="-22"/>
      <point x="464.167" y="-7.66667"/>
      <point x="396.5" y="21" type="curve" smooth="yes"/>
      <point x="328.833" y="49.6667"/>
      <point x="270.833" y="90.5"/>
      <point x="222.5" y="143.5" type="curve" smooth="yes"/>
      <point x="174.167" y="196.5"/>
      <point x="136.833" y="261"/>
      <point x="110.5" y="337" type="curve" smooth="yes"/>
      <point x="84.1667" y="413"/>
      <point x="71" y="498.667"/>
      <point x="71" y="594" type="curve" smooth="yes"/>
      <point x="71" y="616"/>
      <point x="72.1667" y="633.5"/>
      <point x="74.5" y="646.5" type="curve" smooth="yes"/>
      <point x="76.8333" y="659.5"/>
      <point x="80.5" y="669.667"/>
      <point x="85.5" y="677" type="curve" smooth="yes"/>
      <point x="90.5" y="684.333"/>
      <point x="97" y="689.167"/>
      <point x="105" y="691.5" type="curve" smooth="yes"/>
      <point x="113" y="693.833"/>
      <point x="122.667" y="695"/>
      <point x="134" y="695" type="curve" smooth="yes"/>
      <point x="899" y="695" type="line"/>
      <point x="887" y="791"/>
      <point x="856.333" y="863"/>
      <point x="807" y="911" type="curve" smooth="yes"/>
      <point x="757.667" y="959"/>
      <point x="692.667" y="983"/>
      <point x="612" y="983" type="curve" smooth="yes"/>
      <point x="550.667" y="983"/>
      <point x="493" y="974.5"/>
      <point x="439" y="957.5" type="curve" smooth="yes"/>
      <point x="385" y="940.5"/>
      <point x="329" y="917.333"/>
      <point x="271" y="888" type="curve" smooth="yes"/>
      <point x="251" y="878"/>
      <point x="231.667" y="878"/>
      <point x="213" y="888" type="curve" smooth="yes"/>
      <point x="194.333" y="898"/>
      <point x="177.667" y="923"/>
      <point x="163" y="963" type="curve" smooth="yes"/>
      <point x="155.667" y="983"/>
      <point x="151.333" y="1000.67"/>
      <point x="150" y="1016" type="curve" smooth="yes"/>
      <point x="148.667" y="1031.33"/>
      <point x="149.5" y="1044.5"/>
      <point x="152.5" y="1055.5" type="curve" smooth="yes"/>
      <point x="155.5" y="1066.5"/>
      <point x="160.667" y="1076"/>
      <point x="168" y="1084" type="curve" smooth="yes"/>
      <point x="175.333" y="1092"/>
      <point x="184.333" y="1098.67"/>
      <point x="195" y="1104" type="curve" smooth="yes"/>
      <point x="260.333" y="1138.67"/>
      <point x="327.333" y="1165"/>
      <point x="396" y="1183" type="curve" smooth="yes"/>
      <point x="464.667" y="1201"/>
      <point x="540" y="1210"/>
    </contour>
  </outline>
</glyph>
<glyph name="schwa" format="1">
  <advance width="1228"/>
  <unicode hex="0259"/>
  <outline>
    <contour>
      <point x="281" y="664" type="curve" smooth="yes"/>
      <point x="270.333" y="660.667"/>
      <point x="260.667" y="659.333"/>
      <point x="252" y="660" type="curve" smooth="yes"/>
      <point x="243.333" y="660.667"/>
      <point x="235.333" y="664.167"/>
      <point x="228" y="670.5" type="curve" smooth="yes"/>
      <point x="220.667" y="676.833"/>
      <point x="214" y="686.333"/>
      <point x="208" y="699" type="curve" smooth="yes"/>
      <point x="202" y="711.667"/>
      <point x="196" y="728"/>
      <point x="190" y="748" type="curve" smooth="yes"/>
      <point x="184.667" y="768.667"/>
      <point x="181.5" y="786.167"/>
      <point x="180.5" y="800.5" type="curve" smooth="yes"/>
      <point x="179.5" y="814.833"/>
      <point x="180.5" y="826.833"/>
      <point x="183.5" y="836.5" type="curve" smooth="yes"/>
      <point x="186.5" y="846.167"/>
      <point x="191.833" y="854"/>
      <point x="199.5" y="860" type="curve" smooth="yes"/>
      <point x="207.167" y="866"/>
      <point x="217" y="871"/>
      <point x="229" y="875" type="curve" smooth="yes"/>
      <point x="262.333" y="885.667"/>
      <point x="294.167" y="895.5"/>
      <point x="324.5" y="904.5" type="curve" smooth="yes"/>
      <point x="354.833" y="913.5"/>
      <point x="385.5" y="921"/>
      <point x="416.5" y="927" type="curve" smooth="yes"/>
      <point x="447.5" y="933"/>
      <point x="480" y="937.667"/>
      <point x="514" y="941" type="curve" smooth="yes"/>
      <point x="548" y="944.333"/>
      <point x="585.667" y="946"/>
      <point x="627" y="946" type="curve" smooth="yes"/>
      <point x="707" y="946"/>
      <point x="777.833" y="934"/>
      <point x="839.5" y="910" type="curve" smooth="yes"/>
      <point x="901.167" y="886"/>
      <point x="953" y="852.5"/>
      <point x="995" y="809.5" type="curve" smooth="yes"/>
      <point x="1037" y="766.5"/>
      <point x="1069" y="715.333"/>
      <point x="1091" y="656" type="curve" smooth="yes"/>
      <point x="1113" y="596.667"/>
      <point x="1124" y="532"/>
      <point x="1124" y="462" type="curve" smooth="yes"/>
      <point x="1124" y="392"/>
      <point x="1112.67" y="327.5"/>
      <point x="1090" y="268.5" type="curve" smooth="yes"/>
      <point x="1067.33" y="209.5"/>
      <point x="1034.5" y="158.5"/>
      <point x="991.5" y="115.5" type="curve" smooth="yes"/>
      <point x="948.5" y="72.5"/>
      <point x="896.333" y="38.8333"/>
      <point x="835" y="14.5" type="curve" smooth="yes"/>
      <point x="773.667" y="-9.83333"/>
      <point x="704.333" y="-22"/>
      <point x="627" y="-22" type="curve" smooth="yes"/>
      <point x="549" y="-22"/>
      <point x="480.333" y="-9.16667"/>
      <point x="421" y="16.5" type="curve" smooth="yes"/>
      <point x="361.667" y="42.1667"/>
      <point x="312.167" y="77.8333"/>
      <point x="272.5" y="123.5" type="curve" smooth="yes"/>
      <point x="232.833" y="169.167"/>
      <point x="202.833" y="223.5"/>
      <point x="182.5" y="286.5" type="curve" smooth="yes"/>
      <point x="162.167" y="349.5"/>
      <point x="152" y="418"/>
      <point x="152" y="492" type="curve" smooth="yes"/>
      <point x="152" y="514.667"/>
      <point x="156.833" y="530.667"/>
      <point x="166.5" y="540" type="curve" smooth="yes"/>
      <point x="176.167" y="549.333"/>
      <point x="192.333" y="554"/>
      <point x="215" y="554" type="curve" smooth="yes"/>
      <point x="857" y="554" type="line"/>
      <point x="843.667" y="608"/>
      <point x="815.833" y="649"/>
      <point x="773.5" y="677" type="curve" smooth="yes"/>
      <point x="731.167" y="705"/>
      <point x="675.667" y="719"/>
      <point x="607" y="719" type="curve" smooth="yes"/>
      <point x="575" y="719"/>
      <point x="546.333" y="718"/>
      <point x="521" y="716" type="curve" smooth="yes"/>
      <point x="495.667" y="714"/>
      <point x="470.667" y="710.833"/>
      <point x="446" y="706.5" type="curve" smooth="yes"/>
      <point x="421.333" y="702.167"/>
      <point x="396" y="696.5"/>
      <point x="370" y="689.5" type="curve" smooth="yes"/>
      <point x="344" y="682.5"/>
      <point x="314.333" y="674"/>
    </contour>
    <contour>
      <point x="413" y="359" type="line"/>
      <point x="424.333" y="311"/>
      <point x="448.167" y="273.333"/>
      <point x="484.5" y="246" type="curve" smooth="yes"/>
      <point x="520.833" y="218.667"/>
      <point x="568.333" y="205"/>
      <point x="627" y="205" type="curve" smooth="yes"/>
      <point x="749" y="205"/>
      <point x="824.333" y="256.333"/>
      <point x="853" y="359" type="curve"/>
    </contour>
  </outline>
</glyph>
<glyph name="Iocyrillic" format="1">
  <advance width="1228"/>
  <unicode hex="0401"/>
  <outline>
    <contour>
      <point x="220" y="982" type="line"/>
      <point x="123" y="982" type="line" smooth="yes"/>
      <point x="111.667" y="982"/>
      <point x="102" y="983.333"/>
      <point x="94" y="986" type="curve" smooth="yes"/>
      <point x="86" y="988.667"/>
      <point x="79.5" y="993.667"/>
      <point x="74.5" y="1001" type="curve" smooth="yes"/>
      <point x="69.5" y="1008.33"/>
      <point x="65.8333" y="1018.67"/>
      <point x="63.5" y="1032" type="curve" smooth="yes"/>
      <point x="61.1667" y="1045.33"/>
      <point x="60" y="1062.67"/>
      <point x="60" y="1084" type="curve" smooth="yes"/>
      <point x="60" y="1105.33"/>
      <point x="61.1667" y="1122.67"/>
      <point x="63.5" y="1136" type="curve" smooth="yes"/>
      <point x="65.8333" y="1149.33"/>
      <point x="69.5" y="1159.83"/>
      <point x="74.5" y="1167.5" type="curve" smooth="yes"/>
      <point x="79.5" y="1175.17"/>
      <point x="86" y="1180.33"/>
      <point x="94" y="1183" type="curve" smooth="yes"/>
      <point x="102" y="1185.67"/>
      <point x="111.667" y="1187"/>
      <point x="123" y="1187" type="curve" smooth="yes"/>
      <point x="1035" y="1187" type="line" smooth="yes"/>
      <point x="1058.33" y="1187"/>
      <point x="1075" y="1182"/>
      <point x="1085" y="1172" type="curve" smooth="yes"/>
      <point x="1095" y="1162"/>
      <point x="1100" y="1145.33"/>
      <point x="1100" y="1122" type="curve" smooth="yes"/>
      <point x="1100" y="820" type="line" smooth="yes"/>
      <point x="1100" y="797.333"/>
      <point x="1090.33" y="781.167"/>
      <point x="1071" y="771.5" type="curve" smooth="yes"/>
      <point x="1051.67" y="761.833"/>
      <point x="1020.67" y="757"/>
      <point x="978" y="757" type="curve" smooth="yes"/>
      <point x="956.667" y="757"/>
      <point x="939" y="758.167"/>
      <point x="925" y="760.5" type="curve" smooth="yes"/>
      <point x="911" y="762.833"/>
      <point x="900" y="766.5"/>
      <point x="892" y="771.5" type="curve" smooth="yes"/>
      <point x="884" y="776.5"/>
      <point x="878.333" y="783"/>
      <point x="875" y="791" type="curve" smooth="yes"/>
      <point x="871.667" y="799"/>
      <point x="870" y="808.667"/>
      <point x="870" y="820" type="curve" smooth="yes"/>
      <point x="870" y="972" type="line"/>
      <point x="470" y="972" type="line"/>
      <point x="470" y="719" type="line"/>
      <point x="714" y="719" type="line" smooth="yes"/>
      <point x="725.333" y="719"/>
      <point x="735" y="717.333"/>
      <point x="743" y="714" type="curve" smooth="yes"/>
      <point x="751" y="710.667"/>
      <point x="757.5" y="705"/>
      <point x="762.5" y="697" type="curve" smooth="yes"/>
      <point x="767.5" y="689"/>
      <point x="771.167" y="678"/>
      <point x="773.5" y="664" type="curve" smooth="yes"/>
      <point x="775.833" y="650"/>
      <point x="777" y="632.333"/>
      <point x="777" y="611" type="curve" smooth="yes"/>
      <point x="777" y="569"/>
      <point x="772.167" y="540.667"/>
      <point x="762.5" y="526" type="curve" smooth="yes"/>
      <point x="752.833" y="511.333"/>
      <point x="736.667" y="504"/>
      <point x="714" y="504" type="curve" smooth="yes"/>
      <point x="470" y="504" type="line"/>
      <point x="470" y="215" type="line"/>
      <point x="880" y="215" type="line"/>
      <point x="880" y="417" type="line" smooth="yes"/>
      <point x="880" y="439.667"/>
      <point x="889.5" y="455.833"/>
      <point x="908.5" y="465.5" type="curve" smooth="yes"/>
      <point x="927.5" y="475.167"/>
      <point x="960" y="480"/>
      <point x="1006" y="480" type="curve" smooth="yes"/>
      <point x="1028.67" y="480"/>
      <point x="1047.33" y="478.833"/>
      <point x="1062" y="476.5" type="curve" smooth="yes"/>
      <point x="1076.67" y="474.167"/>
      <point x="1088.33" y="470.5"/>
      <point x="1097" y="465.5" type="curve" smooth="yes"/>
      <point x="1105.67" y="460.5"/>
      <point x="1111.67" y="454"/>
      <point x="1115" y="446" type="curve" smooth="yes"/>
      <point x="1118.33" y="438"/>
      <point x="1120" y="428.333"/>
      <point x="1120" y="417" type="curve" smooth="yes"/>
      <point x="1120" y="65" type="line" smooth="yes"/>
      <point x="1120" y="41.6667"/>
      <point x="1115" y="25"/>
      <point x="1105" y="15" type="curve" smooth="yes"/>
      <point x="1095" y="5"/>
      <point x="1078.33" y="0"/>
      <point x="1055" y="0" type="curve" smooth="yes"/>
      <point x="123" y="0" type="line" smooth="yes"/>
      <point x="111.667" y="0"/>
      <point x="102" y="1.33333"/>
      <point x="94" y="4" type="curve" smooth="yes"/>
      <point x="86" y="6.66667"/>
      <point x="79.5" y="11.6667"/>
      <point x="74.5" y="19" type="curve" smooth="yes"/>
      <point x="69.5" y="26.3333"/>
      <point x="65.8333" y="36.6667"/>
      <point x="63.5" y="50" type="curve" smooth="yes"/>
      <point x="61.1667" y="63.3333"/>
      <point x="60" y="80.6667"/>
      <point x="60" y="102" type="curve" smooth="yes"/>
      <point x="60" y="123.333"/>
      <point x="61.1667" y="140.667"/>
      <point x="63.5" y="154" type="curve" smooth="yes"/>
      <point x="65.8333" y="167.333"/>
      <point x="69.5" y="177.833"/>
      <point x="74.5" y="185.5" type="curve" smooth="yes"/>
      <point x="79.5" y="193.167"/>
      <point x="86" y="198.333"/>
      <point x="94" y="201" type="curve" smooth="yes"/>
      <point x="102" y="203.667"/>
      <point x="111.667" y="205"/>
      <point x="123" y="205" type="curve" smooth="yes"/>
      <point x="220" y="205" type="line"/>
    </contour>
    <contour>
      <point x="234" y="1408" type="curve" smooth="yes"/>
      <point x="234" y="1428.67"/>
      <point x="238" y="1448.17"/>
      <point x="246" y="1466.5" type="curve" smooth="yes"/>
      <point x="254" y="1484.83"/>
      <point x="264.667" y="1500.67"/>
      <point x="278" y="1514" type="curve" smooth="yes"/>
      <point x="291.333" y="1527.33"/>
      <point x="307.167" y="1538"/>
      <point x="325.5" y="1546" type="curve" smooth="yes"/>
      <point x="343.833" y="1554"/>
      <point x="363.333" y="1558"/>
      <point x="384" y="1558" type="curve" smooth="yes"/>
      <point x="404.667" y="1558"/>
      <point x="424.167" y="1554"/>
      <point x="442.5" y="1546" type="curve" smooth="yes"/>
      <point x="460.833" y="1538"/>
      <point x="476.667" y="1527.33"/>
      <point x="490" y="1514" type="curve" smooth="yes"/>
      <point x="503.333" y="1500.67"/>
      <point x="514" y="1484.83"/>
      <point x="522" y="1466.5" type="curve" smooth="yes"/>
      <point x="530" y="1448.17"/>
      <point x="534" y="1428.67"/>
      <point x="534" y="1408" type="curve" smooth="yes"/>
      <point x="534" y="1387.33"/>
      <point x="530" y="1367.83"/>
      <point x="522" y="1349.5" type="curve" smooth="yes"/>
      <point x="514" y="1331.17"/>
      <point x="503.333" y="1315.33"/>
      <point x="490" y="1302" type="curve" smooth="yes"/>
      <point x="476.667" y="1288.67"/>
      <point x="460.833" y="1278"/>
      <point x="442.5" y="1270" type="curve" smooth="yes"/>
      <point x="424.167" y="1262"/>
      <point x="404.667" y="1258"/>
      <point x="384" y="1258" type="curve" smooth="yes"/>
      <point x="363.333" y="1258"/>
      <point x="343.833" y="1262"/>
      <point x="325.5" y="1270" type="curve" smooth="yes"/>
      <point x="307.167" y="1278"/>
      <point x="291.333" y="1288.67"/>
      <point x="278" y="1302" type="curve" smooth="yes"/>
      <point x="264.667" y="1315.33"/>
      <point x="254" y="1331.17"/>
      <point x="246" y="1349.5" type="curve" smooth="yes"/>
      <point x="238" y="1367.83"/>
      <point x="234" y="1387.33"/>
    </contour>
    <contour>
      <point x="694" y="1408" type="curve" smooth="yes"/>
      <point x="694" y="1428.67"/>
      <point x="698" y="1448.17"/>
      <point x="706" y="1466.5" type="curve" smooth="yes"/>
      <point x="714" y="1484.83"/>
      <point x="724.667" y="1500.67"/>
      <point x="738" y="1514" type="curve" smooth="yes"/>
      <point x="751.333" y="1527.33"/>
      <point x="767.167" y="1538"/>
      <point x="785.5" y="1546" type="curve" smooth="yes"/>
      <point x="803.833" y="1554"/>
      <point x="823.333" y="1558"/>
      <point x="844" y="1558" type="curve" smooth="yes"/>
      <point x="864.667" y="1558"/>
      <point x="884.167" y="1554"/>
      <point x="902.5" y="1546" type="curve" smooth="yes"/>
      <point x="920.833" y="1538"/>
      <point x="936.667" y="1527.33"/>
      <point x="950" y="1514" type="curve" smooth="yes"/>
      <point x="963.333" y="1500.67"/>
      <point x="974" y="1484.83"/>
      <point x="982" y="1466.5" type="curve" smooth="yes"/>
      <point x="990" y="1448.17"/>
      <point x="994" y="1428.67"/>
      <point x="994" y="1408" type="curve" smooth="yes"/>
      <point x="994" y="1387.33"/>
      <point x="990" y="1367.83"/>
      <point x="982" y="1349.5" type="curve" smooth="yes"/>
      <point x="974" y="1331.17"/>
      <point x="963.333" y="1315.33"/>
      <point x="950" y="1302" type="curve" smooth="yes"/>
      <point x="936.667" y="1288.67"/>
      <point x="920.833" y="1278"/>
      <point x="902.5" y="1270" type="curve" smooth="yes"/>
      <point x="884.167" y="1262"/>
      <point x="864.667" y="1258"/>
      <point x="844" y="1258" type="curve" smooth="yes"/>
      <point x="823.333" y="1258"/>
      <point x="803.833" y="1262"/>
      <point x="785.5" y="1270" type="curve" smooth="yes"/>
      <point x="767.167" y="1278"/>
      <point x="751.333" y="1288.67"/>
      <point x="738" y="1302" type="curve" smooth="yes"/>
      <point x="724.667" y="1315.33"/>
      <point x="714" y="1331.17"/>
      <point x="706" y="1349.5" type="curve" smooth="yes"/>
      <point x="698" y="1367.83"/>
      <point x="694" y="1387.33"/>
    </contour>
  </outline>
</glyph>
<glyph name="Djecyrillic" format="1">
  <advance width="1228"/>
  <unicode hex="0402"/>
  <outline>
    <contour>
      <point x="938" y="338" type="curve" smooth="yes"/>
      <point x="938" y="374"/>
      <point x="924.667" y="403.5"/>
      <point x="898" y="426.5" type="curve" smooth="yes"/>
      <point x="871.333" y="449.5"/>
      <point x="830.667" y="461"/>
      <point x="776" y="461" type="curve" smooth="yes"/>
      <point x="742" y="461"/>
      <point x="710.333" y="457.333"/>
      <point x="681" y="450" type="curve" smooth="yes"/>
      <point x="651.667" y="442.667"/>
      <point x="624.333" y="433"/>
      <point x="599" y="421" type="curve"/>
      <point x="599" y="205" type="line"/>
      <point x="636" y="205" type="line" smooth="yes"/>
      <point x="647.333" y="205"/>
      <point x="657" y="203.667"/>
      <point x="665" y="201" type="curve" smooth="yes"/>
      <point x="673" y="198.333"/>
      <point x="679.5" y="193.167"/>
      <point x="684.5" y="185.5" type="curve" smooth="yes"/>
      <point x="689.5" y="177.833"/>
      <point x="693.167" y="167.333"/>
      <point x="695.5" y="154" type="curve" smooth="yes"/>
      <point x="697.833" y="140.667"/>
      <point x="699" y="123.333"/>
      <point x="699" y="102" type="curve" smooth="yes"/>
      <point x="699" y="80.6667"/>
      <point x="697.833" y="63.3333"/>
      <point x="695.5" y="50" type="curve" smooth="yes"/>
      <point x="693.167" y="36.6667"/>
      <point x="689.5" y="26.3333"/>
      <point x="684.5" y="19" type="curve" smooth="yes"/>
      <point x="679.5" y="11.6667"/>
      <point x="673" y="6.66667"/>
      <point x="665" y="4" type="curve" smooth="yes"/>
      <point x="657" y="1.33333"/>
      <point x="647.333" y="0"/>
      <point x="636" y="0" type="curve" smooth="yes"/>
      <point x="258" y="0" type="line" smooth="yes"/>
      <point x="246.667" y="0"/>
      <point x="237" y="1.33333"/>
      <point x="229" y="4" type="curve" smooth="yes"/>
      <point x="221" y="6.66667"/>
      <point x="214.5" y="11.6667"/>
      <point x="209.5" y="19" type="curve" smooth="yes"/>
      <point x="204.5" y="26.3333"/>
      <point x="200.833" y="36.6667"/>
      <point x="198.5" y="50" type="curve" smooth="yes"/>
      <point x="196.167" y="63.3333"/>
      <point x="195" y="80.6667"/>
      <point x="195" y="102" type="curve" smooth="yes"/>
      <point x="195" y="123.333"/>
      <point x="196.167" y="140.667"/>
      <point x="198.5" y="154" type="curve" smooth="yes"/>
      <point x="200.833" y="167.333"/>
      <point x="204.5" y="177.833"/>
      <point x="209.5" y="185.5" type="curve" smooth="yes"/>
      <point x="214.5" y="193.167"/>
      <point x="221" y="198.333"/>
      <point x="229" y="201" type="curve" smooth="yes"/>
      <point x="237" y="203.667"/>
      <point x="246.667" y="205"/>
      <point x="258" y="205" type="curve" smooth="yes"/>
      <point x="349" y="205" type="line"/>
      <point x="349" y="972" type="line"/>
      <point x="248" y="972" type="line"/>
      <point x="248" y="700" type="line" smooth="yes"/>
      <point x="248" y="677.333"/>
      <point x="238.833" y="661.167"/>
      <point x="220.5" y="651.5" type="curve" smooth="yes"/>
      <point x="202.167" y="641.833"/>
      <point x="174" y="637"/>
      <point x="136" y="637" type="curve" smooth="yes"/>
      <point x="98.6667" y="637"/>
      <point x="73" y="641.833"/>
      <point x="59" y="651.5" type="curve" smooth="yes"/>
      <point x="45" y="661.167"/>
      <point x="38" y="677.333"/>
      <point x="38" y="700" type="curve" smooth="yes"/>
      <point x="38" y="1122" type="line" smooth="yes"/>
      <point x="38" y="1145.33"/>
      <point x="43" y="1162"/>
      <point x="53" y="1172" type="curve" smooth="yes"/>
      <point x="63" y="1182"/>
      <point x="79.6667" y="1187"/>
      <point x="103" y="1187" type="curve" smooth="yes"/>
      <point x="845" y="1187" type="line" smooth="yes"/>
      <point x="868.333" y="1187"/>
      <point x="885" y="1182"/>
      <point x="895" y="1172" type="curve" smooth="yes"/>
      <point x="905" y="1162"/>
      <point x="910" y="1145.33"/>
      <point x="910" y="1122" type="curve" smooth="yes"/>
      <point x="910" y="800" type="line" smooth="yes"/>
      <point x="910" y="777.333"/>
      <point x="900.833" y="761.167"/>
      <point x="882.5" y="751.5" type="curve" smooth="yes"/>
      <point x="864.167" y="741.833"/>
      <point x="836" y="737"/>
      <point x="798" y="737" type="curve" smooth="yes"/>
      <point x="760.667" y="737"/>
      <point x="735" y="741.833"/>
      <point x="721" y="751.5" type="curve" smooth="yes"/>
      <point x="707" y="761.167"/>
      <point x="700" y="777.333"/>
      <point x="700" y="800" type="curve" smooth="yes"/>
      <point x="700" y="972" type="line"/>
      <point x="599" y="972" type="line"/>
      <point x="599" y="647" type="line"/>
      <point x="627.667" y="659"/>
      <point x="658.833" y="669"/>
      <point x="692.5" y="677" type="curve" smooth="yes"/>
      <point x="726.167" y="685"/>
      <point x="762.333" y="689"/>
      <point x="801" y="689" type="curve" smooth="yes"/>
      <point x="860.333" y="689"/>
      <point x="913.833" y="681.333"/>
      <point x="961.5" y="666" type="curve" smooth="yes"/>
      <point x="1009.17" y="650.667"/>
      <point x="1049.83" y="629"/>
      <point x="1083.5" y="601" type="curve" smooth="yes"/>
      <point x="1117.17" y="573"/>
      <point x="1143" y="538.833"/>
      <point x="1161" y="498.5" type="curve" smooth="yes"/>
      <point x="1179" y="458.167"/>
      <point x="1188" y="413"/>
      <point x="1188" y="363" type="curve" smooth="yes"/>
      <point x="1188" y="233"/>
      <point x="1156.17" y="136.333"/>
      <point x="1092.5" y="73" type="curve" smooth="yes"/>
      <point x="1028.83" y="9.66667"/>
      <point x="935.667" y="-22"/>
      <point x="813" y="-22" type="curve" smooth="yes"/>
      <point x="801.667" y="-22"/>
      <point x="792" y="-20.6667"/>
      <point x="784" y="-18" type="curve" smooth="yes"/>
      <point x="776" y="-15.3333"/>
      <point x="769.5" y="-10"/>
      <point x="764.5" y="-2" type="curve" smooth="yes"/>
      <point x="759.5" y="6"/>
      <point x="755.833" y="17.3333"/>
      <point x="753.5" y="32" type="curve" smooth="yes"/>
      <point x="751.167" y="46.6667"/>
      <point x="750" y="66"/>
      <point x="750" y="90" type="curve" smooth="yes"/>
      <point x="750" y="114"/>
      <point x="751.167" y="133.333"/>
      <point x="753.5" y="148" type="curve" smooth="yes"/>
      <point x="755.833" y="162.667"/>
      <point x="759.5" y="174"/>
      <point x="764.5" y="182" type="curve" smooth="yes"/>
      <point x="769.5" y="190"/>
      <point x="776" y="195.5"/>
      <point x="784" y="198.5" type="curve" smooth="yes"/>
      <point x="792" y="201.5"/>
      <point x="801.667" y="203"/>
      <point x="813" y="203" type="curve" smooth="yes"/>
      <point x="855" y="203"/>
      <point x="886.333" y="213.5"/>
      <point x="907" y="234.5" type="curve" smooth="yes"/>
      <point x="927.667" y="255.5"/>
      <point x="938" y="290"/>
    </contour>
  </outline>
</glyph>
<glyph name="Gjecyrillic" format="1">
  <advance width="1228"/>
  <unicode hex="0403"/>
  <outline>
    <contour>
      <point x="250" y="982" type="line"/>
      <point x="123" y="982" type="line" smooth="yes"/>
      <point x="111.667" y="982"/>
      <point x="102" y="983.333"/>
      <point x="94" y="986" type="curve" smooth="yes"/>
      <point x="86" y="988.667"/>
      <point x="79.5" y="993.667"/>
      <point x="74.5" y="1001" type="curve" smooth="yes"/>
      <point x="69.5" y="1008.33"/>
      <point x="65.8333" y="1018.67"/>
      <point x="63.5" y="1032" type="curve" smooth="yes"/>
      <point x="61.1667" y="1045.33"/>
      <point x="60" y="1062.67"/>
      <point x="60" y="1084" type="curve" smooth="yes"/>
      <point x="60" y="1105.33"/>
      <point x="61.1667" y="1122.67"/>
      <point x="63.5" y="1136" type="curve" smooth="yes"/>
      <point x="65.8333" y="1149.33"/>
      <point x="69.5" y="1159.83"/>
      <point x="74.5" y="1167.5" type="curve" smooth="yes"/>
      <point x="79.5" y="1175.17"/>
      <point x="86" y="1180.33"/>
      <point x="94" y="1183" type="curve" smooth="yes"/>
      <point x="102" y="1185.67"/>
      <point x="111.667" y="1187"/>
      <point x="123" y="1187" type="curve" smooth="yes"/>
      <point x="1055" y="1187" type="line" smooth="yes"/>
      <point x="1078.33" y="1187"/>
      <point x="1095" y="1182"/>
      <point x="1105" y="1172" type="curve" smooth="yes"/>
      <point x="1115" y="1162"/>
      <point x="1120" y="1145.33"/>
      <point x="1120" y="1122" type="curve" smooth="yes"/>
      <point x="1120" y="700" type="line" smooth="yes"/>
      <point x="1120" y="677.333"/>
      <point x="1110.33" y="661.167"/>
      <point x="1091" y="651.5" type="curve" smooth="yes"/>
      <point x="1071.67" y="641.833"/>
      <point x="1040.67" y="637"/>
      <point x="998" y="637" type="curve" smooth="yes"/>
      <point x="976.667" y="637"/>
      <point x="959" y="638.167"/>
      <point x="945" y="640.5" type="curve" smooth="yes"/>
      <point x="931" y="642.833"/>
      <point x="920" y="646.5"/>
      <point x="912" y="651.5" type="curve" smooth="yes"/>
      <point x="904" y="656.5"/>
      <point x="898.333" y="663"/>
      <point x="895" y="671" type="curve" smooth="yes"/>
      <point x="891.667" y="679"/>
      <point x="890" y="688.667"/>
      <point x="890" y="700" type="curve" smooth="yes"/>
      <point x="890" y="972" type="line"/>
      <point x="500" y="972" type="line"/>
      <point x="500" y="205" type="line"/>
      <point x="657" y="205" type="line" smooth="yes"/>
      <point x="668.333" y="205"/>
      <point x="678" y="203.667"/>
      <point x="686" y="201" type="curve" smooth="yes"/>
      <point x="694" y="198.333"/>
      <point x="700.5" y="193.167"/>
      <point x="705.5" y="185.5" type="curve" smooth="yes"/>
      <point x="710.5" y="177.833"/>
      <point x="714.167" y="167.333"/>
      <point x="716.5" y="154" type="curve" smooth="yes"/>
      <point x="718.833" y="140.667"/>
      <point x="720" y="123.333"/>
      <point x="720" y="102" type="curve" smooth="yes"/>
      <point x="720" y="80.6667"/>
      <point x="718.833" y="63.3333"/>
      <point x="716.5" y="50" type="curve" smooth="yes"/>
      <point x="714.167" y="36.6667"/>
      <point x="710.5" y="26.3333"/>
      <point x="705.5" y="19" type="curve" smooth="yes"/>
      <point x="700.5" y="11.6667"/>
      <point x="694" y="6.66667"/>
      <point x="686" y="4" type="curve" smooth="yes"/>
      <point x="678" y="1.33333"/>
      <point x="668.333" y="0"/>
      <point x="657" y="0" type="curve" smooth="yes"/>
      <point x="123" y="0" type="line" smooth="yes"/>
      <point x="111.667" y="0"/>
      <point x="102" y="1.33333"/>
      <point x="94" y="4" type="curve" smooth="yes"/>
      <point x="86" y="6.66667"/>
      <point x="79.5" y="11.6667"/>
      <point x="74.5" y="19" type="curve" smooth="yes"/>
      <point x="69.5" y="26.3333"/>
      <point x="65.8333" y="36.6667"/>
      <point x="63.5" y="50" type="curve" smooth="yes"/>
      <point x="61.1667" y="63.3333"/>
      <point x="60" y="80.6667"/>
      <point x="60" y="102" type="curve" smooth="yes"/>
      <point x="60" y="123.333"/>
      <point x="61.1667" y="140.667"/>
      <point x="63.5" y="154" type="curve" smooth="yes"/>
      <point x="65.8333" y="167.333"/>
      <point x="69.5" y="177.833"/>
      <point x="74.5" y="185.5" type="curve" smooth="yes"/>
      <point x="79.5" y="193.167"/>
      <point x="86" y="198.333"/>
      <point x="94" y="201" type="curve" smooth="yes"/>
      <point x="102" y="203.667"/>
      <point x="111.667" y="205"/>
      <point x="123" y="205" type="curve" smooth="yes"/>
      <point x="250" y="205" type="line"/>
    </contour>
    <contour>
      <point x="808" y="1655" type="line" smooth="yes"/>
      <point x="826.667" y="1665.67"/>
      <point x="846.333" y="1664.5"/>
      <point x="867" y="1651.5" type="curve" smooth="yes"/>
      <point x="887.667" y="1638.5"/>
      <point x="908" y="1609.33"/>
      <point x="928" y="1564" type="curve" smooth="yes"/>
      <point x="948" y="1518"/>
      <point x="956.833" y="1483.83"/>
      <point x="954.5" y="1461.5" type="curve" smooth="yes"/>
      <point x="952.167" y="1439.17"/>
      <point x="942.333" y="1425.67"/>
      <point x="925" y="1421" type="curve" smooth="yes"/>
      <point x="445" y="1296" type="line" smooth="yes"/>
      <point x="429" y="1291.33"/>
      <point x="415" y="1292.83"/>
      <point x="403" y="1300.5" type="curve" smooth="yes"/>
      <point x="391" y="1308.17"/>
      <point x="382.333" y="1319.67"/>
      <point x="377" y="1335" type="curve" smooth="yes"/>
      <point x="371.667" y="1349.67"/>
      <point x="370.833" y="1363.5"/>
      <point x="374.5" y="1376.5" type="curve" smooth="yes"/>
      <point x="378.167" y="1389.5"/>
      <point x="386.667" y="1400"/>
      <point x="400" y="1408" type="curve" smooth="yes"/>
    </contour>
  </outline>
</glyph>
<glyph name="Ecyrillic" format="1">
  <advance width="1228"/>
  <unicode hex="0404"/>
  <outline>
    <contour>
      <point x="1081" y="84" type="curve" smooth="yes"/>
      <point x="1010.33" y="49.3333"/>
      <point x="939.5" y="23"/>
      <point x="868.5" y="5" type="curve" smooth="yes"/>
      <point x="797.5" y="-13"/>
      <point x="726" y="-22"/>
      <point x="654" y="-22" type="curve" smooth="yes"/>
      <point x="571.333" y="-22"/>
      <point x="496.167" y="-7.66667"/>
      <point x="428.5" y="21" type="curve" smooth="yes"/>
      <point x="360.833" y="49.6667"/>
      <point x="302.833" y="90.5"/>
      <point x="254.5" y="143.5" type="curve" smooth="yes"/>
      <point x="206.167" y="196.5"/>
      <point x="168.833" y="261"/>
      <point x="142.5" y="337" type="curve" smooth="yes"/>
      <point x="116.167" y="413"/>
      <point x="103" y="498.667"/>
      <point x="103" y="594" type="curve" smooth="yes"/>
      <point x="103" y="688.667"/>
      <point x="116" y="774"/>
      <point x="142" y="850" type="curve" smooth="yes"/>
      <point x="168" y="926"/>
      <point x="204.333" y="990.667"/>
      <point x="251" y="1044" type="curve" smooth="yes"/>
      <point x="297.667" y="1097.33"/>
      <point x="352.667" y="1138.17"/>
      <point x="416" y="1166.5" type="curve" smooth="yes"/>
      <point x="479.333" y="1194.83"/>
      <point x="548.667" y="1209"/>
      <point x="624" y="1209" type="curve" smooth="yes"/>
      <point x="686.667" y="1209"/>
      <point x="739.167" y="1197.67"/>
      <point x="781.5" y="1175" type="curve" smooth="yes"/>
      <point x="823.833" y="1152.33"/>
      <point x="858" y="1121.67"/>
      <point x="884" y="1083" type="curve"/>
      <point x="884" y="1146" type="line" smooth="yes"/>
      <point x="884" y="1168.67"/>
      <point x="893.667" y="1184.83"/>
      <point x="913" y="1194.5" type="curve" smooth="yes"/>
      <point x="932.333" y="1204.17"/>
      <point x="963.333" y="1209"/>
      <point x="1006" y="1209" type="curve" smooth="yes"/>
      <point x="1027.33" y="1209"/>
      <point x="1045" y="1207.83"/>
      <point x="1059" y="1205.5" type="curve" smooth="yes"/>
      <point x="1073" y="1203.17"/>
      <point x="1084" y="1199.5"/>
      <point x="1092" y="1194.5" type="curve" smooth="yes"/>
      <point x="1100" y="1189.5"/>
      <point x="1105.67" y="1183"/>
      <point x="1109" y="1175" type="curve" smooth="yes"/>
      <point x="1112.33" y="1167"/>
      <point x="1114" y="1157.33"/>
      <point x="1114" y="1146" type="curve" smooth="yes"/>
      <point x="1114" y="762" type="line" smooth="yes"/>
      <point x="1114" y="739.333"/>
      <point x="1104" y="723.167"/>
      <point x="1084" y="713.5" type="curve" smooth="yes"/>
      <point x="1064" y="703.833"/>
      <point x="1030" y="699"/>
      <point x="982" y="699" type="curve" smooth="yes"/>
      <point x="958" y="699"/>
      <point x="938.5" y="700.167"/>
      <point x="923.5" y="702.5" type="curve" smooth="yes"/>
      <point x="908.5" y="704.833"/>
      <point x="896.5" y="708.5"/>
      <point x="887.5" y="713.5" type="curve" smooth="yes"/>
      <point x="878.5" y="718.5"/>
      <point x="872.333" y="725"/>
      <point x="869" y="733" type="curve" smooth="yes"/>
      <point x="865.667" y="741"/>
      <point x="864" y="750.667"/>
      <point x="864" y="762" type="curve" smooth="yes"/>
      <point x="864" y="794"/>
      <point x="859.5" y="823.5"/>
      <point x="850.5" y="850.5" type="curve" smooth="yes"/>
      <point x="841.5" y="877.5"/>
      <point x="828.167" y="900.833"/>
      <point x="810.5" y="920.5" type="curve" smooth="yes"/>
      <point x="792.833" y="940.167"/>
      <point x="771" y="955.333"/>
      <point x="745" y="966" type="curve" smooth="yes"/>
      <point x="719" y="976.667"/>
      <point x="688.667" y="982"/>
      <point x="654" y="982" type="curve" smooth="yes"/>
      <point x="573.333" y="982"/>
      <point x="509.833" y="957.5"/>
      <point x="463.5" y="908.5" type="curve" smooth="yes"/>
      <point x="417.167" y="859.5"/>
      <point x="388.333" y="788.333"/>
      <point x="377" y="695" type="curve"/>
      <point x="745" y="695" type="line" smooth="yes"/>
      <point x="756.333" y="695"/>
      <point x="766" y="693.5"/>
      <point x="774" y="690.5" type="curve" smooth="yes"/>
      <point x="782" y="687.5"/>
      <point x="788.5" y="682"/>
      <point x="793.5" y="674" type="curve" smooth="yes"/>
      <point x="798.5" y="666"/>
      <point x="802.167" y="654.667"/>
      <point x="804.5" y="640" type="curve" smooth="yes"/>
      <point x="806.833" y="625.333"/>
      <point x="808" y="606"/>
      <point x="808" y="582" type="curve" smooth="yes"/>
      <point x="808" y="558"/>
      <point x="806.833" y="538.667"/>
      <point x="804.5" y="524" type="curve" smooth="yes"/>
      <point x="802.167" y="509.333"/>
      <point x="798.5" y="498"/>
      <point x="793.5" y="490" type="curve" smooth="yes"/>
      <point x="788.5" y="482"/>
      <point x="782" y="476.667"/>
      <point x="774" y="474" type="curve" smooth="yes"/>
      <point x="766" y="471.333"/>
      <point x="756.333" y="470"/>
      <point x="745" y="470" type="curve" smooth="yes"/>
      <point x="381" y="470" type="line"/>
      <point x="396.333" y="384"/>
      <point x="428" y="318.333"/>
      <point x="476" y="273" type="curve" smooth="yes"/>
      <point x="524" y="227.667"/>
      <point x="586.667" y="205"/>
      <point x="664" y="205" type="curve" smooth="yes"/>
      <point x="725.333" y="205"/>
      <point x="783" y="213.5"/>
      <point x="837" y="230.5" type="curve" smooth="yes"/>
      <point x="891" y="247.5"/>
      <point x="947" y="270.667"/>
      <point x="1005" y="300" type="curve" smooth="yes"/>
      <point x="1025" y="310"/>
      <point x="1044.33" y="310"/>
      <point x="1063" y="300" type="curve" smooth="yes"/>
      <point x="1081.67" y="290"/>
      <point x="1098.33" y="265"/>
      <point x="1113" y="225" type="curve" smooth="yes"/>
      <point x="1127.67" y="184.333"/>
      <point x="1131.33" y="153.333"/>
      <point x="1124" y="132" type="curve" smooth="yes"/>
      <point x="1116.67" y="110.667"/>
      <point x="1102.33" y="94.6667"/>
    </contour>
  </outline>
</glyph>
<glyph name="Dzecyrillic" format="1">
  <advance width="1228"/>
  <unicode hex="0405"/>
  <outline>
    <contour>
      <point x="389" y="41" type="line" smooth="yes"/>
      <point x="389" y="18.3333"/>
      <point x="381" y="2.16667"/>
      <point x="365" y="-7.5" type="curve" smooth="yes"/>
      <point x="349" y="-17.1667"/>
      <point x="319.667" y="-22"/>
      <point x="277" y="-22" type="curve" smooth="yes"/>
      <point x="234.333" y="-22"/>
      <point x="204" y="-17.1667"/>
      <point x="186" y="-7.5" type="curve" smooth="yes"/>
      <point x="168" y="2.16667"/>
      <point x="159" y="18.3333"/>
      <point x="159" y="41" type="curve" smooth="yes"/>
      <point x="159" y="375" type="line" smooth="yes"/>
      <point x="159" y="397.667"/>
      <point x="166.167" y="413.833"/>
      <point x="180.5" y="423.5" type="curve" smooth="yes"/>
      <point x="194.833" y="433.167"/>
      <point x="218.333" y="438"/>
      <point x="251" y="438" type="curve" smooth="yes"/>
      <point x="274.333" y="438"/>
      <point x="292.833" y="435"/>
      <point x="306.5" y="429" type="curve" smooth="yes"/>
      <point x="320.167" y="423"/>
      <point x="330.667" y="412.667"/>
      <point x="338" y="398" type="curve" smooth="yes"/>
      <point x="374" y="329.333"/>
      <point x="416.5" y="277.667"/>
      <point x="465.5" y="243" type="curve" smooth="yes"/>
      <point x="514.5" y="208.333"/>
      <point x="573.333" y="191"/>
      <point x="642" y="191" type="curve" smooth="yes"/>
      <point x="702.667" y="191"/>
      <point x="747.833" y="203.167"/>
      <point x="777.5" y="227.5" type="curve" smooth="yes"/>
      <point x="807.167" y="251.833"/>
      <point x="822" y="285"/>
      <point x="822" y="327" type="curve" smooth="yes"/>
      <point x="822" y="355"/>
      <point x="814.833" y="378"/>
      <point x="800.5" y="396" type="curve" smooth="yes"/>
      <point x="786.167" y="414"/>
      <point x="766.667" y="429"/>
      <point x="742" y="441" type="curve" smooth="yes"/>
      <point x="715.333" y="453.667"/>
      <point x="684.167" y="464"/>
      <point x="648.5" y="472" type="curve" smooth="yes"/>
      <point x="612.833" y="480"/>
      <point x="575.667" y="488"/>
      <point x="537" y="496" type="curve" smooth="yes"/>
      <point x="498.333" y="504"/>
      <point x="459.5" y="513.333"/>
      <point x="420.5" y="524" type="curve" smooth="yes"/>
      <point x="381.5" y="534.667"/>
      <point x="345" y="549"/>
      <point x="311" y="567" type="curve" smooth="yes"/>
      <point x="287.667" y="579"/>
      <point x="266.167" y="593.333"/>
      <point x="246.5" y="610" type="curve" smooth="yes"/>
      <point x="226.833" y="626.667"/>
      <point x="209.667" y="646.167"/>
      <point x="195" y="668.5" type="curve" smooth="yes"/>
      <point x="180.333" y="690.833"/>
      <point x="169" y="716.667"/>
      <point x="161" y="746" type="curve" smooth="yes"/>
      <point x="153" y="775.333"/>
      <point x="149" y="808.667"/>
      <point x="149" y="846" type="curve" smooth="yes"/>
      <point x="149" y="898.667"/>
      <point x="158.333" y="947.333"/>
      <point x="177" y="992" type="curve" smooth="yes"/>
      <point x="195.667" y="1036.67"/>
      <point x="222.167" y="1075"/>
      <point x="256.5" y="1107" type="curve" smooth="yes"/>
      <point x="290.833" y="1139"/>
      <point x="331.833" y="1164"/>
      <point x="379.5" y="1182" type="curve" smooth="yes"/>
      <point x="427.167" y="1200"/>
      <point x="480" y="1209"/>
      <point x="538" y="1209" type="curve" smooth="yes"/>
      <point x="592" y="1209"/>
      <point x="641.333" y="1200.33"/>
      <point x="686" y="1183" type="curve" smooth="yes"/>
      <point x="730.667" y="1165.67"/>
      <point x="770" y="1141"/>
      <point x="804" y="1109" type="curve"/>
      <point x="804" y="1146" type="line" smooth="yes"/>
      <point x="804" y="1168.67"/>
      <point x="812" y="1184.83"/>
      <point x="828" y="1194.5" type="curve" smooth="yes"/>
      <point x="844" y="1204.17"/>
      <point x="873.333" y="1209"/>
      <point x="916" y="1209" type="curve" smooth="yes"/>
      <point x="958.667" y="1209"/>
      <point x="989" y="1204.17"/>
      <point x="1007" y="1194.5" type="curve" smooth="yes"/>
      <point x="1025" y="1184.83"/>
      <point x="1034" y="1168.67"/>
      <point x="1034" y="1146" type="curve" smooth="yes"/>
      <point x="1034" y="872" type="line" smooth="yes"/>
      <point x="1034" y="849.333"/>
      <point x="1026.83" y="833.167"/>
      <point x="1012.5" y="823.5" type="curve" smooth="yes"/>
      <point x="998.167" y="813.833"/>
      <point x="974.667" y="809"/>
      <point x="942" y="809" type="curve" smooth="yes"/>
      <point x="919.333" y="809"/>
      <point x="901.833" y="811.667"/>
      <point x="889.5" y="817" type="curve" smooth="yes"/>
      <point x="877.167" y="822.333"/>
      <point x="867.333" y="830.333"/>
      <point x="860" y="841" type="curve" smooth="yes"/>
      <point x="829.333" y="889"/>
      <point x="789.667" y="926.833"/>
      <point x="741" y="954.5" type="curve" smooth="yes"/>
      <point x="692.333" y="982.167"/>
      <point x="634.667" y="996"/>
      <point x="568" y="996" type="curve" smooth="yes"/>
      <point x="518" y="996"/>
      <point x="479.5" y="983.333"/>
      <point x="452.5" y="958" type="curve" smooth="yes"/>
      <point x="425.5" y="932.667"/>
      <point x="412" y="901"/>
      <point x="412" y="863" type="curve" smooth="yes"/>
      <point x="412" y="843"/>
      <point x="418.333" y="826.833"/>
      <point x="431" y="814.5" type="curve" smooth="yes"/>
      <point x="443.667" y="802.167"/>
      <point x="460.667" y="791.667"/>
      <point x="482" y="783" type="curve" smooth="yes"/>
      <point x="508" y="773"/>
      <point x="539.167" y="764.833"/>
      <point x="575.5" y="758.5" type="curve" smooth="yes"/>
      <point x="611.833" y="752.167"/>
      <point x="650.167" y="745"/>
      <point x="690.5" y="737" type="curve" smooth="yes"/>
      <point x="730.833" y="729"/>
      <point x="771.5" y="719"/>
      <point x="812.5" y="707" type="curve" smooth="yes"/>
      <point x="853.5" y="695"/>
      <point x="891.667" y="678.333"/>
      <point x="927" y="657" type="curve" smooth="yes"/>
      <point x="949.667" y="643"/>
      <point x="970.833" y="626.5"/>
      <point x="990.5" y="607.5" type="curve" smooth="yes"/>
      <point x="1010.17" y="588.5"/>
      <point x="1027.17" y="566.333"/>
      <point x="1041.5" y="541" type="curve" smooth="yes"/>
      <point x="1055.83" y="515.667"/>
      <point x="1067" y="486.667"/>
      <point x="1075" y="454" type="curve" smooth="yes"/>
      <point x="1083" y="421.333"/>
      <point x="1087" y="384.667"/>
      <point x="1087" y="344" type="curve" smooth="yes"/>
      <point x="1087" y="290"/>
      <point x="1078.5" y="240.5"/>
      <point x="1061.5" y="195.5" type="curve" smooth="yes"/>
      <point x="1044.5" y="150.5"/>
      <point x="1018.67" y="112"/>
      <point x="984" y="80" type="curve" smooth="yes"/>
      <point x="949.333" y="48"/>
      <point x="906.167" y="23"/>
      <point x="854.5" y="5" type="curve" smooth="yes"/>
      <point x="802.833" y="-13"/>
      <point x="742" y="-22"/>
      <point x="672" y="-22" type="curve" smooth="yes"/>
      <point x="560.667" y="-22"/>
      <point x="466.333" y="11.6667"/>
      <point x="389" y="79" type="curve"/>
    </contour>
  </outline>
</glyph>
<glyph name="Icyrillic" format="1">
  <advance width="1228"/>
  <unicode hex="0406"/>
  <outline>
    <contour>
      <point x="489" y="982" type="line"/>
      <point x="253" y="982" type="line" smooth="yes"/>
      <point x="241.667" y="982"/>
      <point x="232" y="983.333"/>
      <point x="224" y="986" type="curve" smooth="yes"/>
      <point x="216" y="988.667"/>
      <point x="209.5" y="993.667"/>
      <point x="204.5" y="1001" type="curve" smooth="yes"/>
      <point x="199.5" y="1008.33"/>
      <point x="195.833" y="1018.67"/>
      <point x="193.5" y="1032" type="curve" smooth="yes"/>
      <point x="191.167" y="1045.33"/>
      <point x="190" y="1062.67"/>
      <point x="190" y="1084" type="curve" smooth="yes"/>
      <point x="190" y="1105.33"/>
      <point x="191.167" y="1122.67"/>
      <point x="193.5" y="1136" type="curve" smooth="yes"/>
      <point x="195.833" y="1149.33"/>
      <point x="199.5" y="1159.83"/>
      <point x="204.5" y="1167.5" type="curve" smooth="yes"/>
      <point x="209.5" y="1175.17"/>
      <point x="216" y="1180.33"/>
      <point x="224" y="1183" type="curve" smooth="yes"/>
      <point x="232" y="1185.67"/>
      <point x="241.667" y="1187"/>
      <point x="253" y="1187" type="curve" smooth="yes"/>
      <point x="975" y="1187" type="line" smooth="yes"/>
      <point x="986.333" y="1187"/>
      <point x="996" y="1185.67"/>
      <point x="1004" y="1183" type="curve" smooth="yes"/>
      <point x="1012" y="1180.33"/>
      <point x="1018.5" y="1175.17"/>
      <point x="1023.5" y="1167.5" type="curve" smooth="yes"/>
      <point x="1028.5" y="1159.83"/>
      <point x="1032.17" y="1149.33"/>
      <point x="1034.5" y="1136" type="curve" smooth="yes"/>
      <point x="1036.83" y="1122.67"/>
      <point x="1038" y="1105.33"/>
      <point x="1038" y="1084" type="curve" smooth="yes"/>
      <point x="1038" y="1062.67"/>
      <point x="1036.83" y="1045.33"/>
      <point x="1034.5" y="1032" type="curve" smooth="yes"/>
      <point x="1032.17" y="1018.67"/>
      <point x="1028.5" y="1008.33"/>
      <point x="1023.5" y="1001" type="curve" smooth="yes"/>
      <point x="1018.5" y="993.667"/>
      <point x="1012" y="988.667"/>
      <point x="1004" y="986" type="curve" smooth="yes"/>
      <point x="996" y="983.333"/>
      <point x="986.333" y="982"/>
      <point x="975" y="982" type="curve" smooth="yes"/>
      <point x="739" y="982" type="line"/>
      <point x="739" y="205" type="line"/>
      <point x="995" y="205" type="line" smooth="yes"/>
      <point x="1006.33" y="205"/>
      <point x="1016" y="203.667"/>
      <point x="1024" y="201" type="curve" smooth="yes"/>
      <point x="1032" y="198.333"/>
      <point x="1038.5" y="193.167"/>
      <point x="1043.5" y="185.5" type="curve" smooth="yes"/>
      <point x="1048.5" y="177.833"/>
      <point x="1052.17" y="167.333"/>
      <point x="1054.5" y="154" type="curve" smooth="yes"/>
      <point x="1056.83" y="140.667"/>
      <point x="1058" y="123.333"/>
      <point x="1058" y="102" type="curve" smooth="yes"/>
      <point x="1058" y="80.6667"/>
      <point x="1056.83" y="63.3333"/>
      <point x="1054.5" y="50" type="curve" smooth="yes"/>
      <point x="1052.17" y="36.6667"/>
      <point x="1048.5" y="26.3333"/>
      <point x="1043.5" y="19" type="curve" smooth="yes"/>
      <point x="1038.5" y="11.6667"/>
      <point x="1032" y="6.66667"/>
      <point x="1024" y="4" type="curve" smooth="yes"/>
      <point x="1016" y="1.33333"/>
      <point x="1006.33" y="0"/>
      <point x="995" y="0" type="curve" smooth="yes"/>
      <point x="233" y="0" type="line" smooth="yes"/>
      <point x="221.667" y="0"/>
      <point x="212" y="1.33333"/>
      <point x="204" y="4" type="curve" smooth="yes"/>
      <point x="196" y="6.66667"/>
      <point x="189.5" y="11.6667"/>
      <point x="184.5" y="19" type="curve" smooth="yes"/>
      <point x="179.5" y="26.3333"/>
      <point x="175.833" y="36.6667"/>
      <point x="173.5" y="50" type="curve" smooth="yes"/>
      <point x="171.167" y="63.3333"/>
      <point x="170" y="80.6667"/>
      <point x="170" y="102" type="curve" smooth="yes"/>
      <point x="170" y="123.333"/>
      <point x="171.167" y="140.667"/>
      <point x="173.5" y="154" type="curve" smooth="yes"/>
      <point x="175.833" y="167.333"/>
      <point x="179.5" y="177.833"/>
      <point x="184.5" y="185.5" type="curve" smooth="yes"/>
      <point x="189.5" y="193.167"/>
      <point x="196" y="198.333"/>
      <point x="204" y="201" type="curve" smooth="yes"/>
      <point x="212" y="203.667"/>
      <point x="221.667" y="205"/>
      <point x="233" y="205" type="curve" smooth="yes"/>
      <point x="489" y="205" type="line"/>
    </contour>
  </outline>
</glyph>
<glyph name="Yicyrillic" format="1">
  <advance width="1228"/>
  <unicode hex="0407"/>
  <outline>
    <contour>
      <point x="489" y="982" type="line"/>
      <point x="253" y="982" type="line" smooth="yes"/>
      <point x="241.667" y="982"/>
      <point x="232" y="983.333"/>
      <point x="224" y="986" type="curve" smooth="yes"/>
      <point x="216" y="988.667"/>
      <point x="209.5" y="993.667"/>
      <point x="204.5" y="1001" type="curve" smooth="yes"/>
      <point x="199.5" y="1008.33"/>
      <point x="195.833" y="1018.67"/>
      <point x="193.5" y="1032" type="curve" smooth="yes"/>
      <point x="191.167" y="1045.33"/>
      <point x="190" y="1062.67"/>
      <point x="190" y="1084" type="curve" smooth="yes"/>
      <point x="190" y="1105.33"/>
      <point x="191.167" y="1122.67"/>
      <point x="193.5" y="1136" type="curve" smooth="yes"/>
      <point x="195.833" y="1149.33"/>
      <point x="199.5" y="1159.83"/>
      <point x="204.5" y="1167.5" type="curve" smooth="yes"/>
      <point x="209.5" y="1175.17"/>
      <point x="216" y="1180.33"/>
      <point x="224" y="1183" type="curve" smooth="yes"/>
      <point x="232" y="1185.67"/>
      <point x="241.667" y="1187"/>
      <point x="253" y="1187" type="curve" smooth="yes"/>
      <point x="975" y="1187" type="line" smooth="yes"/>
      <point x="986.333" y="1187"/>
      <point x="996" y="1185.67"/>
      <point x="1004" y="1183" type="curve" smooth="yes"/>
      <point x="1012" y="1180.33"/>
      <point x="1018.5" y="1175.17"/>
      <point x="1023.5" y="1167.5" type="curve" smooth="yes"/>
      <point x="1028.5" y="1159.83"/>
      <point x="1032.17" y="1149.33"/>
      <point x="1034.5" y="1136" type="curve" smooth="yes"/>
      <point x="1036.83" y="1122.67"/>
      <point x="1038" y="1105.33"/>
      <point x="1038" y="1084" type="curve" smooth="yes"/>
      <point x="1038" y="1062.67"/>
      <point x="1036.83" y="1045.33"/>
      <point x="1034.5" y="1032" type="curve" smooth="yes"/>
      <point x="1032.17" y="1018.67"/>
      <point x="1028.5" y="1008.33"/>
      <point x="1023.5" y="1001" type="curve" smooth="yes"/>
      <point x="1018.5" y="993.667"/>
      <point x="1012" y="988.667"/>
      <point x="1004" y="986" type="curve" smooth="yes"/>
      <point x="996" y="983.333"/>
      <point x="986.333" y="982"/>
      <point x="975" y="982" type="curve" smooth="yes"/>
      <point x="739" y="982" type="line"/>
      <point x="739" y="205" type="line"/>
      <point x="995" y="205" type="line" smooth="yes"/>
      <point x="1006.33" y="205"/>
      <point x="1016" y="203.667"/>
      <point x="1024" y="201" type="curve" smooth="yes"/>
      <point x="1032" y="198.333"/>
      <point x="1038.5" y="193.167"/>
      <point x="1043.5" y="185.5" type="curve" smooth="yes"/>
      <point x="1048.5" y="177.833"/>
      <point x="1052.17" y="167.333"/>
      <point x="1054.5" y="154" type="curve" smooth="yes"/>
      <point x="1056.83" y="140.667"/>
      <point x="1058" y="123.333"/>
      <point x="1058" y="102" type="curve" smooth="yes"/>
      <point x="1058" y="80.6667"/>
      <point x="1056.83" y="63.3333"/>
      <point x="1054.5" y="50" type="curve" smooth="yes"/>
      <point x="1052.17" y="36.6667"/>
      <point x="1048.5" y="26.3333"/>
      <point x="1043.5" y="19" type="curve" smooth="yes"/>
      <point x="1038.5" y="11.6667"/>
      <point x="1032" y="6.66667"/>
      <point x="1024" y="4" type="curve" smooth="yes"/>
      <point x="1016" y="1.33333"/>
      <point x="1006.33" y="0"/>
      <point x="995" y="0" type="curve" smooth="yes"/>
      <point x="233" y="0" type="line" smooth="yes"/>
      <point x="221.667" y="0"/>
      <point x="212" y="1.33333"/>
      <point x="204" y="4" type="curve" smooth="yes"/>
      <point x="196" y="6.66667"/>
      <point x="189.5" y="11.6667"/>
      <point x="184.5" y="19" type="curve" smooth="yes"/>
      <point x="179.5" y="26.3333"/>
      <point x="175.833" y="36.6667"/>
      <point x="173.5" y="50" type="curve" smooth="yes"/>
      <point x="171.167" y="63.3333"/>
      <point x="170" y="80.6667"/>
      <point x="170" y="102" type="curve" smooth="yes"/>
      <point x="170" y="123.333"/>
      <point x="171.167" y="140.667"/>
      <point x="173.5" y="154" type="curve" smooth="yes"/>
      <point x="175.833" y="167.333"/>
      <point x="179.5" y="177.833"/>
      <point x="184.5" y="185.5" type="curve" smooth="yes"/>
      <point x="189.5" y="193.167"/>
      <point x="196" y="198.333"/>
      <point x="204" y="201" type="curve" smooth="yes"/>
      <point x="212" y="203.667"/>
      <point x="221.667" y="205"/>
      <point x="233" y="205" type="curve" smooth="yes"/>
      <point x="489" y="205" type="line"/>
    </contour>
    <contour>
      <point x="234" y="1408" type="curve" smooth="yes"/>
      <point x="234" y="1428.67"/>
      <point x="238" y="1448.17"/>
      <point x="246" y="1466.5" type="curve" smooth="yes"/>
      <point x="254" y="1484.83"/>
      <point x="264.667" y="1500.67"/>
      <point x="278" y="1514" type="curve" smooth="yes"/>
      <point x="291.333" y="1527.33"/>
      <point x="307.167" y="1538"/>
      <point x="325.5" y="1546" type="curve" smooth="yes"/>
      <point x="343.833" y="1554"/>
      <point x="363.333" y="1558"/>
      <point x="384" y="1558" type="curve" smooth="yes"/>
      <point x="404.667" y="1558"/>
      <point x="424.167" y="1554"/>
      <point x="442.5" y="1546" type="curve" smooth="yes"/>
      <point x="460.833" y="1538"/>
      <point x="476.667" y="1527.33"/>
      <point x="490" y="1514" type="curve" smooth="yes"/>
      <point x="503.333" y="1500.67"/>
      <point x="514" y="1484.83"/>
      <point x="522" y="1466.5" type="curve" smooth="yes"/>
      <point x="530" y="1448.17"/>
      <point x="534" y="1428.67"/>
      <point x="534" y="1408" type="curve" smooth="yes"/>
      <point x="534" y="1387.33"/>
      <point x="530" y="1367.83"/>
      <point x="522" y="1349.5" type="curve" smooth="yes"/>
      <point x="514" y="1331.17"/>
      <point x="503.333" y="1315.33"/>
      <point x="490" y="1302" type="curve" smooth="yes"/>
      <point x="476.667" y="1288.67"/>
      <point x="460.833" y="1278"/>
      <point x="442.5" y="1270" type="curve" smooth="yes"/>
      <point x="424.167" y="1262"/>
      <point x="404.667" y="1258"/>
      <point x="384" y="1258" type="curve" smooth="yes"/>
      <point x="363.333" y="1258"/>
      <point x="343.833" y="1262"/>
      <point x="325.5" y="1270" type="curve" smooth="yes"/>
      <point x="307.167" y="1278"/>
      <point x="291.333" y="1288.67"/>
      <point x="278" y="1302" type="curve" smooth="yes"/>
      <point x="264.667" y="1315.33"/>
      <point x="254" y="1331.17"/>
      <point x="246" y="1349.5" type="curve" smooth="yes"/>
      <point x="238" y="1367.83"/>
      <point x="234" y="1387.33"/>
    </contour>
    <contour>
      <point x="694" y="1408" type="curve" smooth="yes"/>
      <point x="694" y="1428.67"/>
      <point x="698" y="1448.17"/>
      <point x="706" y="1466.5" type="curve" smooth="yes"/>
      <point x="714" y="1484.83"/>
      <point x="724.667" y="1500.67"/>
      <point x="738" y="1514" type="curve" smooth="yes"/>
      <point x="751.333" y="1527.33"/>
      <point x="767.167" y="1538"/>
      <point x="785.5" y="1546" type="curve" smooth="yes"/>
      <point x="803.833" y="1554"/>
      <point x="823.333" y="1558"/>
      <point x="844" y="1558" type="curve" smooth="yes"/>
      <point x="864.667" y="1558"/>
      <point x="884.167" y="1554"/>
      <point x="902.5" y="1546" type="curve" smooth="yes"/>
      <point x="920.833" y="1538"/>
      <point x="936.667" y="1527.33"/>
      <point x="950" y="1514" type="curve" smooth="yes"/>
      <point x="963.333" y="1500.67"/>
      <point x="974" y="1484.83"/>
      <point x="982" y="1466.5" type="curve" smooth="yes"/>
      <point x="990" y="1448.17"/>
      <point x="994" y="1428.67"/>
      <point x="994" y="1408" type="curve" smooth="yes"/>
      <point x="994" y="1387.33"/>
      <point x="990" y="1367.83"/>
      <point x="982" y="1349.5" type="curve" smooth="yes"/>
      <point x="974" y="1331.17"/>
      <point x="963.333" y="1315.33"/>
      <point x="950" y="1302" type="curve" smooth="yes"/>
      <point x="936.667" y="1288.67"/>
      <point x="920.833" y="1278"/>
      <point x="902.5" y="1270" type="curve" smooth="yes"/>
      <point x="884.167" y="1262"/>
      <point x="864.667" y="1258"/>
      <point x="844" y="1258" type="curve" smooth="yes"/>
      <point x="823.333" y="1258"/>
      <point x="803.833" y="1262"/>
      <point x="785.5" y="1270" type="curve" smooth="yes"/>
      <point x="767.167" y="1278"/>
      <point x="751.333" y="1288.67"/>
      <point x="738" y="1302" type="curve" smooth="yes"/>
      <point x="724.667" y="1315.33"/>
      <point x="714" y="1331.17"/>
      <point x="706" y="1349.5" type="curve" smooth="yes"/>
      <point x="698" y="1367.83"/>
      <point x="694" y="1387.33"/>
    </contour>
  </outline>
</glyph>
<glyph name="Jecyrillic" format="1">
  <advance width="1228"/>
  <unicode hex="0408"/>
  <outline>
    <contour>
      <point x="373" y="982" type="line" smooth="yes"/>
      <point x="361.667" y="982"/>
      <point x="352" y="983.333"/>
      <point x="344" y="986" type="curve" smooth="yes"/>
      <point x="336" y="988.667"/>
      <point x="329.5" y="993.667"/>
      <point x="324.5" y="1001" type="curve" smooth="yes"/>
      <point x="319.5" y="1008.33"/>
      <point x="315.833" y="1018.67"/>
      <point x="313.5" y="1032" type="curve" smooth="yes"/>
      <point x="311.167" y="1045.33"/>
      <point x="310" y="1062.67"/>
      <point x="310" y="1084" type="curve" smooth="yes"/>
      <point x="310" y="1105.33"/>
      <point x="311.167" y="1122.67"/>
      <point x="313.5" y="1136" type="curve" smooth="yes"/>
      <point x="315.833" y="1149.33"/>
      <point x="319.5" y="1159.83"/>
      <point x="324.5" y="1167.5" type="curve" smooth="yes"/>
      <point x="329.5" y="1175.17"/>
      <point x="336" y="1180.33"/>
      <point x="344" y="1183" type="curve" smooth="yes"/>
      <point x="352" y="1185.67"/>
      <point x="361.667" y="1187"/>
      <point x="373" y="1187" type="curve" smooth="yes"/>
      <point x="1115" y="1187" type="line" smooth="yes"/>
      <point x="1126.33" y="1187"/>
      <point x="1136" y="1185.67"/>
      <point x="1144" y="1183" type="curve" smooth="yes"/>
      <point x="1152" y="1180.33"/>
      <point x="1158.5" y="1175.17"/>
      <point x="1163.5" y="1167.5" type="curve" smooth="yes"/>
      <point x="1168.5" y="1159.83"/>
      <point x="1172.17" y="1149.33"/>
      <point x="1174.5" y="1136" type="curve" smooth="yes"/>
      <point x="1176.83" y="1122.67"/>
      <point x="1178" y="1105.33"/>
      <point x="1178" y="1084" type="curve" smooth="yes"/>
      <point x="1178" y="1062.67"/>
      <point x="1176.83" y="1045.33"/>
      <point x="1174.5" y="1032" type="curve" smooth="yes"/>
      <point x="1172.17" y="1018.67"/>
      <point x="1168.5" y="1008.33"/>
      <point x="1163.5" y="1001" type="curve" smooth="yes"/>
      <point x="1158.5" y="993.667"/>
      <point x="1152" y="988.667"/>
      <point x="1144" y="986" type="curve" smooth="yes"/>
      <point x="1136" y="983.333"/>
      <point x="1126.33" y="982"/>
      <point x="1115" y="982" type="curve" smooth="yes"/>
      <point x="929" y="982" type="line"/>
      <point x="929" y="363" type="line" smooth="yes"/>
      <point x="929" y="233"/>
      <point x="893" y="136.333"/>
      <point x="821" y="73" type="curve" smooth="yes"/>
      <point x="749" y="9.66667"/>
      <point x="643.333" y="-22"/>
      <point x="504" y="-22" type="curve" smooth="yes"/>
      <point x="347.333" y="-22"/>
      <point x="217.667" y="27"/>
      <point x="115" y="125" type="curve" smooth="yes"/>
      <point x="104.333" y="135.667"/>
      <point x="99" y="152.333"/>
      <point x="99" y="175" type="curve" smooth="yes"/>
      <point x="99" y="499" type="line" smooth="yes"/>
      <point x="99" y="521.667"/>
      <point x="109" y="537.833"/>
      <point x="129" y="547.5" type="curve" smooth="yes"/>
      <point x="149" y="557.167"/>
      <point x="183" y="562"/>
      <point x="231" y="562" type="curve" smooth="yes"/>
      <point x="255" y="562"/>
      <point x="274.5" y="560.833"/>
      <point x="289.5" y="558.5" type="curve" smooth="yes"/>
      <point x="304.5" y="556.167"/>
      <point x="316.5" y="552.5"/>
      <point x="325.5" y="547.5" type="curve" smooth="yes"/>
      <point x="334.5" y="542.5"/>
      <point x="340.667" y="536"/>
      <point x="344" y="528" type="curve" smooth="yes"/>
      <point x="347.333" y="520"/>
      <point x="349" y="510.333"/>
      <point x="349" y="499" type="curve" smooth="yes"/>
      <point x="349" y="239" type="line"/>
      <point x="394.333" y="216.333"/>
      <point x="449.667" y="205"/>
      <point x="515" y="205" type="curve" smooth="yes"/>
      <point x="569" y="205"/>
      <point x="609.833" y="219"/>
      <point x="637.5" y="247" type="curve" smooth="yes"/>
      <point x="665.167" y="275"/>
      <point x="679" y="320.333"/>
      <point x="679" y="383" type="curve" smooth="yes"/>
      <point x="679" y="982" type="line"/>
    </contour>
  </outline>
</glyph>
<glyph name="Ljecyrillic" format="1">
  <advance width="1228"/>
  <unicode hex="0409"/>
  <outline>
    <contour>
      <point x="611" y="0" type="line" smooth="yes"/>
      <point x="599.667" y="0"/>
      <point x="590" y="1.33333"/>
      <point x="582" y="4" type="curve" smooth="yes"/>
      <point x="574" y="6.66667"/>
      <point x="567.5" y="11.6667"/>
      <point x="562.5" y="19" type="curve" smooth="yes"/>
      <point x="557.5" y="26.3333"/>
      <point x="553.833" y="36.6667"/>
      <point x="551.5" y="50" type="curve" smooth="yes"/>
      <point x="549.167" y="63.3333"/>
      <point x="548" y="80.6667"/>
      <point x="548" y="102" type="curve" smooth="yes"/>
      <point x="548" y="123.333"/>
      <point x="549.167" y="140.667"/>
      <point x="551.5" y="154" type="curve" smooth="yes"/>
      <point x="553.833" y="167.333"/>
      <point x="557.5" y="177.833"/>
      <point x="562.5" y="185.5" type="curve" smooth="yes"/>
      <point x="567.5" y="193.167"/>
      <point x="574" y="198.333"/>
      <point x="582" y="201" type="curve" smooth="yes"/>
      <point x="590" y="203.667"/>
      <point x="599.667" y="205"/>
      <point x="611" y="205" type="curve" smooth="yes"/>
      <point x="628" y="205" type="line"/>
      <point x="628" y="982" type="line"/>
      <point x="530" y="982" type="line"/>
      <point x="530" y="363" type="line" smooth="yes"/>
      <point x="530" y="233"/>
      <point x="502.333" y="136.333"/>
      <point x="447" y="73" type="curve" smooth="yes"/>
      <point x="391.667" y="9.66667"/>
      <point x="312.333" y="-22"/>
      <point x="209" y="-22" type="curve" smooth="yes"/>
      <point x="179.667" y="-22"/>
      <point x="154.667" y="-20.8333"/>
      <point x="134" y="-18.5" type="curve" smooth="yes"/>
      <point x="113.333" y="-16.1667"/>
      <point x="95.1667" y="-12.1667"/>
      <point x="79.5" y="-6.5" type="curve" smooth="yes"/>
      <point x="63.8333" y="-0.833333"/>
      <point x="49.5" y="6.16667"/>
      <point x="36.5" y="14.5" type="curve" smooth="yes"/>
      <point x="23.5" y="22.8333"/>
      <point x="10" y="33"/>
      <point x="-4" y="45" type="curve" smooth="yes"/>
      <point x="-10" y="50.3333"/>
      <point x="-14.1667" y="57.1667"/>
      <point x="-16.5" y="65.5" type="curve" smooth="yes"/>
      <point x="-18.8333" y="73.8333"/>
      <point x="-20" y="83.6667"/>
      <point x="-20" y="95" type="curve" smooth="yes"/>
      <point x="-20" y="349" type="line" smooth="yes"/>
      <point x="-20" y="371.667"/>
      <point x="-10.5" y="387.833"/>
      <point x="8.5" y="397.5" type="curve" smooth="yes"/>
      <point x="27.5" y="407.167"/>
      <point x="58.6667" y="412"/>
      <point x="102" y="412" type="curve" smooth="yes"/>
      <point x="123.333" y="412"/>
      <point x="141" y="410.833"/>
      <point x="155" y="408.5" type="curve" smooth="yes"/>
      <point x="169" y="406.167"/>
      <point x="180" y="402.5"/>
      <point x="188" y="397.5" type="curve" smooth="yes"/>
      <point x="196" y="392.5"/>
      <point x="201.667" y="386"/>
      <point x="205" y="378" type="curve" smooth="yes"/>
      <point x="208.333" y="370"/>
      <point x="210" y="360.333"/>
      <point x="210" y="349" type="curve" smooth="yes"/>
      <point x="210" y="205" type="line"/>
      <point x="232" y="205"/>
      <point x="249.167" y="219"/>
      <point x="261.5" y="247" type="curve" smooth="yes"/>
      <point x="273.833" y="275"/>
      <point x="280" y="320.333"/>
      <point x="280" y="383" type="curve" smooth="yes"/>
      <point x="280" y="982" type="line"/>
      <point x="233" y="982" type="line" smooth="yes"/>
      <point x="221.667" y="982"/>
      <point x="212" y="983.333"/>
      <point x="204" y="986" type="curve" smooth="yes"/>
      <point x="196" y="988.667"/>
      <point x="189.5" y="993.667"/>
      <point x="184.5" y="1001" type="curve" smooth="yes"/>
      <point x="179.5" y="1008.33"/>
      <point x="175.833" y="1018.67"/>
      <point x="173.5" y="1032" type="curve" smooth="yes"/>
      <point x="171.167" y="1045.33"/>
      <point x="170" y="1062.67"/>
      <point x="170" y="1084" type="curve" smooth="yes"/>
      <point x="170" y="1105.33"/>
      <point x="171.167" y="1122.67"/>
      <point x="173.5" y="1136" type="curve" smooth="yes"/>
      <point x="175.833" y="1149.33"/>
      <point x="179.5" y="1159.83"/>
      <point x="184.5" y="1167.5" type="curve" smooth="yes"/>
      <point x="189.5" y="1175.17"/>
      <point x="196" y="1180.33"/>
      <point x="204" y="1183" type="curve" smooth="yes"/>
      <point x="212" y="1185.67"/>
      <point x="221.667" y="1187"/>
      <point x="233" y="1187" type="curve" smooth="yes"/>
      <point x="925" y="1187" type="line" smooth="yes"/>
      <point x="936.333" y="1187"/>
      <point x="946" y="1185.67"/>
      <point x="954" y="1183" type="curve" smooth="yes"/>
      <point x="962" y="1180.33"/>
      <point x="968.5" y="1175.17"/>
      <point x="973.5" y="1167.5" type="curve" smooth="yes"/>
      <point x="978.5" y="1159.83"/>
      <point x="982.167" y="1149.33"/>
      <point x="984.5" y="1136" type="curve" smooth="yes"/>
      <point x="986.833" y="1122.67"/>
      <point x="988" y="1105.33"/>
      <point x="988" y="1084" type="curve" smooth="yes"/>
      <point x="988" y="1062.67"/>
      <point x="986.833" y="1045.33"/>
      <point x="984.5" y="1032" type="curve" smooth="yes"/>
      <point x="982.167" y="1018.67"/>
      <point x="978.5" y="1008.33"/>
      <point x="973.5" y="1001" type="curve" smooth="yes"/>
      <point x="968.5" y="993.667"/>
      <point x="962" y="988.667"/>
      <point x="954" y="986" type="curve" smooth="yes"/>
      <point x="946" y="983.333"/>
      <point x="936.333" y="982"/>
      <point x="925" y="982" type="curve" smooth="yes"/>
      <point x="878" y="982" type="line"/>
      <point x="878" y="708" type="line"/>
      <point x="908" y="708" type="line" smooth="yes"/>
      <point x="954.667" y="708"/>
      <point x="998.167" y="700.5"/>
      <point x="1038.5" y="685.5" type="curve" smooth="yes"/>
      <point x="1078.83" y="670.5"/>
      <point x="1113.83" y="648.333"/>
      <point x="1143.5" y="619" type="curve" smooth="yes"/>
      <point x="1173.17" y="589.667"/>
      <point x="1196.33" y="552.833"/>
      <point x="1213" y="508.5" type="curve" smooth="yes"/>
      <point x="1229.67" y="464.167"/>
      <point x="1238" y="412.667"/>
      <point x="1238" y="354" type="curve" smooth="yes"/>
      <point x="1238" y="295.333"/>
      <point x="1229.67" y="243.833"/>
      <point x="1213" y="199.5" type="curve" smooth="yes"/>
      <point x="1196.33" y="155.167"/>
      <point x="1173.17" y="118.333"/>
      <point x="1143.5" y="89" type="curve" smooth="yes"/>
      <point x="1113.83" y="59.6667"/>
      <point x="1078.83" y="37.5"/>
      <point x="1038.5" y="22.5" type="curve" smooth="yes"/>
      <point x="998.167" y="7.5"/>
      <point x="954.667" y="0"/>
      <point x="908" y="0" type="curve" smooth="yes"/>
    </contour>
    <contour>
      <point x="880" y="215" type="line" smooth="yes"/>
      <point x="910" y="215"/>
      <point x="933.333" y="226.667"/>
      <point x="950" y="250" type="curve" smooth="yes"/>
      <point x="966.667" y="273.333"/>
      <point x="975" y="308"/>
      <point x="975" y="354" type="curve" smooth="yes"/>
      <point x="975" y="404"/>
      <point x="966.5" y="440.667"/>
      <point x="949.5" y="464" type="curve" smooth="yes"/>
      <point x="932.5" y="487.333"/>
      <point x="909.333" y="499"/>
      <point x="880" y="499" type="curve" smooth="yes"/>
      <point x="878" y="499" type="line"/>
      <point x="878" y="215" type="line"/>
    </contour>
  </outline>
</glyph>
<glyph name="Njecyrillic" format="1">
  <advance width="1228"/>
  <unicode hex="040A"/>
  <outline>
    <contour>
      <point x="885" y="1187" type="line" smooth="yes"/>
      <point x="896.333" y="1187"/>
      <point x="906" y="1185.67"/>
      <point x="914" y="1183" type="curve" smooth="yes"/>
      <point x="922" y="1180.33"/>
      <point x="928.5" y="1175.17"/>
      <point x="933.5" y="1167.5" type="curve" smooth="yes"/>
      <point x="938.5" y="1159.83"/>
      <point x="942.167" y="1149.33"/>
      <point x="944.5" y="1136" type="curve" smooth="yes"/>
      <point x="946.833" y="1122.67"/>
      <point x="948" y="1105.33"/>
      <point x="948" y="1084" type="curve" smooth="yes"/>
      <point x="948" y="1062.67"/>
      <point x="946.833" y="1045.33"/>
      <point x="944.5" y="1032" type="curve" smooth="yes"/>
      <point x="942.167" y="1018.67"/>
      <point x="938.5" y="1008.33"/>
      <point x="933.5" y="1001" type="curve" smooth="yes"/>
      <point x="928.5" y="993.667"/>
      <point x="922" y="988.667"/>
      <point x="914" y="986" type="curve" smooth="yes"/>
      <point x="906" y="983.333"/>
      <point x="896.333" y="982"/>
      <point x="885" y="982" type="curve" smooth="yes"/>
      <point x="838" y="982" type="line"/>
      <point x="838" y="708" type="line"/>
      <point x="868" y="708" type="line" smooth="yes"/>
      <point x="924.667" y="708"/>
      <point x="975.167" y="700.5"/>
      <point x="1019.5" y="685.5" type="curve" smooth="yes"/>
      <point x="1063.83" y="670.5"/>
      <point x="1101.5" y="648.333"/>
      <point x="1132.5" y="619" type="curve" smooth="yes"/>
      <point x="1163.5" y="589.667"/>
      <point x="1187.17" y="552.833"/>
      <point x="1203.5" y="508.5" type="curve" smooth="yes"/>
      <point x="1219.83" y="464.167"/>
      <point x="1228" y="412.667"/>
      <point x="1228" y="354" type="curve" smooth="yes"/>
      <point x="1228" y="295.333"/>
      <point x="1219.83" y="243.833"/>
      <point x="1203.5" y="199.5" type="curve" smooth="yes"/>
      <point x="1187.17" y="155.167"/>
      <point x="1163.5" y="118.333"/>
      <point x="1132.5" y="89" type="curve" smooth="yes"/>
      <point x="1101.5" y="59.6667"/>
      <point x="1063.83" y="37.5"/>
      <point x="1019.5" y="22.5" type="curve" smooth="yes"/>
      <point x="975.167" y="7.5"/>
      <point x="924.667" y="0"/>
      <point x="868" y="0" type="curve" smooth="yes"/>
      <point x="561" y="0" type="line" smooth="yes"/>
      <point x="549.667" y="0"/>
      <point x="540" y="1.33333"/>
      <point x="532" y="4" type="curve" smooth="yes"/>
      <point x="524" y="6.66667"/>
      <point x="517.5" y="11.6667"/>
      <point x="512.5" y="19" type="curve" smooth="yes"/>
      <point x="507.5" y="26.3333"/>
      <point x="503.833" y="36.6667"/>
      <point x="501.5" y="50" type="curve" smooth="yes"/>
      <point x="499.167" y="63.3333"/>
      <point x="498" y="80.6667"/>
      <point x="498" y="102" type="curve" smooth="yes"/>
      <point x="498" y="123.333"/>
      <point x="499.167" y="140.667"/>
      <point x="501.5" y="154" type="curve" smooth="yes"/>
      <point x="503.833" y="167.333"/>
      <point x="507.5" y="177.833"/>
      <point x="512.5" y="185.5" type="curve" smooth="yes"/>
      <point x="517.5" y="193.167"/>
      <point x="524" y="198.333"/>
      <point x="532" y="201" type="curve" smooth="yes"/>
      <point x="540" y="203.667"/>
      <point x="549.667" y="205"/>
      <point x="561" y="205" type="curve" smooth="yes"/>
      <point x="588" y="205" type="line"/>
      <point x="588" y="499" type="line"/>
      <point x="360" y="499" type="line"/>
      <point x="360" y="205" type="line"/>
      <point x="387" y="205" type="line" smooth="yes"/>
      <point x="398.333" y="205"/>
      <point x="408" y="203.667"/>
      <point x="416" y="201" type="curve" smooth="yes"/>
      <point x="424" y="198.333"/>
      <point x="430.5" y="193.167"/>
      <point x="435.5" y="185.5" type="curve" smooth="yes"/>
      <point x="440.5" y="177.833"/>
      <point x="444.167" y="167.333"/>
      <point x="446.5" y="154" type="curve" smooth="yes"/>
      <point x="448.833" y="140.667"/>
      <point x="450" y="123.333"/>
      <point x="450" y="102" type="curve" smooth="yes"/>
      <point x="450" y="80.6667"/>
      <point x="448.833" y="63.3333"/>
      <point x="446.5" y="50" type="curve" smooth="yes"/>
      <point x="444.167" y="36.6667"/>
      <point x="440.5" y="26.3333"/>
      <point x="435.5" y="19" type="curve" smooth="yes"/>
      <point x="430.5" y="11.6667"/>
      <point x="424" y="6.66667"/>
      <point x="416" y="4" type="curve" smooth="yes"/>
      <point x="408" y="1.33333"/>
      <point x="398.333" y="0"/>
      <point x="387" y="0" type="curve" smooth="yes"/>
      <point x="63" y="0" type="line" smooth="yes"/>
      <point x="51.6667" y="0"/>
      <point x="42" y="1.33333"/>
      <point x="34" y="4" type="curve" smooth="yes"/>
      <point x="26" y="6.66667"/>
      <point x="19.5" y="11.6667"/>
      <point x="14.5" y="19" type="curve" smooth="yes"/>
      <point x="9.5" y="26.3333"/>
      <point x="5.83333" y="36.6667"/>
      <point x="3.5" y="50" type="curve" smooth="yes"/>
      <point x="1.16667" y="63.3333"/>
      <point x="0" y="80.6667"/>
      <point x="0" y="102" type="curve" smooth="yes"/>
      <point x="0" y="123.333"/>
      <point x="1.16667" y="140.667"/>
      <point x="3.5" y="154" type="curve" smooth="yes"/>
      <point x="5.83333" y="167.333"/>
      <point x="9.5" y="177.833"/>
      <point x="14.5" y="185.5" type="curve" smooth="yes"/>
      <point x="19.5" y="193.167"/>
      <point x="26" y="198.333"/>
      <point x="34" y="201" type="curve" smooth="yes"/>
      <point x="42" y="203.667"/>
      <point x="51.6667" y="205"/>
      <point x="63" y="205" type="curve" smooth="yes"/>
      <point x="110" y="205" type="line"/>
      <point x="110" y="982" type="line"/>
      <point x="63" y="982" type="line" smooth="yes"/>
      <point x="51.6667" y="982"/>
      <point x="42" y="983.333"/>
      <point x="34" y="986" type="curve" smooth="yes"/>
      <point x="26" y="988.667"/>
      <point x="19.5" y="993.667"/>
      <point x="14.5" y="1001" type="curve" smooth="yes"/>
      <point x="9.5" y="1008.33"/>
      <point x="5.83333" y="1018.67"/>
      <point x="3.5" y="1032" type="curve" smooth="yes"/>
      <point x="1.16667" y="1045.33"/>
      <point x="0" y="1062.67"/>
      <point x="0" y="1084" type="curve" smooth="yes"/>
      <point x="0" y="1105.33"/>
      <point x="1.16667" y="1122.67"/>
      <point x="3.5" y="1136" type="curve" smooth="yes"/>
      <point x="5.83333" y="1149.33"/>
      <point x="9.5" y="1159.83"/>
      <point x="14.5" y="1167.5" type="curve" smooth="yes"/>
      <point x="19.5" y="1175.17"/>
      <point x="26" y="1180.33"/>
      <point x="34" y="1183" type="curve" smooth="yes"/>
      <point x="42" y="1185.67"/>
      <point x="51.6667" y="1187"/>
      <point x="63" y="1187" type="curve" smooth="yes"/>
      <point x="387" y="1187" type="line" smooth="yes"/>
      <point x="398.333" y="1187"/>
      <point x="408" y="1185.67"/>
      <point x="416" y="1183" type="curve" smooth="yes"/>
      <point x="424" y="1180.33"/>
      <point x="430.5" y="1175.17"/>
      <point x="435.5" y="1167.5" type="curve" smooth="yes"/>
      <point x="440.5" y="1159.83"/>
      <point x="444.167" y="1149.33"/>
      <point x="446.5" y="1136" type="curve" smooth="yes"/>
      <point x="448.833" y="1122.67"/>
      <point x="450" y="1105.33"/>
      <point x="450" y="1084" type="curve" smooth="yes"/>
      <point x="450" y="1062.67"/>
      <point x="448.833" y="1045.33"/>
      <point x="446.5" y="1032" type="curve" smooth="yes"/>
      <point x="444.167" y="1018.67"/>
      <point x="440.5" y="1008.33"/>
      <point x="435.5" y="1001" type="curve" smooth="yes"/>
      <point x="430.5" y="993.667"/>
      <point x="424" y="988.667"/>
      <point x="416" y="986" type="curve" smooth="yes"/>
      <point x="408" y="983.333"/>
      <point x="398.333" y="982"/>
      <point x="387" y="982" type="curve" smooth="yes"/>
      <point x="360" y="982" type="line"/>
      <point x="360" y="708" type="line"/>
      <point x="588" y="708" type="line"/>
      <point x="588" y="982" type="line"/>
      <point x="561" y="982" type="line" smooth="yes"/>
      <point x="549.667" y="982"/>
      <point x="540" y="983.333"/>
      <point x="532" y="986" type="curve" smooth="yes"/>
      <point x="524" y="988.667"/>
      <point x="517.5" y="993.667"/>
      <point x="512.5" y="1001" type="curve" smooth="yes"/>
      <point x="507.5" y="1008.33"/>
      <point x="503.833" y="1018.67"/>
      <point x="501.5" y="1032" type="curve" smooth="yes"/>
      <point x="499.167" y="1045.33"/>
      <point x="498" y="1062.67"/>
      <point x="498" y="1084" type="curve" smooth="yes"/>
      <point x="498" y="1105.33"/>
      <point x="499.167" y="1122.67"/>
      <point x="501.5" y="1136" type="curve" smooth="yes"/>
      <point x="503.833" y="1149.33"/>
      <point x="507.5" y="1159.83"/>
      <point x="512.5" y="1167.5" type="curve" smooth="yes"/>
      <point x="517.5" y="1175.17"/>
      <point x="524" y="1180.33"/>
      <point x="532" y="1183" type="curve" smooth="yes"/>
      <point x="540" y="1185.67"/>
      <point x="549.667" y="1187"/>
      <point x="561" y="1187" type="curve" smooth="yes"/>
    </contour>
    <contour>
      <point x="840" y="215" type="line" smooth="yes"/>
      <point x="878.667" y="215"/>
      <point x="909.167" y="226.667"/>
      <point x="931.5" y="250" type="curve" smooth="yes"/>
      <point x="953.833" y="273.333"/>
      <point x="965" y="308"/>
      <point x="965" y="354" type="curve" smooth="yes"/>
      <point x="965" y="404"/>
      <point x="953.667" y="440.667"/>
      <point x="931" y="464" type="curve" smooth="yes"/>
      <point x="908.333" y="487.333"/>
      <point x="878" y="499"/>
      <point x="840" y="499" type="curve" smooth="yes"/>
      <point x="838" y="499" type="line"/>
      <point x="838" y="215" type="line"/>
    </contour>
  </outline>
</glyph>
<glyph name="Tshecyrillic" format="1">
  <advance width="1228"/>
  <unicode hex="040B"/>
  <outline>
    <contour>
      <point x="319" y="972" type="line"/>
      <point x="218" y="972" type="line"/>
      <point x="218" y="700" type="line" smooth="yes"/>
      <point x="218" y="677.333"/>
      <point x="208.833" y="661.167"/>
      <point x="190.5" y="651.5" type="curve" smooth="yes"/>
      <point x="172.167" y="641.833"/>
      <point x="144" y="637"/>
      <point x="106" y="637" type="curve" smooth="yes"/>
      <point x="68.6667" y="637"/>
      <point x="43" y="641.833"/>
      <point x="29" y="651.5" type="curve" smooth="yes"/>
      <point x="15" y="661.167"/>
      <point x="8" y="677.333"/>
      <point x="8" y="700" type="curve" smooth="yes"/>
      <point x="8" y="1122" type="line" smooth="yes"/>
      <point x="8" y="1145.33"/>
      <point x="13" y="1162"/>
      <point x="23" y="1172" type="curve" smooth="yes"/>
      <point x="33" y="1182"/>
      <point x="49.6667" y="1187"/>
      <point x="73" y="1187" type="curve" smooth="yes"/>
      <point x="815" y="1187" type="line" smooth="yes"/>
      <point x="838.333" y="1187"/>
      <point x="855" y="1182"/>
      <point x="865" y="1172" type="curve" smooth="yes"/>
      <point x="875" y="1162"/>
      <point x="880" y="1145.33"/>
      <point x="880" y="1122" type="curve" smooth="yes"/>
      <point x="880" y="800" type="line" smooth="yes"/>
      <point x="880" y="777.333"/>
      <point x="870.833" y="761.167"/>
      <point x="852.5" y="751.5" type="curve" smooth="yes"/>
      <point x="834.167" y="741.833"/>
      <point x="806" y="737"/>
      <point x="768" y="737" type="curve" smooth="yes"/>
      <point x="730.667" y="737"/>
      <point x="705" y="741.833"/>
      <point x="691" y="751.5" type="curve" smooth="yes"/>
      <point x="677" y="761.167"/>
      <point x="670" y="777.333"/>
      <point x="670" y="800" type="curve" smooth="yes"/>
      <point x="670" y="972" type="line"/>
      <point x="569" y="972" type="line"/>
      <point x="569" y="647" type="line"/>
      <point x="597.667" y="659"/>
      <point x="628.833" y="669"/>
      <point x="662.5" y="677" type="curve" smooth="yes"/>
      <point x="696.167" y="685"/>
      <point x="732.333" y="689"/>
      <point x="771" y="689" type="curve" smooth="yes"/>
      <point x="823" y="689"/>
      <point x="869.833" y="681.333"/>
      <point x="911.5" y="666" type="curve" smooth="yes"/>
      <point x="953.167" y="650.667"/>
      <point x="988.5" y="629"/>
      <point x="1017.5" y="601" type="curve" smooth="yes"/>
      <point x="1046.5" y="573"/>
      <point x="1068.83" y="538.833"/>
      <point x="1084.5" y="498.5" type="curve" smooth="yes"/>
      <point x="1100.17" y="458.167"/>
      <point x="1108" y="413"/>
      <point x="1108" y="363" type="curve" smooth="yes"/>
      <point x="1108" y="205" type="line"/>
      <point x="1165" y="205" type="line" smooth="yes"/>
      <point x="1176.33" y="205"/>
      <point x="1186" y="203.667"/>
      <point x="1194" y="201" type="curve" smooth="yes"/>
      <point x="1202" y="198.333"/>
      <point x="1208.5" y="193.333"/>
      <point x="1213.5" y="186" type="curve" smooth="yes"/>
      <point x="1218.5" y="178.667"/>
      <point x="1222.17" y="168.333"/>
      <point x="1224.5" y="155" type="curve" smooth="yes"/>
      <point x="1226.83" y="141.667"/>
      <point x="1228" y="124.333"/>
      <point x="1228" y="103" type="curve" smooth="yes"/>
      <point x="1228" y="81.6667"/>
      <point x="1226.83" y="64.3333"/>
      <point x="1224.5" y="51" type="curve" smooth="yes"/>
      <point x="1222.17" y="37.6667"/>
      <point x="1218.5" y="27.1667"/>
      <point x="1213.5" y="19.5" type="curve" smooth="yes"/>
      <point x="1208.5" y="11.8333"/>
      <point x="1202" y="6.66667"/>
      <point x="1194" y="4" type="curve" smooth="yes"/>
      <point x="1186" y="1.33333"/>
      <point x="1176.33" y="0"/>
      <point x="1165" y="0" type="curve" smooth="yes"/>
      <point x="801" y="0" type="line" smooth="yes"/>
      <point x="789.667" y="0"/>
      <point x="780" y="1.33333"/>
      <point x="772" y="4" type="curve" smooth="yes"/>
      <point x="764" y="6.66667"/>
      <point x="757.5" y="11.8333"/>
      <point x="752.5" y="19.5" type="curve" smooth="yes"/>
      <point x="747.5" y="27.1667"/>
      <point x="743.833" y="37.6667"/>
      <point x="741.5" y="51" type="curve" smooth="yes"/>
      <point x="739.167" y="64.3333"/>
      <point x="738" y="81.6667"/>
      <point x="738" y="103" type="curve" smooth="yes"/>
      <point x="738" y="124.333"/>
      <point x="739.167" y="141.667"/>
      <point x="741.5" y="155" type="curve" smooth="yes"/>
      <point x="743.833" y="168.333"/>
      <point x="747.5" y="178.667"/>
      <point x="752.5" y="186" type="curve" smooth="yes"/>
      <point x="757.5" y="193.333"/>
      <point x="764" y="198.333"/>
      <point x="772" y="201" type="curve" smooth="yes"/>
      <point x="780" y="203.667"/>
      <point x="789.667" y="205"/>
      <point x="801" y="205" type="curve" smooth="yes"/>
      <point x="858" y="205" type="line"/>
      <point x="858" y="348" type="line" smooth="yes"/>
      <point x="858" y="382"/>
      <point x="848.667" y="409.333"/>
      <point x="830" y="430" type="curve" smooth="yes"/>
      <point x="811.333" y="450.667"/>
      <point x="783.333" y="461"/>
      <point x="746" y="461" type="curve" smooth="yes"/>
      <point x="712" y="461"/>
      <point x="680.333" y="457.333"/>
      <point x="651" y="450" type="curve" smooth="yes"/>
      <point x="621.667" y="442.667"/>
      <point x="594.333" y="433"/>
      <point x="569" y="421" type="curve"/>
      <point x="569" y="205" type="line"/>
      <point x="626" y="205" type="line" smooth="yes"/>
      <point x="637.333" y="205"/>
      <point x="647" y="203.667"/>
      <point x="655" y="201" type="curve" smooth="yes"/>
      <point x="663" y="198.333"/>
      <point x="669.5" y="193.167"/>
      <point x="674.5" y="185.5" type="curve" smooth="yes"/>
      <point x="679.5" y="177.833"/>
      <point x="683.167" y="167.333"/>
      <point x="685.5" y="154" type="curve" smooth="yes"/>
      <point x="687.833" y="140.667"/>
      <point x="689" y="123.333"/>
      <point x="689" y="102" type="curve" smooth="yes"/>
      <point x="689" y="80.6667"/>
      <point x="687.833" y="63.3333"/>
      <point x="685.5" y="50" type="curve" smooth="yes"/>
      <point x="683.167" y="36.6667"/>
      <point x="679.5" y="26.3333"/>
      <point x="674.5" y="19" type="curve" smooth="yes"/>
      <point x="669.5" y="11.6667"/>
      <point x="663" y="6.66667"/>
      <point x="655" y="4" type="curve" smooth="yes"/>
      <point x="647" y="1.33333"/>
      <point x="637.333" y="0"/>
      <point x="626" y="0" type="curve" smooth="yes"/>
      <point x="228" y="0" type="line" smooth="yes"/>
      <point x="216.667" y="0"/>
      <point x="207" y="1.33333"/>
      <point x="199" y="4" type="curve" smooth="yes"/>
      <point x="191" y="6.66667"/>
      <point x="184.5" y="11.6667"/>
      <point x="179.5" y="19" type="curve" smooth="yes"/>
      <point x="174.5" y="26.3333"/>
      <point x="170.833" y="36.6667"/>
      <point x="168.5" y="50" type="curve" smooth="yes"/>
      <point x="166.167" y="63.3333"/>
      <point x="165" y="80.6667"/>
      <point x="165" y="102" type="curve" smooth="yes"/>
      <point x="165" y="123.333"/>
      <point x="166.167" y="140.667"/>
      <point x="168.5" y="154" type="curve" smooth="yes"/>
      <point x="170.833" y="167.333"/>
      <point x="174.5" y="177.833"/>
      <point x="179.5" y="185.5" type="curve" smooth="yes"/>
      <point x="184.5" y="193.167"/>
      <point x="191" y="198.333"/>
      <point x="199" y="201" type="curve" smooth="yes"/>
      <point x="207" y="203.667"/>
      <point x="216.667" y="205"/>
      <point x="228" y="205" type="curve" smooth="yes"/>
      <point x="319" y="205" type="line"/>
    </contour>
  </outline>
</glyph>
<glyph name="uni040D" format="1">
  <advance width="1228"/>
  <unicode hex="040D"/>
  <outline>
    <contour>
      <point x="808" y="724" type="line"/>
      <point x="443" y="27" type="line" smooth="yes"/>
      <point x="437.667" y="17"/>
      <point x="430.167" y="10"/>
      <point x="420.5" y="6" type="curve" smooth="yes"/>
      <point x="410.833" y="2"/>
      <point x="399.667" y="0"/>
      <point x="387" y="0" type="curve" smooth="yes"/>
      <point x="113" y="0" type="line" smooth="yes"/>
      <point x="101.667" y="0"/>
      <point x="92" y="1.33333"/>
      <point x="84" y="4" type="curve" smooth="yes"/>
      <point x="76" y="6.66667"/>
      <point x="69.5" y="11.8333"/>
      <point x="64.5" y="19.5" type="curve" smooth="yes"/>
      <point x="59.5" y="27.1667"/>
      <point x="55.8333" y="37.6667"/>
      <point x="53.5" y="51" type="curve" smooth="yes"/>
      <point x="51.1667" y="64.3333"/>
      <point x="50" y="81.6667"/>
      <point x="50" y="103" type="curve" smooth="yes"/>
      <point x="50" y="124.333"/>
      <point x="51.1667" y="141.667"/>
      <point x="53.5" y="155" type="curve" smooth="yes"/>
      <point x="55.8333" y="168.333"/>
      <point x="59.5" y="178.667"/>
      <point x="64.5" y="186" type="curve" smooth="yes"/>
      <point x="69.5" y="193.333"/>
      <point x="76" y="198.333"/>
      <point x="84" y="201" type="curve" smooth="yes"/>
      <point x="92" y="203.667"/>
      <point x="101.667" y="205"/>
      <point x="113" y="205" type="curve" smooth="yes"/>
      <point x="170" y="205" type="line"/>
      <point x="170" y="982" type="line"/>
      <point x="113" y="982" type="line" smooth="yes"/>
      <point x="101.667" y="982"/>
      <point x="92" y="983.333"/>
      <point x="84" y="986" type="curve" smooth="yes"/>
      <point x="76" y="988.667"/>
      <point x="69.5" y="993.667"/>
      <point x="64.5" y="1001" type="curve" smooth="yes"/>
      <point x="59.5" y="1008.33"/>
      <point x="55.8333" y="1018.67"/>
      <point x="53.5" y="1032" type="curve" smooth="yes"/>
      <point x="51.1667" y="1045.33"/>
      <point x="50" y="1062.67"/>
      <point x="50" y="1084" type="curve" smooth="yes"/>
      <point x="50" y="1105.33"/>
      <point x="51.1667" y="1122.67"/>
      <point x="53.5" y="1136" type="curve" smooth="yes"/>
      <point x="55.8333" y="1149.33"/>
      <point x="59.5" y="1159.83"/>
      <point x="64.5" y="1167.5" type="curve" smooth="yes"/>
      <point x="69.5" y="1175.17"/>
      <point x="76" y="1180.33"/>
      <point x="84" y="1183" type="curve" smooth="yes"/>
      <point x="92" y="1185.67"/>
      <point x="101.667" y="1187"/>
      <point x="113" y="1187" type="curve" smooth="yes"/>
      <point x="488" y="1187" type="line" smooth="yes"/>
      <point x="499.333" y="1187"/>
      <point x="509" y="1185.67"/>
      <point x="517" y="1183" type="curve" smooth="yes"/>
      <point x="525" y="1180.33"/>
      <point x="531.5" y="1175.17"/>
      <point x="536.5" y="1167.5" type="curve" smooth="yes"/>
      <point x="541.5" y="1159.83"/>
      <point x="545.167" y="1149.33"/>
      <point x="547.5" y="1136" type="curve" smooth="yes"/>
      <point x="549.833" y="1122.67"/>
      <point x="551" y="1105.33"/>
      <point x="551" y="1084" type="curve" smooth="yes"/>
      <point x="551" y="1062.67"/>
      <point x="549.833" y="1045.33"/>
      <point x="547.5" y="1032" type="curve" smooth="yes"/>
      <point x="545.167" y="1018.67"/>
      <point x="541.5" y="1008.33"/>
      <point x="536.5" y="1001" type="curve" smooth="yes"/>
      <point x="531.5" y="993.667"/>
      <point x="525" y="988.667"/>
      <point x="517" y="986" type="curve" smooth="yes"/>
      <point x="509" y="983.333"/>
      <point x="499.333" y="982"/>
      <point x="488" y="982" type="curve" smooth="yes"/>
      <point x="420" y="982" type="line"/>
      <point x="420" y="463" type="line"/>
      <point x="815" y="1160" type="line" smooth="yes"/>
      <point x="820.333" y="1170"/>
      <point x="827.833" y="1177"/>
      <point x="837.5" y="1181" type="curve" smooth="yes"/>
      <point x="847.167" y="1185"/>
      <point x="858.333" y="1187"/>
      <point x="871" y="1187" type="curve" smooth="yes"/>
      <point x="1115" y="1187" type="line" smooth="yes"/>
      <point x="1126.33" y="1187"/>
      <point x="1136" y="1185.67"/>
      <point x="1144" y="1183" type="curve" smooth="yes"/>
      <point x="1152" y="1180.33"/>
      <point x="1158.5" y="1175.17"/>
      <point x="1163.5" y="1167.5" type="curve" smooth="yes"/>
      <point x="1168.5" y="1159.83"/>
      <point x="1172.17" y="1149.33"/>
      <point x="1174.5" y="1136" type="curve" smooth="yes"/>
      <point x="1176.83" y="1122.67"/>
      <point x="1178" y="1105.33"/>
      <point x="1178" y="1084" type="curve" smooth="yes"/>
      <point x="1178" y="1062.67"/>
      <point x="1176.83" y="1045.33"/>
      <point x="1174.5" y="1032" type="curve" smooth="yes"/>
      <point x="1172.17" y="1018.67"/>
      <point x="1168.5" y="1008.33"/>
      <point x="1163.5" y="1001" type="curve" smooth="yes"/>
      <point x="1158.5" y="993.667"/>
      <point x="1152" y="988.667"/>
      <point x="1144" y="986" type="curve" smooth="yes"/>
      <point x="1136" y="983.333"/>
      <point x="1126.33" y="982"/>
      <point x="1115" y="982" type="curve" smooth="yes"/>
      <point x="1058" y="982" type="line"/>
      <point x="1058" y="205" type="line"/>
      <point x="1115" y="205" type="line" smooth="yes"/>
      <point x="1126.33" y="205"/>
      <point x="1136" y="203.667"/>
      <point x="1144" y="201" type="curve" smooth="yes"/>
      <point x="1152" y="198.333"/>
      <point x="1158.5" y="193.167"/>
      <point x="1163.5" y="185.5" type="curve" smooth="yes"/>
      <point x="1168.5" y="177.833"/>
      <point x="1172.17" y="167.333"/>
      <point x="1174.5" y="154" type="curve" smooth="yes"/>
      <point x="1176.83" y="140.667"/>
      <point x="1178" y="123.333"/>
      <point x="1178" y="102" type="curve" smooth="yes"/>
      <point x="1178" y="80.6667"/>
      <point x="1176.83" y="63.3333"/>
      <point x="1174.5" y="50" type="curve" smooth="yes"/>
      <point x="1172.17" y="36.6667"/>
      <point x="1168.5" y="26.3333"/>
      <point x="1163.5" y="19" type="curve" smooth="yes"/>
      <point x="1158.5" y="11.6667"/>
      <point x="1152" y="6.66667"/>
      <point x="1144" y="4" type="curve" smooth="yes"/>
      <point x="1136" y="1.33333"/>
      <point x="1126.33" y="0"/>
      <point x="1115" y="0" type="curve" smooth="yes"/>
      <point x="741" y="0" type="line" smooth="yes"/>
      <point x="729.667" y="0"/>
      <point x="720" y="1.33333"/>
      <point x="712" y="4" type="curve" smooth="yes"/>
      <point x="704" y="6.66667"/>
      <point x="697.5" y="11.6667"/>
      <point x="692.5" y="19" type="curve" smooth="yes"/>
      <point x="687.5" y="26.3333"/>
      <point x="683.833" y="36.6667"/>
      <point x="681.5" y="50" type="curve" smooth="yes"/>
      <point x="679.167" y="63.3333"/>
      <point x="678" y="80.6667"/>
      <point x="678" y="102" type="curve" smooth="yes"/>
      <point x="678" y="123.333"/>
      <point x="679.167" y="140.667"/>
      <point x="681.5" y="154" type="curve" smooth="yes"/>
      <point x="683.833" y="167.333"/>
      <point x="687.5" y="177.833"/>
      <point x="692.5" y="185.5" type="curve" smooth="yes"/>
      <point x="697.5" y="193.167"/>
      <point x="704" y="198.333"/>
      <point x="712" y="201" type="curve" smooth="yes"/>
      <point x="720" y="203.667"/>
      <point x="729.667" y="205"/>
      <point x="741" y="205" type="curve" smooth="yes"/>
      <point x="808" y="205" type="line"/>
    </contour>
    <contour>
      <point x="881" y="1408" type="line" smooth="yes"/>
      <point x="894.333" y="1400"/>
      <point x="902.833" y="1389.5"/>
      <point x="906.5" y="1376.5" type="curve" smooth="yes"/>
      <point x="910.167" y="1363.5"/>
      <point x="909.333" y="1349.67"/>
      <point x="904" y="1335" type="curve" smooth="yes"/>
      <point x="898.667" y="1319.67"/>
      <point x="890" y="1308.17"/>
      <point x="878" y="1300.5" type="curve" smooth="yes"/>
      <point x="866" y="1292.83"/>
      <point x="852" y="1291.33"/>
      <point x="836" y="1296" type="curve" smooth="yes"/>
      <point x="356" y="1421" type="line" smooth="yes"/>
      <point x="338.667" y="1425.67"/>
      <point x="328.833" y="1439.17"/>
      <point x="326.5" y="1461.5" type="curve" smooth="yes"/>
      <point x="324.167" y="1483.83"/>
      <point x="333" y="1518"/>
      <point x="353" y="1564" type="curve" smooth="yes"/>
      <point x="373" y="1609.33"/>
      <point x="393.333" y="1638.5"/>
      <point x="414" y="1651.5" type="curve" smooth="yes"/>
      <point x="434.667" y="1664.5"/>
      <point x="454.333" y="1665.67"/>
      <point x="473" y="1655" type="curve" smooth="yes"/>
    </contour>
  </outline>
</glyph>
<glyph name="Ushortcyrillic" format="1">
  <advance width="1228"/>
  <unicode hex="040E"/>
  <outline>
    <contour>
      <point x="628" y="1254" type="curve" smooth="yes"/>
      <point x="528.667" y="1254"/>
      <point x="449.333" y="1277.17"/>
      <point x="390" y="1323.5" type="curve" smooth="yes"/>
      <point x="330.667" y="1369.83"/>
      <point x="291" y="1432.33"/>
      <point x="271" y="1511" type="curve" smooth="yes"/>
      <point x="267.667" y="1523"/>
      <point x="268.833" y="1534.17"/>
      <point x="274.5" y="1544.5" type="curve" smooth="yes"/>
      <point x="280.167" y="1554.83"/>
      <point x="288.167" y="1564"/>
      <point x="298.5" y="1572" type="curve" smooth="yes"/>
      <point x="308.833" y="1580"/>
      <point x="320.833" y="1586.33"/>
      <point x="334.5" y="1591" type="curve" smooth="yes"/>
      <point x="348.167" y="1595.67"/>
      <point x="361" y="1598"/>
      <point x="373" y="1598" type="curve" smooth="yes"/>
      <point x="395" y="1598"/>
      <point x="409.667" y="1591.33"/>
      <point x="417" y="1578" type="curve" smooth="yes"/>
      <point x="428.333" y="1560"/>
      <point x="440.5" y="1543.5"/>
      <point x="453.5" y="1528.5" type="curve" smooth="yes"/>
      <point x="466.5" y="1513.5"/>
      <point x="481.167" y="1500.83"/>
      <point x="497.5" y="1490.5" type="curve" smooth="yes"/>
      <point x="513.833" y="1480.17"/>
      <point x="532.667" y="1472.17"/>
      <point x="554" y="1466.5" type="curve" smooth="yes"/>
      <point x="575.333" y="1460.83"/>
      <point x="600" y="1458"/>
      <point x="628" y="1458" type="curve" smooth="yes"/>
      <point x="656" y="1458"/>
      <point x="680.667" y="1460.83"/>
      <point x="702" y="1466.5" type="curve" smooth="yes"/>
      <point x="723.333" y="1472.17"/>
      <point x="742.167" y="1480.17"/>
      <point x="758.5" y="1490.5" type="curve" smooth="yes"/>
      <point x="774.833" y="1500.83"/>
      <point x="789.5" y="1513.5"/>
      <point x="802.5" y="1528.5" type="curve" smooth="yes"/>
      <point x="815.5" y="1543.5"/>
      <point x="827.667" y="1560"/>
      <point x="839" y="1578" type="curve" smooth="yes"/>
      <point x="846.333" y="1591.33"/>
      <point x="861" y="1598"/>
      <point x="883" y="1598" type="curve" smooth="yes"/>
      <point x="895" y="1598"/>
      <point x="907.667" y="1595.67"/>
      <point x="921" y="1591" type="curve" smooth="yes"/>
      <point x="934.333" y="1586.33"/>
      <point x="946.333" y="1580"/>
      <point x="957" y="1572" type="curve" smooth="yes"/>
      <point x="967.667" y="1564"/>
      <point x="975.833" y="1554.83"/>
      <point x="981.5" y="1544.5" type="curve" smooth="yes"/>
      <point x="987.167" y="1534.17"/>
      <point x="988.333" y="1523"/>
      <point x="985" y="1511" type="curve" smooth="yes"/>
      <point x="965" y="1432.33"/>
      <point x="925.333" y="1369.83"/>
      <point x="866" y="1323.5" type="curve" smooth="yes"/>
      <point x="806.667" y="1277.17"/>
      <point x="727.333" y="1254"/>
    </contour>
    <contour>
      <point x="73" y="982" type="line" smooth="yes"/>
      <point x="61.6667" y="982"/>
      <point x="52" y="983.333"/>
      <point x="44" y="986" type="curve" smooth="yes"/>
      <point x="36" y="988.667"/>
      <point x="29.5" y="993.667"/>
      <point x="24.5" y="1001" type="curve" smooth="yes"/>
      <point x="19.5" y="1008.33"/>
      <point x="15.8333" y="1018.67"/>
      <point x="13.5" y="1032" type="curve" smooth="yes"/>
      <point x="11.1667" y="1045.33"/>
      <point x="10" y="1062.67"/>
      <point x="10" y="1084" type="curve" smooth="yes"/>
      <point x="10" y="1105.33"/>
      <point x="11.1667" y="1122.67"/>
      <point x="13.5" y="1136" type="curve" smooth="yes"/>
      <point x="15.8333" y="1149.33"/>
      <point x="19.5" y="1159.83"/>
      <point x="24.5" y="1167.5" type="curve" smooth="yes"/>
      <point x="29.5" y="1175.17"/>
      <point x="36" y="1180.33"/>
      <point x="44" y="1183" type="curve" smooth="yes"/>
      <point x="52" y="1185.67"/>
      <point x="61.6667" y="1187"/>
      <point x="73" y="1187" type="curve" smooth="yes"/>
      <point x="487" y="1187" type="line" smooth="yes"/>
      <point x="498.333" y="1187"/>
      <point x="508" y="1185.67"/>
      <point x="516" y="1183" type="curve" smooth="yes"/>
      <point x="524" y="1180.33"/>
      <point x="530.5" y="1175.17"/>
      <point x="535.5" y="1167.5" type="curve" smooth="yes"/>
      <point x="540.5" y="1159.83"/>
      <point x="544.167" y="1149.33"/>
      <point x="546.5" y="1136" type="curve" smooth="yes"/>
      <point x="548.833" y="1122.67"/>
      <point x="550" y="1105.33"/>
      <point x="550" y="1084" type="curve" smooth="yes"/>
      <point x="550" y="1062.67"/>
      <point x="548.833" y="1045.33"/>
      <point x="546.5" y="1032" type="curve" smooth="yes"/>
      <point x="544.167" y="1018.67"/>
      <point x="540.5" y="1008.33"/>
      <point x="535.5" y="1001" type="curve" smooth="yes"/>
      <point x="530.5" y="993.667"/>
      <point x="524" y="988.667"/>
      <point x="516" y="986" type="curve" smooth="yes"/>
      <point x="508" y="983.333"/>
      <point x="498.333" y="982"/>
      <point x="487" y="982" type="curve" smooth="yes"/>
      <point x="428" y="982" type="line"/>
      <point x="632" y="551" type="line"/>
      <point x="812" y="982" type="line"/>
      <point x="761" y="982" type="line" smooth="yes"/>
      <point x="749.667" y="982"/>
      <point x="740" y="983.333"/>
      <point x="732" y="986" type="curve" smooth="yes"/>
      <point x="724" y="988.667"/>
      <point x="717.5" y="993.667"/>
      <point x="712.5" y="1001" type="curve" smooth="yes"/>
      <point x="707.5" y="1008.33"/>
      <point x="703.833" y="1018.67"/>
      <point x="701.5" y="1032" type="curve" smooth="yes"/>
      <point x="699.167" y="1045.33"/>
      <point x="698" y="1062.67"/>
      <point x="698" y="1084" type="curve" smooth="yes"/>
      <point x="698" y="1105.33"/>
      <point x="699.167" y="1122.67"/>
      <point x="701.5" y="1136" type="curve" smooth="yes"/>
      <point x="703.833" y="1149.33"/>
      <point x="707.5" y="1159.83"/>
      <point x="712.5" y="1167.5" type="curve" smooth="yes"/>
      <point x="717.5" y="1175.17"/>
      <point x="724" y="1180.33"/>
      <point x="732" y="1183" type="curve" smooth="yes"/>
      <point x="740" y="1185.67"/>
      <point x="749.667" y="1187"/>
      <point x="761" y="1187" type="curve" smooth="yes"/>
      <point x="1155" y="1187" type="line" smooth="yes"/>
      <point x="1166.33" y="1187"/>
      <point x="1176" y="1185.67"/>
      <point x="1184" y="1183" type="curve" smooth="yes"/>
      <point x="1192" y="1180.33"/>
      <point x="1198.5" y="1175.17"/>
      <point x="1203.5" y="1167.5" type="curve" smooth="yes"/>
      <point x="1208.5" y="1159.83"/>
      <point x="1212.17" y="1149.33"/>
      <point x="1214.5" y="1136" type="curve" smooth="yes"/>
      <point x="1216.83" y="1122.67"/>
      <point x="1218" y="1105.33"/>
      <point x="1218" y="1084" type="curve" smooth="yes"/>
      <point x="1218" y="1062.67"/>
      <point x="1216.83" y="1045.33"/>
      <point x="1214.5" y="1032" type="curve" smooth="yes"/>
      <point x="1212.17" y="1018.67"/>
      <point x="1208.5" y="1008.33"/>
      <point x="1203.5" y="1001" type="curve" smooth="yes"/>
      <point x="1198.5" y="993.667"/>
      <point x="1192" y="988.667"/>
      <point x="1184" y="986" type="curve" smooth="yes"/>
      <point x="1176" y="983.333"/>
      <point x="1166.33" y="982"/>
      <point x="1155" y="982" type="curve" smooth="yes"/>
      <point x="1087" y="982" type="line"/>
      <point x="834" y="363" type="line" smooth="yes"/>
      <point x="809.333" y="303"/>
      <point x="785.5" y="249.167"/>
      <point x="762.5" y="201.5" type="curve" smooth="yes"/>
      <point x="739.5" y="153.833"/>
      <point x="712.833" y="113.5"/>
      <point x="682.5" y="80.5" type="curve" smooth="yes"/>
      <point x="652.167" y="47.5"/>
      <point x="616.167" y="22.1667"/>
      <point x="574.5" y="4.5" type="curve" smooth="yes"/>
      <point x="532.833" y="-13.1667"/>
      <point x="481" y="-22"/>
      <point x="419" y="-22" type="curve" smooth="yes"/>
      <point x="389.667" y="-22"/>
      <point x="364.167" y="-20.8333"/>
      <point x="342.5" y="-18.5" type="curve" smooth="yes"/>
      <point x="320.833" y="-16.1667"/>
      <point x="301.5" y="-12.1667"/>
      <point x="284.5" y="-6.5" type="curve" smooth="yes"/>
      <point x="267.5" y="-0.833333"/>
      <point x="252" y="6.16667"/>
      <point x="238" y="14.5" type="curve" smooth="yes"/>
      <point x="224" y="22.8333"/>
      <point x="210" y="33"/>
      <point x="196" y="45" type="curve" smooth="yes"/>
      <point x="185.333" y="53.6667"/>
      <point x="180" y="70.3333"/>
      <point x="180" y="95" type="curve" smooth="yes"/>
      <point x="180" y="349" type="line" smooth="yes"/>
      <point x="180" y="371.667"/>
      <point x="189.5" y="387.833"/>
      <point x="208.5" y="397.5" type="curve" smooth="yes"/>
      <point x="227.5" y="407.167"/>
      <point x="258.667" y="412"/>
      <point x="302" y="412" type="curve" smooth="yes"/>
      <point x="323.333" y="412"/>
      <point x="341" y="410.833"/>
      <point x="355" y="408.5" type="curve" smooth="yes"/>
      <point x="369" y="406.167"/>
      <point x="380" y="402.5"/>
      <point x="388" y="397.5" type="curve" smooth="yes"/>
      <point x="396" y="392.5"/>
      <point x="401.667" y="386"/>
      <point x="405" y="378" type="curve" smooth="yes"/>
      <point x="408.333" y="370"/>
      <point x="410" y="360.333"/>
      <point x="410" y="349" type="curve" smooth="yes"/>
      <point x="410" y="205" type="line"/>
      <point x="433.333" y="205"/>
      <point x="452.833" y="209.667"/>
      <point x="468.5" y="219" type="curve" smooth="yes"/>
      <point x="484.167" y="228.333"/>
      <point x="497" y="242.333"/>
      <point x="507" y="261" type="curve"/>
      <point x="120" y="982" type="line"/>
    </contour>
  </outline>
</glyph>
<glyph name="Dzhecyrillic" format="1">
  <advance width="1228"/>
  <unicode hex="040F"/>
  <outline>
    <contour>
      <point x="420" y="205" type="line"/>
      <point x="808" y="205" type="line"/>
      <point x="808" y="982" type="line"/>
      <point x="741" y="982" type="line" smooth="yes"/>
      <point x="729.667" y="982"/>
      <point x="720" y="983.333"/>
      <point x="712" y="986" type="curve" smooth="yes"/>
      <point x="704" y="988.667"/>
      <point x="697.5" y="993.833"/>
      <point x="692.5" y="1001.5" type="curve" smooth="yes"/>
      <point x="687.5" y="1009.17"/>
      <point x="683.833" y="1019.67"/>
      <point x="681.5" y="1033" type="curve" smooth="yes"/>
      <point x="679.167" y="1046.33"/>
      <point x="678" y="1063.67"/>
      <point x="678" y="1085" type="curve" smooth="yes"/>
      <point x="678" y="1106.33"/>
      <point x="679.167" y="1123.67"/>
      <point x="681.5" y="1137" type="curve" smooth="yes"/>
      <point x="683.833" y="1150.33"/>
      <point x="687.5" y="1160.67"/>
      <point x="692.5" y="1168" type="curve" smooth="yes"/>
      <point x="697.5" y="1175.33"/>
      <point x="704" y="1180.33"/>
      <point x="712" y="1183" type="curve" smooth="yes"/>
      <point x="720" y="1185.67"/>
      <point x="729.667" y="1187"/>
      <point x="741" y="1187" type="curve" smooth="yes"/>
      <point x="1115" y="1187" type="line" smooth="yes"/>
      <point x="1126.33" y="1187"/>
      <point x="1136" y="1185.67"/>
      <point x="1144" y="1183" type="curve" smooth="yes"/>
      <point x="1152" y="1180.33"/>
      <point x="1158.5" y="1175.33"/>
      <point x="1163.5" y="1168" type="curve" smooth="yes"/>
      <point x="1168.5" y="1160.67"/>
      <point x="1172.17" y="1150.33"/>
      <point x="1174.5" y="1137" type="curve" smooth="yes"/>
      <point x="1176.83" y="1123.67"/>
      <point x="1178" y="1106.33"/>
      <point x="1178" y="1085" type="curve" smooth="yes"/>
      <point x="1178" y="1063.67"/>
      <point x="1176.83" y="1046.33"/>
      <point x="1174.5" y="1033" type="curve" smooth="yes"/>
      <point x="1172.17" y="1019.67"/>
      <point x="1168.5" y="1009.17"/>
      <point x="1163.5" y="1001.5" type="curve" smooth="yes"/>
      <point x="1158.5" y="993.833"/>
      <point x="1152" y="988.667"/>
      <point x="1144" y="986" type="curve" smooth="yes"/>
      <point x="1136" y="983.333"/>
      <point x="1126.33" y="982"/>
      <point x="1115" y="982" type="curve" smooth="yes"/>
      <point x="1058" y="982" type="line"/>
      <point x="1058" y="205" type="line"/>
      <point x="1115" y="205" type="line" smooth="yes"/>
      <point x="1126.33" y="205"/>
      <point x="1136" y="203.667"/>
      <point x="1144" y="201" type="curve" smooth="yes"/>
      <point x="1152" y="198.333"/>
      <point x="1158.5" y="193.333"/>
      <point x="1163.5" y="186" type="curve" smooth="yes"/>
      <point x="1168.5" y="178.667"/>
      <point x="1172.17" y="168.333"/>
      <point x="1174.5" y="155" type="curve" smooth="yes"/>
      <point x="1176.83" y="141.667"/>
      <point x="1178" y="124.333"/>
      <point x="1178" y="103" type="curve" smooth="yes"/>
      <point x="1178" y="81.6667"/>
      <point x="1176.83" y="64.3333"/>
      <point x="1174.5" y="51" type="curve" smooth="yes"/>
      <point x="1172.17" y="37.6667"/>
      <point x="1168.5" y="27.1667"/>
      <point x="1163.5" y="19.5" type="curve" smooth="yes"/>
      <point x="1158.5" y="11.8333"/>
      <point x="1152" y="6.66667"/>
      <point x="1144" y="4" type="curve" smooth="yes"/>
      <point x="1136" y="1.33333"/>
      <point x="1126.33" y="0"/>
      <point x="1115" y="0" type="curve" smooth="yes"/>
      <point x="729" y="0" type="line"/>
      <point x="729" y="-212" type="line" smooth="yes"/>
      <point x="729" y="-234.667"/>
      <point x="719.333" y="-250.833"/>
      <point x="700" y="-260.5" type="curve" smooth="yes"/>
      <point x="680.667" y="-270.167"/>
      <point x="649.667" y="-275"/>
      <point x="607" y="-275" type="curve" smooth="yes"/>
      <point x="585.667" y="-275"/>
      <point x="568" y="-273.833"/>
      <point x="554" y="-271.5" type="curve" smooth="yes"/>
      <point x="540" y="-269.167"/>
      <point x="529" y="-265.5"/>
      <point x="521" y="-260.5" type="curve" smooth="yes"/>
      <point x="513" y="-255.5"/>
      <point x="507.333" y="-249"/>
      <point x="504" y="-241" type="curve" smooth="yes"/>
      <point x="500.667" y="-233"/>
      <point x="499" y="-223.333"/>
      <point x="499" y="-212" type="curve" smooth="yes"/>
      <point x="499" y="0" type="line"/>
      <point x="113" y="0" type="line" smooth="yes"/>
      <point x="101.667" y="0"/>
      <point x="92" y="1.33333"/>
      <point x="84" y="4" type="curve" smooth="yes"/>
      <point x="76" y="6.66667"/>
      <point x="69.5" y="11.8333"/>
      <point x="64.5" y="19.5" type="curve" smooth="yes"/>
      <point x="59.5" y="27.1667"/>
      <point x="55.8333" y="37.6667"/>
      <point x="53.5" y="51" type="curve" smooth="yes"/>
      <point x="51.1667" y="64.3333"/>
      <point x="50" y="81.6667"/>
      <point x="50" y="103" type="curve" smooth="yes"/>
      <point x="50" y="124.333"/>
      <point x="51.1667" y="141.667"/>
      <point x="53.5" y="155" type="curve" smooth="yes"/>
      <point x="55.8333" y="168.333"/>
      <point x="59.5" y="178.667"/>
      <point x="64.5" y="186" type="curve" smooth="yes"/>
      <point x="69.5" y="193.333"/>
      <point x="76" y="198.333"/>
      <point x="84" y="201" type="curve" smooth="yes"/>
      <point x="92" y="203.667"/>
      <point x="101.667" y="205"/>
      <point x="113" y="205" type="curve" smooth="yes"/>
      <point x="170" y="205" type="line"/>
      <point x="170" y="982" type="line"/>
      <point x="113" y="982" type="line" smooth="yes"/>
      <point x="101.667" y="982"/>
      <point x="92" y="983.333"/>
      <point x="84" y="986" type="curve" smooth="yes"/>
      <point x="76" y="988.667"/>
      <point x="69.5" y="993.833"/>
      <point x="64.5" y="1001.5" type="curve" smooth="yes"/>
      <point x="59.5" y="1009.17"/>
      <point x="55.8333" y="1019.67"/>
      <point x="53.5" y="1033" type="curve" smooth="yes"/>
      <point x="51.1667" y="1046.33"/>
      <point x="50" y="1063.67"/>
      <point x="50" y="1085" type="curve" smooth="yes"/>
      <point x="50" y="1106.33"/>
      <point x="51.1667" y="1123.67"/>
      <point x="53.5" y="1137" type="curve" smooth="yes"/>
      <point x="55.8333" y="1150.33"/>
      <point x="59.5" y="1160.67"/>
      <point x="64.5" y="1168" type="curve" smooth="yes"/>
      <point x="69.5" y="1175.33"/>
      <point x="76" y="1180.33"/>
      <point x="84" y="1183" type="curve" smooth="yes"/>
      <point x="92" y="1185.67"/>
      <point x="101.667" y="1187"/>
      <point x="113" y="1187" type="curve" smooth="yes"/>
      <point x="487" y="1187" type="line" smooth="yes"/>
      <point x="498.333" y="1187"/>
      <point x="508" y="1185.67"/>
      <point x="516" y="1183" type="curve" smooth="yes"/>
      <point x="524" y="1180.33"/>
      <point x="530.5" y="1175.33"/>
      <point x="535.5" y="1168" type="curve" smooth="yes"/>
      <point x="540.5" y="1160.67"/>
      <point x="544.167" y="1150.33"/>
      <point x="546.5" y="1137" type="curve" smooth="yes"/>
      <point x="548.833" y="1123.67"/>
      <point x="550" y="1106.33"/>
      <point x="550" y="1085" type="curve" smooth="yes"/>
      <point x="550" y="1063.67"/>
      <point x="548.833" y="1046.33"/>
      <point x="546.5" y="1033" type="curve" smooth="yes"/>
      <point x="544.167" y="1019.67"/>
      <point x="540.5" y="1009.17"/>
      <point x="535.5" y="1001.5" type="curve" smooth="yes"/>
      <point x="530.5" y="993.833"/>
      <point x="524" y="988.667"/>
      <point x="516" y="986" type="curve" smooth="yes"/>
      <point x="508" y="983.333"/>
      <point x="498.333" y="982"/>
      <point x="487" y="982" type="curve" smooth="yes"/>
      <point x="420" y="982" type="line"/>
    </contour>
  </outline>
</glyph>
<glyph name="Acyrillic" format="1">
  <advance width="1228"/>
  <unicode hex="0410"/>
  <outline>
    <contour>
      <point x="390" y="982" type="line"/>
      <point x="223" y="982" type="line" smooth="yes"/>
      <point x="211.667" y="982"/>
      <point x="202" y="983.333"/>
      <point x="194" y="986" type="curve" smooth="yes"/>
      <point x="186" y="988.667"/>
      <point x="179.5" y="993.833"/>
      <point x="174.5" y="1001.5" type="curve" smooth="yes"/>
      <point x="169.5" y="1009.17"/>
      <point x="165.833" y="1019.67"/>
      <point x="163.5" y="1033" type="curve" smooth="yes"/>
      <point x="161.167" y="1046.33"/>
      <point x="160" y="1063.67"/>
      <point x="160" y="1085" type="curve" smooth="yes"/>
      <point x="160" y="1106.33"/>
      <point x="161.167" y="1123.67"/>
      <point x="163.5" y="1137" type="curve" smooth="yes"/>
      <point x="165.833" y="1150.33"/>
      <point x="169.5" y="1160.67"/>
      <point x="174.5" y="1168" type="curve" smooth="yes"/>
      <point x="179.5" y="1175.33"/>
      <point x="186" y="1180.33"/>
      <point x="194" y="1183" type="curve" smooth="yes"/>
      <point x="202" y="1185.67"/>
      <point x="211.667" y="1187"/>
      <point x="223" y="1187" type="curve" smooth="yes"/>
      <point x="697" y="1187" type="line" smooth="yes"/>
      <point x="723.667" y="1187"/>
      <point x="745.333" y="1182"/>
      <point x="762" y="1172" type="curve" smooth="yes"/>
      <point x="778.667" y="1162"/>
      <point x="790.667" y="1145.33"/>
      <point x="798" y="1122" type="curve" smooth="yes"/>
      <point x="1088" y="205" type="line"/>
      <point x="1175" y="205" type="line" smooth="yes"/>
      <point x="1186.33" y="205"/>
      <point x="1196" y="203.667"/>
      <point x="1204" y="201" type="curve" smooth="yes"/>
      <point x="1212" y="198.333"/>
      <point x="1218.5" y="193.333"/>
      <point x="1223.5" y="186" type="curve" smooth="yes"/>
      <point x="1228.5" y="178.667"/>
      <point x="1232.17" y="168.333"/>
      <point x="1234.5" y="155" type="curve" smooth="yes"/>
      <point x="1236.83" y="141.667"/>
      <point x="1238" y="124.333"/>
      <point x="1238" y="103" type="curve" smooth="yes"/>
      <point x="1238" y="81.6667"/>
      <point x="1236.83" y="64.3333"/>
      <point x="1234.5" y="51" type="curve" smooth="yes"/>
      <point x="1232.17" y="37.6667"/>
      <point x="1228.5" y="27.1667"/>
      <point x="1223.5" y="19.5" type="curve" smooth="yes"/>
      <point x="1218.5" y="11.8333"/>
      <point x="1212" y="6.66667"/>
      <point x="1204" y="4" type="curve" smooth="yes"/>
      <point x="1196" y="1.33333"/>
      <point x="1186.33" y="0"/>
      <point x="1175" y="0" type="curve" smooth="yes"/>
      <point x="751" y="0" type="line" smooth="yes"/>
      <point x="739.667" y="0"/>
      <point x="730" y="1.33333"/>
      <point x="722" y="4" type="curve" smooth="yes"/>
      <point x="714" y="6.66667"/>
      <point x="707.5" y="11.8333"/>
      <point x="702.5" y="19.5" type="curve" smooth="yes"/>
      <point x="697.5" y="27.1667"/>
      <point x="693.833" y="37.6667"/>
      <point x="691.5" y="51" type="curve" smooth="yes"/>
      <point x="689.167" y="64.3333"/>
      <point x="688" y="81.6667"/>
      <point x="688" y="103" type="curve" smooth="yes"/>
      <point x="688" y="124.333"/>
      <point x="689.167" y="141.667"/>
      <point x="691.5" y="155" type="curve" smooth="yes"/>
      <point x="693.833" y="168.333"/>
      <point x="697.5" y="178.667"/>
      <point x="702.5" y="186" type="curve" smooth="yes"/>
      <point x="707.5" y="193.333"/>
      <point x="714" y="198.333"/>
      <point x="722" y="201" type="curve" smooth="yes"/>
      <point x="730" y="203.667"/>
      <point x="739.667" y="205"/>
      <point x="751" y="205" type="curve" smooth="yes"/>
      <point x="837" y="205" type="line"/>
      <point x="792" y="350" type="line"/>
      <point x="428" y="350" type="line"/>
      <point x="383" y="205" type="line"/>
      <point x="457" y="205" type="line" smooth="yes"/>
      <point x="468.333" y="205"/>
      <point x="478" y="203.667"/>
      <point x="486" y="201" type="curve" smooth="yes"/>
      <point x="494" y="198.333"/>
      <point x="500.5" y="193.333"/>
      <point x="505.5" y="186" type="curve" smooth="yes"/>
      <point x="510.5" y="178.667"/>
      <point x="514.167" y="168.333"/>
      <point x="516.5" y="155" type="curve" smooth="yes"/>
      <point x="518.833" y="141.667"/>
      <point x="520" y="124.333"/>
      <point x="520" y="103" type="curve" smooth="yes"/>
      <point x="520" y="81.6667"/>
      <point x="518.833" y="64.3333"/>
      <point x="516.5" y="51" type="curve" smooth="yes"/>
      <point x="514.167" y="37.6667"/>
      <point x="510.5" y="27.1667"/>
      <point x="505.5" y="19.5" type="curve" smooth="yes"/>
      <point x="500.5" y="11.8333"/>
      <point x="494" y="6.66667"/>
      <point x="486" y="4" type="curve" smooth="yes"/>
      <point x="478" y="1.33333"/>
      <point x="468.333" y="0"/>
      <point x="457" y="0" type="curve" smooth="yes"/>
      <point x="53" y="0" type="line" smooth="yes"/>
      <point x="41.6667" y="0"/>
      <point x="32" y="1.33333"/>
      <point x="24" y="4" type="curve" smooth="yes"/>
      <point x="16" y="6.66667"/>
      <point x="9.5" y="11.8333"/>
      <point x="4.5" y="19.5" type="curve" smooth="yes"/>
      <point x="-0.5" y="27.1667"/>
      <point x="-4.16667" y="37.6667"/>
      <point x="-6.5" y="51" type="curve" smooth="yes"/>
      <point x="-8.83333" y="64.3333"/>
      <point x="-10" y="81.6667"/>
      <point x="-10" y="103" type="curve" smooth="yes"/>
      <point x="-10" y="124.333"/>
      <point x="-8.83333" y="141.667"/>
      <point x="-6.5" y="155" type="curve" smooth="yes"/>
      <point x="-4.16667" y="168.333"/>
      <point x="-0.5" y="178.667"/>
      <point x="4.5" y="186" type="curve" smooth="yes"/>
      <point x="9.5" y="193.333"/>
      <point x="16" y="198.333"/>
      <point x="24" y="201" type="curve" smooth="yes"/>
      <point x="32" y="203.667"/>
      <point x="41.6667" y="205"/>
      <point x="53" y="205" type="curve" smooth="yes"/>
      <point x="137" y="205" type="line"/>
    </contour>
    <contour>
      <point x="735" y="555" type="line"/>
      <point x="615" y="982" type="line"/>
      <point x="609" y="982" type="line"/>
      <point x="486" y="555" type="line"/>
    </contour>
  </outline>
</glyph>
<glyph name="Becyrillic" format="1">
  <advance width="1228"/>
  <unicode hex="0411"/>
  <outline>
    <contour>
      <point x="490" y="982" type="line"/>
      <point x="490" y="708" type="line"/>
      <point x="710" y="708" type="line" smooth="yes"/>
      <point x="778.667" y="708"/>
      <point x="839.5" y="700.5"/>
      <point x="892.5" y="685.5" type="curve" smooth="yes"/>
      <point x="945.5" y="670.5"/>
      <point x="990.333" y="648.333"/>
      <point x="1027" y="619" type="curve" smooth="yes"/>
      <point x="1063.67" y="589.667"/>
      <point x="1091.5" y="552.833"/>
      <point x="1110.5" y="508.5" type="curve" smooth="yes"/>
      <point x="1129.5" y="464.167"/>
      <point x="1139" y="412.667"/>
      <point x="1139" y="354" type="curve" smooth="yes"/>
      <point x="1139" y="295.333"/>
      <point x="1129.5" y="243.833"/>
      <point x="1110.5" y="199.5" type="curve" smooth="yes"/>
      <point x="1091.5" y="155.167"/>
      <point x="1063.67" y="118.333"/>
      <point x="1027" y="89" type="curve" smooth="yes"/>
      <point x="990.333" y="59.6667"/>
      <point x="945.5" y="37.5"/>
      <point x="892.5" y="22.5" type="curve" smooth="yes"/>
      <point x="839.5" y="7.5"/>
      <point x="778.667" y="0"/>
      <point x="710" y="0" type="curve" smooth="yes"/>
      <point x="133" y="0" type="line" smooth="yes"/>
      <point x="121.667" y="0"/>
      <point x="112" y="1.33333"/>
      <point x="104" y="4" type="curve" smooth="yes"/>
      <point x="96" y="6.66667"/>
      <point x="89.5" y="11.6667"/>
      <point x="84.5" y="19" type="curve" smooth="yes"/>
      <point x="79.5" y="26.3333"/>
      <point x="75.8333" y="36.6667"/>
      <point x="73.5" y="50" type="curve" smooth="yes"/>
      <point x="71.1667" y="63.3333"/>
      <point x="70" y="80.6667"/>
      <point x="70" y="102" type="curve" smooth="yes"/>
      <point x="70" y="123.333"/>
      <point x="71.1667" y="140.667"/>
      <point x="73.5" y="154" type="curve" smooth="yes"/>
      <point x="75.8333" y="167.333"/>
      <point x="79.5" y="177.833"/>
      <point x="84.5" y="185.5" type="curve" smooth="yes"/>
      <point x="89.5" y="193.167"/>
      <point x="96" y="198.333"/>
      <point x="104" y="201" type="curve" smooth="yes"/>
      <point x="112" y="203.667"/>
      <point x="121.667" y="205"/>
      <point x="133" y="205" type="curve" smooth="yes"/>
      <point x="240" y="205" type="line"/>
      <point x="240" y="982" type="line"/>
      <point x="133" y="982" type="line" smooth="yes"/>
      <point x="121.667" y="982"/>
      <point x="112" y="983.333"/>
      <point x="104" y="986" type="curve" smooth="yes"/>
      <point x="96" y="988.667"/>
      <point x="89.5" y="993.667"/>
      <point x="84.5" y="1001" type="curve" smooth="yes"/>
      <point x="79.5" y="1008.33"/>
      <point x="75.8333" y="1018.67"/>
      <point x="73.5" y="1032" type="curve" smooth="yes"/>
      <point x="71.1667" y="1045.33"/>
      <point x="70" y="1062.67"/>
      <point x="70" y="1084" type="curve" smooth="yes"/>
      <point x="70" y="1105.33"/>
      <point x="71.1667" y="1122.67"/>
      <point x="73.5" y="1136" type="curve" smooth="yes"/>
      <point x="75.8333" y="1149.33"/>
      <point x="79.5" y="1159.83"/>
      <point x="84.5" y="1167.5" type="curve" smooth="yes"/>
      <point x="89.5" y="1175.17"/>
      <point x="96" y="1180.33"/>
      <point x="104" y="1183" type="curve" smooth="yes"/>
      <point x="112" y="1185.67"/>
      <point x="121.667" y="1187"/>
      <point x="133" y="1187" type="curve" smooth="yes"/>
      <point x="1025" y="1187" type="line" smooth="yes"/>
      <point x="1048.33" y="1187"/>
      <point x="1065" y="1182"/>
      <point x="1075" y="1172" type="curve" smooth="yes"/>
      <point x="1085" y="1162"/>
      <point x="1090" y="1145.33"/>
      <point x="1090" y="1122" type="curve" smooth="yes"/>
      <point x="1090" y="840" type="line" smooth="yes"/>
      <point x="1090" y="817.333"/>
      <point x="1080.33" y="801.167"/>
      <point x="1061" y="791.5" type="curve" smooth="yes"/>
      <point x="1041.67" y="781.833"/>
      <point x="1010.67" y="777"/>
      <point x="968" y="777" type="curve" smooth="yes"/>
      <point x="946.667" y="777"/>
      <point x="929" y="778.167"/>
      <point x="915" y="780.5" type="curve" smooth="yes"/>
      <point x="901" y="782.833"/>
      <point x="890" y="786.5"/>
      <point x="882" y="791.5" type="curve" smooth="yes"/>
      <point x="874" y="796.5"/>
      <point x="868.333" y="803"/>
      <point x="865" y="811" type="curve" smooth="yes"/>
      <point x="861.667" y="819"/>
      <point x="860" y="828.667"/>
      <point x="860" y="840" type="curve" smooth="yes"/>
      <point x="860" y="982" type="line"/>
    </contour>
    <contour>
      <point x="682" y="215" type="line" smooth="yes"/>
      <point x="748.667" y="215"/>
      <point x="797.667" y="226.667"/>
      <point x="829" y="250" type="curve" smooth="yes"/>
      <point x="860.333" y="273.333"/>
      <point x="876" y="308"/>
      <point x="876" y="354" type="curve" smooth="yes"/>
      <point x="876" y="404"/>
      <point x="860.333" y="440.667"/>
      <point x="829" y="464" type="curve" smooth="yes"/>
      <point x="797.667" y="487.333"/>
      <point x="748.667" y="499"/>
      <point x="682" y="499" type="curve" smooth="yes"/>
      <point x="490" y="499" type="line"/>
      <point x="490" y="215" type="line"/>
    </contour>
  </outline>
</glyph>
<glyph name="Vecyrillic" format="1">
  <advance width="1228"/>
  <unicode hex="0412"/>
  <outline>
    <contour>
      <point x="240" y="982" type="line"/>
      <point x="133" y="982" type="line" smooth="yes"/>
      <point x="121.667" y="982"/>
      <point x="112" y="983.333"/>
      <point x="104" y="986" type="curve" smooth="yes"/>
      <point x="96" y="988.667"/>
      <point x="89.5" y="993.667"/>
      <point x="84.5" y="1001" type="curve" smooth="yes"/>
      <point x="79.5" y="1008.33"/>
      <point x="75.8333" y="1018.67"/>
      <point x="73.5" y="1032" type="curve" smooth="yes"/>
      <point x="71.1667" y="1045.33"/>
      <point x="70" y="1062.67"/>
      <point x="70" y="1084" type="curve" smooth="yes"/>
      <point x="70" y="1105.33"/>
      <point x="71.1667" y="1122.67"/>
      <point x="73.5" y="1136" type="curve" smooth="yes"/>
      <point x="75.8333" y="1149.33"/>
      <point x="79.5" y="1159.83"/>
      <point x="84.5" y="1167.5" type="curve" smooth="yes"/>
      <point x="89.5" y="1175.17"/>
      <point x="96" y="1180.33"/>
      <point x="104" y="1183" type="curve" smooth="yes"/>
      <point x="112" y="1185.67"/>
      <point x="121.667" y="1187"/>
      <point x="133" y="1187" type="curve" smooth="yes"/>
      <point x="654" y="1187" type="line" smooth="yes"/>
      <point x="726" y="1187"/>
      <point x="787.833" y="1179.33"/>
      <point x="839.5" y="1164" type="curve" smooth="yes"/>
      <point x="891.167" y="1148.67"/>
      <point x="933.667" y="1126.83"/>
      <point x="967" y="1098.5" type="curve" smooth="yes"/>
      <point x="1000.33" y="1070.17"/>
      <point x="1024.83" y="1036.17"/>
      <point x="1040.5" y="996.5" type="curve" smooth="yes"/>
      <point x="1056.17" y="956.833"/>
      <point x="1064" y="912.667"/>
      <point x="1064" y="864" type="curve" smooth="yes"/>
      <point x="1064" y="807.333"/>
      <point x="1050" y="759.833"/>
      <point x="1022" y="721.5" type="curve" smooth="yes"/>
      <point x="994" y="683.167"/>
      <point x="956.667" y="652.667"/>
      <point x="910" y="630" type="curve"/>
      <point x="980.667" y="610.667"/>
      <point x="1036.5" y="578"/>
      <point x="1077.5" y="532" type="curve" smooth="yes"/>
      <point x="1118.5" y="486"/>
      <point x="1139" y="423.333"/>
      <point x="1139" y="344" type="curve" smooth="yes"/>
      <point x="1139" y="286.667"/>
      <point x="1129.5" y="236.667"/>
      <point x="1110.5" y="194" type="curve" smooth="yes"/>
      <point x="1091.5" y="151.333"/>
      <point x="1063.67" y="115.5"/>
      <point x="1027" y="86.5" type="curve" smooth="yes"/>
      <point x="990.333" y="57.5"/>
      <point x="945.5" y="35.8333"/>
      <point x="892.5" y="21.5" type="curve" smooth="yes"/>
      <point x="839.5" y="7.16667"/>
      <point x="778.667" y="0"/>
      <point x="710" y="0" type="curve" smooth="yes"/>
      <point x="133" y="0" type="line" smooth="yes"/>
      <point x="121.667" y="0"/>
      <point x="112" y="1.33333"/>
      <point x="104" y="4" type="curve" smooth="yes"/>
      <point x="96" y="6.66667"/>
      <point x="89.5" y="11.6667"/>
      <point x="84.5" y="19" type="curve" smooth="yes"/>
      <point x="79.5" y="26.3333"/>
      <point x="75.8333" y="36.6667"/>
      <point x="73.5" y="50" type="curve" smooth="yes"/>
      <point x="71.1667" y="63.3333"/>
      <point x="70" y="80.6667"/>
      <point x="70" y="102" type="curve" smooth="yes"/>
      <point x="70" y="123.333"/>
      <point x="71.1667" y="140.667"/>
      <point x="73.5" y="154" type="curve" smooth="yes"/>
      <point x="75.8333" y="167.333"/>
      <point x="79.5" y="177.833"/>
      <point x="84.5" y="185.5" type="curve" smooth="yes"/>
      <point x="89.5" y="193.167"/>
      <point x="96" y="198.333"/>
      <point x="104" y="201" type="curve" smooth="yes"/>
      <point x="112" y="203.667"/>
      <point x="121.667" y="205"/>
      <point x="133" y="205" type="curve" smooth="yes"/>
      <point x="240" y="205" type="line"/>
    </contour>
    <contour>
      <point x="682" y="215" type="line" smooth="yes"/>
      <point x="748.667" y="215"/>
      <point x="797.667" y="226.667"/>
      <point x="829" y="250" type="curve" smooth="yes"/>
      <point x="860.333" y="273.333"/>
      <point x="876" y="308"/>
      <point x="876" y="354" type="curve" smooth="yes"/>
      <point x="876" y="404"/>
      <point x="860.333" y="440.667"/>
      <point x="829" y="464" type="curve" smooth="yes"/>
      <point x="797.667" y="487.333"/>
      <point x="748.667" y="499"/>
      <point x="682" y="499" type="curve" smooth="yes"/>
      <point x="490" y="499" type="line"/>
      <point x="490" y="215" type="line"/>
    </contour>
    <contour>
      <point x="632" y="714" type="line" smooth="yes"/>
      <point x="692.667" y="714"/>
      <point x="737.5" y="724.5"/>
      <point x="766.5" y="745.5" type="curve" smooth="yes"/>
      <point x="795.5" y="766.5"/>
      <point x="810" y="799.333"/>
      <point x="810" y="844" type="curve" smooth="yes"/>
      <point x="810" y="890"/>
      <point x="796" y="922.833"/>
      <point x="768" y="942.5" type="curve" smooth="yes"/>
      <point x="740" y="962.167"/>
      <point x="694.667" y="972"/>
      <point x="632" y="972" type="curve" smooth="yes"/>
      <point x="490" y="972" type="line"/>
      <point x="490" y="714" type="line"/>
    </contour>
  </outline>
</glyph>
<glyph name="Decyrillic" format="1">
  <advance width="1228"/>
  <unicode hex="0414"/>
  <outline>
    <contour>
      <point x="153" y="205" type="line" smooth="yes"/>
      <point x="165" y="205.667"/>
      <point x="180.333" y="209.833"/>
      <point x="199" y="217.5" type="curve" smooth="yes"/>
      <point x="217.667" y="225.167"/>
      <point x="236" y="238"/>
      <point x="254" y="256" type="curve" smooth="yes"/>
      <point x="272" y="274"/>
      <point x="287.5" y="297.333"/>
      <point x="300.5" y="326" type="curve" smooth="yes"/>
      <point x="313.5" y="354.667"/>
      <point x="320" y="390.333"/>
      <point x="320" y="433" type="curve" smooth="yes"/>
      <point x="320" y="982" type="line"/>
      <point x="263" y="982" type="line" smooth="yes"/>
      <point x="251.667" y="982"/>
      <point x="242" y="983.333"/>
      <point x="234" y="986" type="curve" smooth="yes"/>
      <point x="226" y="988.667"/>
      <point x="219.5" y="993.667"/>
      <point x="214.5" y="1001" type="curve" smooth="yes"/>
      <point x="209.5" y="1008.33"/>
      <point x="205.833" y="1018.67"/>
      <point x="203.5" y="1032" type="curve" smooth="yes"/>
      <point x="201.167" y="1045.33"/>
      <point x="200" y="1062.67"/>
      <point x="200" y="1084" type="curve" smooth="yes"/>
      <point x="200" y="1105.33"/>
      <point x="201.167" y="1122.67"/>
      <point x="203.5" y="1136" type="curve" smooth="yes"/>
      <point x="205.833" y="1149.33"/>
      <point x="209.5" y="1159.83"/>
      <point x="214.5" y="1167.5" type="curve" smooth="yes"/>
      <point x="219.5" y="1175.17"/>
      <point x="226" y="1180.33"/>
      <point x="234" y="1183" type="curve" smooth="yes"/>
      <point x="242" y="1185.67"/>
      <point x="251.667" y="1187"/>
      <point x="263" y="1187" type="curve" smooth="yes"/>
      <point x="1115" y="1187" type="line" smooth="yes"/>
      <point x="1126.33" y="1187"/>
      <point x="1136" y="1185.67"/>
      <point x="1144" y="1183" type="curve" smooth="yes"/>
      <point x="1152" y="1180.33"/>
      <point x="1158.5" y="1175.17"/>
      <point x="1163.5" y="1167.5" type="curve" smooth="yes"/>
      <point x="1168.5" y="1159.83"/>
      <point x="1172.17" y="1149.33"/>
      <point x="1174.5" y="1136" type="curve" smooth="yes"/>
      <point x="1176.83" y="1122.67"/>
      <point x="1178" y="1105.33"/>
      <point x="1178" y="1084" type="curve" smooth="yes"/>
      <point x="1178" y="1062.67"/>
      <point x="1176.83" y="1045.33"/>
      <point x="1174.5" y="1032" type="curve" smooth="yes"/>
      <point x="1172.17" y="1018.67"/>
      <point x="1168.5" y="1008.33"/>
      <point x="1163.5" y="1001" type="curve" smooth="yes"/>
      <point x="1158.5" y="993.667"/>
      <point x="1152" y="988.667"/>
      <point x="1144" y="986" type="curve" smooth="yes"/>
      <point x="1136" y="983.333"/>
      <point x="1126.33" y="982"/>
      <point x="1115" y="982" type="curve" smooth="yes"/>
      <point x="1058" y="982" type="line"/>
      <point x="1058" y="205" type="line"/>
      <point x="1143" y="205" type="line" smooth="yes"/>
      <point x="1166.33" y="205"/>
      <point x="1183" y="200"/>
      <point x="1193" y="190" type="curve" smooth="yes"/>
      <point x="1203" y="180"/>
      <point x="1208" y="163.333"/>
      <point x="1208" y="140" type="curve" smooth="yes"/>
      <point x="1208" y="-242" type="line" smooth="yes"/>
      <point x="1208" y="-264.667"/>
      <point x="1198.33" y="-280.833"/>
      <point x="1179" y="-290.5" type="curve" smooth="yes"/>
      <point x="1159.67" y="-300.167"/>
      <point x="1128.67" y="-305"/>
      <point x="1086" y="-305" type="curve" smooth="yes"/>
      <point x="1064.67" y="-305"/>
      <point x="1047" y="-303.833"/>
      <point x="1033" y="-301.5" type="curve" smooth="yes"/>
      <point x="1019" y="-299.167"/>
      <point x="1008" y="-295.5"/>
      <point x="1000" y="-290.5" type="curve" smooth="yes"/>
      <point x="992" y="-285.5"/>
      <point x="986.333" y="-279"/>
      <point x="983" y="-271" type="curve" smooth="yes"/>
      <point x="979.667" y="-263"/>
      <point x="978" y="-253.333"/>
      <point x="978" y="-242" type="curve" smooth="yes"/>
      <point x="978" y="0" type="line"/>
      <point x="280" y="0" type="line"/>
      <point x="280" y="-242" type="line" smooth="yes"/>
      <point x="280" y="-253.333"/>
      <point x="278.333" y="-263"/>
      <point x="275" y="-271" type="curve" smooth="yes"/>
      <point x="271.667" y="-279"/>
      <point x="266" y="-285.5"/>
      <point x="258" y="-290.5" type="curve" smooth="yes"/>
      <point x="250" y="-295.5"/>
      <point x="239" y="-299.167"/>
      <point x="225" y="-301.5" type="curve" smooth="yes"/>
      <point x="211" y="-303.833"/>
      <point x="193.333" y="-305"/>
      <point x="172" y="-305" type="curve" smooth="yes"/>
      <point x="129.333" y="-305"/>
      <point x="98.3333" y="-300.167"/>
      <point x="79" y="-290.5" type="curve" smooth="yes"/>
      <point x="59.6667" y="-280.833"/>
      <point x="50" y="-264.667"/>
      <point x="50" y="-242" type="curve" smooth="yes"/>
      <point x="50" y="140" type="line" smooth="yes"/>
      <point x="50" y="163.333"/>
      <point x="55" y="180"/>
      <point x="65" y="190" type="curve" smooth="yes"/>
      <point x="75" y="200"/>
      <point x="91.6667" y="205"/>
      <point x="115" y="205" type="curve" smooth="yes"/>
    </contour>
    <contour>
      <point x="570" y="483" type="line" smooth="yes"/>
      <point x="570" y="359.667"/>
      <point x="543.667" y="267"/>
      <point x="491" y="205" type="curve"/>
      <point x="808" y="205" type="line"/>
      <point x="808" y="982" type="line"/>
      <point x="570" y="982" type="line"/>
    </contour>
  </outline>
</glyph>
<glyph name="Iecyrillic" format="1">
  <advance width="1228"/>
  <unicode hex="0415"/>
  <outline>
    <contour>
      <point x="220" y="982" type="line"/>
      <point x="123" y="982" type="line" smooth="yes"/>
      <point x="111.667" y="982"/>
      <point x="102" y="983.333"/>
      <point x="94" y="986" type="curve" smooth="yes"/>
      <point x="86" y="988.667"/>
      <point x="79.5" y="993.667"/>
      <point x="74.5" y="1001" type="curve" smooth="yes"/>
      <point x="69.5" y="1008.33"/>
      <point x="65.8333" y="1018.67"/>
      <point x="63.5" y="1032" type="curve" smooth="yes"/>
      <point x="61.1667" y="1045.33"/>
      <point x="60" y="1062.67"/>
      <point x="60" y="1084" type="curve" smooth="yes"/>
      <point x="60" y="1105.33"/>
      <point x="61.1667" y="1122.67"/>
      <point x="63.5" y="1136" type="curve" smooth="yes"/>
      <point x="65.8333" y="1149.33"/>
      <point x="69.5" y="1159.83"/>
      <point x="74.5" y="1167.5" type="curve" smooth="yes"/>
      <point x="79.5" y="1175.17"/>
      <point x="86" y="1180.33"/>
      <point x="94" y="1183" type="curve" smooth="yes"/>
      <point x="102" y="1185.67"/>
      <point x="111.667" y="1187"/>
      <point x="123" y="1187" type="curve" smooth="yes"/>
      <point x="1035" y="1187" type="line" smooth="yes"/>
      <point x="1058.33" y="1187"/>
      <point x="1075" y="1182"/>
      <point x="1085" y="1172" type="curve" smooth="yes"/>
      <point x="1095" y="1162"/>
      <point x="1100" y="1145.33"/>
      <point x="1100" y="1122" type="curve" smooth="yes"/>
      <point x="1100" y="820" type="line" smooth="yes"/>
      <point x="1100" y="797.333"/>
      <point x="1090.33" y="781.167"/>
      <point x="1071" y="771.5" type="curve" smooth="yes"/>
      <point x="1051.67" y="761.833"/>
      <point x="1020.67" y="757"/>
      <point x="978" y="757" type="curve" smooth="yes"/>
      <point x="956.667" y="757"/>
      <point x="939" y="758.167"/>
      <point x="925" y="760.5" type="curve" smooth="yes"/>
      <point x="911" y="762.833"/>
      <point x="900" y="766.5"/>
      <point x="892" y="771.5" type="curve" smooth="yes"/>
      <point x="884" y="776.5"/>
      <point x="878.333" y="783"/>
      <point x="875" y="791" type="curve" smooth="yes"/>
      <point x="871.667" y="799"/>
      <point x="870" y="808.667"/>
      <point x="870" y="820" type="curve" smooth="yes"/>
      <point x="870" y="972" type="line"/>
      <point x="470" y="972" type="line"/>
      <point x="470" y="719" type="line"/>
      <point x="714" y="719" type="line" smooth="yes"/>
      <point x="725.333" y="719"/>
      <point x="735" y="717.333"/>
      <point x="743" y="714" type="curve" smooth="yes"/>
      <point x="751" y="710.667"/>
      <point x="757.5" y="705"/>
      <point x="762.5" y="697" type="curve" smooth="yes"/>
      <point x="767.5" y="689"/>
      <point x="771.167" y="678"/>
      <point x="773.5" y="664" type="curve" smooth="yes"/>
      <point x="775.833" y="650"/>
      <point x="777" y="632.333"/>
      <point x="777" y="611" type="curve" smooth="yes"/>
      <point x="777" y="569"/>
      <point x="772.167" y="540.667"/>
      <point x="762.5" y="526" type="curve" smooth="yes"/>
      <point x="752.833" y="511.333"/>
      <point x="736.667" y="504"/>
      <point x="714" y="504" type="curve" smooth="yes"/>
      <point x="470" y="504" type="line"/>
      <point x="470" y="215" type="line"/>
      <point x="880" y="215" type="line"/>
      <point x="880" y="417" type="line" smooth="yes"/>
      <point x="880" y="439.667"/>
      <point x="889.5" y="455.833"/>
      <point x="908.5" y="465.5" type="curve" smooth="yes"/>
      <point x="927.5" y="475.167"/>
      <point x="960" y="480"/>
      <point x="1006" y="480" type="curve" smooth="yes"/>
      <point x="1028.67" y="480"/>
      <point x="1047.33" y="478.833"/>
      <point x="1062" y="476.5" type="curve" smooth="yes"/>
      <point x="1076.67" y="474.167"/>
      <point x="1088.33" y="470.5"/>
      <point x="1097" y="465.5" type="curve" smooth="yes"/>
      <point x="1105.67" y="460.5"/>
      <point x="1111.67" y="454"/>
      <point x="1115" y="446" type="curve" smooth="yes"/>
      <point x="1118.33" y="438"/>
      <point x="1120" y="428.333"/>
      <point x="1120" y="417" type="curve" smooth="yes"/>
      <point x="1120" y="65" type="line" smooth="yes"/>
      <point x="1120" y="41.6667"/>
      <point x="1115" y="25"/>
      <point x="1105" y="15" type="curve" smooth="yes"/>
      <point x="1095" y="5"/>
      <point x="1078.33" y="0"/>
      <point x="1055" y="0" type="curve" smooth="yes"/>
      <point x="123" y="0" type="line" smooth="yes"/>
      <point x="111.667" y="0"/>
      <point x="102" y="1.33333"/>
      <point x="94" y="4" type="curve" smooth="yes"/>
      <point x="86" y="6.66667"/>
      <point x="79.5" y="11.6667"/>
      <point x="74.5" y="19" type="curve" smooth="yes"/>
      <point x="69.5" y="26.3333"/>
      <point x="65.8333" y="36.6667"/>
      <point x="63.5" y="50" type="curve" smooth="yes"/>
      <point x="61.1667" y="63.3333"/>
      <point x="60" y="80.6667"/>
      <point x="60" y="102" type="curve" smooth="yes"/>
      <point x="60" y="123.333"/>
      <point x="61.1667" y="140.667"/>
      <point x="63.5" y="154" type="curve" smooth="yes"/>
      <point x="65.8333" y="167.333"/>
      <point x="69.5" y="177.833"/>
      <point x="74.5" y="185.5" type="curve" smooth="yes"/>
      <point x="79.5" y="193.167"/>
      <point x="86" y="198.333"/>
      <point x="94" y="201" type="curve" smooth="yes"/>
      <point x="102" y="203.667"/>
      <point x="111.667" y="205"/>
      <point x="123" y="205" type="curve" smooth="yes"/>
      <point x="220" y="205" type="line"/>
    </contour>
  </outline>
</glyph>
<glyph name="Zhecyrillic" format="1">
  <advance width="1228"/>
  <unicode hex="0416"/>
  <outline>
    <contour>
      <point x="1127" y="775" type="curve" smooth="yes"/>
      <point x="1092.33" y="775"/>
      <point x="1069" y="779.833"/>
      <point x="1057" y="789.5" type="curve" smooth="yes"/>
      <point x="1045" y="799.167"/>
      <point x="1039" y="815.333"/>
      <point x="1039" y="838" type="curve" smooth="yes"/>
      <point x="1039" y="974" type="line"/>
      <point x="1031.67" y="958"/>
      <point x="1025.17" y="939.833"/>
      <point x="1019.5" y="919.5" type="curve" smooth="yes"/>
      <point x="1013.83" y="899.167"/>
      <point x="1008.17" y="878"/>
      <point x="1002.5" y="856" type="curve" smooth="yes"/>
      <point x="996.833" y="834"/>
      <point x="990.833" y="811.833"/>
      <point x="984.5" y="789.5" type="curve" smooth="yes"/>
      <point x="978.167" y="767.167"/>
      <point x="970.833" y="746.333"/>
      <point x="962.5" y="727" type="curve" smooth="yes"/>
      <point x="954.167" y="707.667"/>
      <point x="944" y="690.333"/>
      <point x="932" y="675" type="curve" smooth="yes"/>
      <point x="920" y="659.667"/>
      <point x="906" y="648"/>
      <point x="890" y="640" type="curve"/>
      <point x="914.667" y="640"/>
      <point x="936.667" y="629.167"/>
      <point x="956" y="607.5" type="curve" smooth="yes"/>
      <point x="975.333" y="585.833"/>
      <point x="992.833" y="558.833"/>
      <point x="1008.5" y="526.5" type="curve" smooth="yes"/>
      <point x="1024.17" y="494.167"/>
      <point x="1038.33" y="459.333"/>
      <point x="1051" y="422" type="curve" smooth="yes"/>
      <point x="1063.67" y="384.667"/>
      <point x="1076.17" y="349.833"/>
      <point x="1088.5" y="317.5" type="curve" smooth="yes"/>
      <point x="1100.83" y="285.167"/>
      <point x="1113.17" y="258.333"/>
      <point x="1125.5" y="237" type="curve" smooth="yes"/>
      <point x="1137.83" y="215.667"/>
      <point x="1151.33" y="205"/>
      <point x="1166" y="205" type="curve" smooth="yes"/>
      <point x="1176" y="205" type="line" smooth="yes"/>
      <point x="1186.67" y="205"/>
      <point x="1196" y="203.667"/>
      <point x="1204" y="201" type="curve" smooth="yes"/>
      <point x="1212" y="198.333"/>
      <point x="1218.67" y="193.167"/>
      <point x="1224" y="185.5" type="curve" smooth="yes"/>
      <point x="1229.33" y="177.833"/>
      <point x="1233.17" y="167.333"/>
      <point x="1235.5" y="154" type="curve" smooth="yes"/>
      <point x="1237.83" y="140.667"/>
      <point x="1239" y="123.333"/>
      <point x="1239" y="102" type="curve" smooth="yes"/>
      <point x="1239" y="80.6667"/>
      <point x="1237.83" y="63.3333"/>
      <point x="1235.5" y="50" type="curve" smooth="yes"/>
      <point x="1233.17" y="36.6667"/>
      <point x="1229.5" y="26.3333"/>
      <point x="1224.5" y="19" type="curve" smooth="yes"/>
      <point x="1219.5" y="11.6667"/>
      <point x="1213" y="6.66667"/>
      <point x="1205" y="4" type="curve" smooth="yes"/>
      <point x="1197" y="1.33333"/>
      <point x="1187.33" y="0"/>
      <point x="1176" y="0" type="curve" smooth="yes"/>
      <point x="1037" y="0" type="line" smooth="yes"/>
      <point x="1017.67" y="0"/>
      <point x="1000.5" y="7.16667"/>
      <point x="985.5" y="21.5" type="curve" smooth="yes"/>
      <point x="970.5" y="35.8333"/>
      <point x="956.833" y="54.8333"/>
      <point x="944.5" y="78.5" type="curve" smooth="yes"/>
      <point x="932.167" y="102.167"/>
      <point x="921" y="129.167"/>
      <point x="911" y="159.5" type="curve" smooth="yes"/>
      <point x="901" y="189.833"/>
      <point x="891.167" y="220.667"/>
      <point x="881.5" y="252" type="curve" smooth="yes"/>
      <point x="871.833" y="283.333"/>
      <point x="862.333" y="314.167"/>
      <point x="853" y="344.5" type="curve" smooth="yes"/>
      <point x="843.667" y="374.833"/>
      <point x="833.833" y="401.833"/>
      <point x="823.5" y="425.5" type="curve" smooth="yes"/>
      <point x="813.167" y="449.167"/>
      <point x="802" y="468.167"/>
      <point x="790" y="482.5" type="curve" smooth="yes"/>
      <point x="778" y="496.833"/>
      <point x="764.333" y="504"/>
      <point x="749" y="504" type="curve" smooth="yes"/>
      <point x="739" y="504" type="line"/>
      <point x="739" y="205" type="line"/>
      <point x="756" y="205" type="line" smooth="yes"/>
      <point x="767.333" y="205"/>
      <point x="777" y="203.667"/>
      <point x="785" y="201" type="curve" smooth="yes"/>
      <point x="793" y="198.333"/>
      <point x="799.5" y="193.167"/>
      <point x="804.5" y="185.5" type="curve" smooth="yes"/>
      <point x="809.5" y="177.833"/>
      <point x="813.167" y="167.333"/>
      <point x="815.5" y="154" type="curve" smooth="yes"/>
      <point x="817.833" y="140.667"/>
      <point x="819" y="123.333"/>
      <point x="819" y="102" type="curve" smooth="yes"/>
      <point x="819" y="80.6667"/>
      <point x="817.833" y="63.3333"/>
      <point x="815.5" y="50" type="curve" smooth="yes"/>
      <point x="813.167" y="36.6667"/>
      <point x="809.5" y="26.3333"/>
      <point x="804.5" y="19" type="curve" smooth="yes"/>
      <point x="799.5" y="11.6667"/>
      <point x="793" y="6.66667"/>
      <point x="785" y="4" type="curve" smooth="yes"/>
      <point x="777" y="1.33333"/>
      <point x="767.333" y="0"/>
      <point x="756" y="0" type="curve" smooth="yes"/>
      <point x="472" y="0" type="line" smooth="yes"/>
      <point x="460.667" y="0"/>
      <point x="451" y="1.33333"/>
      <point x="443" y="4" type="curve" smooth="yes"/>
      <point x="435" y="6.66667"/>
      <point x="428.5" y="11.6667"/>
      <point x="423.5" y="19" type="curve" smooth="yes"/>
      <point x="418.5" y="26.3333"/>
      <point x="414.833" y="36.6667"/>
      <point x="412.5" y="50" type="curve" smooth="yes"/>
      <point x="410.167" y="63.3333"/>
      <point x="409" y="80.6667"/>
      <point x="409" y="102" type="curve" smooth="yes"/>
      <point x="409" y="123.333"/>
      <point x="410.167" y="140.667"/>
      <point x="412.5" y="154" type="curve" smooth="yes"/>
      <point x="414.833" y="167.333"/>
      <point x="418.5" y="177.833"/>
      <point x="423.5" y="185.5" type="curve" smooth="yes"/>
      <point x="428.5" y="193.167"/>
      <point x="435" y="198.333"/>
      <point x="443" y="201" type="curve" smooth="yes"/>
      <point x="451" y="203.667"/>
      <point x="460.667" y="205"/>
      <point x="472" y="205" type="curve" smooth="yes"/>
      <point x="489" y="205" type="line"/>
      <point x="489" y="504" type="line"/>
      <point x="479" y="504" type="line" smooth="yes"/>
      <point x="463.667" y="504"/>
      <point x="450" y="496.833"/>
      <point x="438" y="482.5" type="curve" smooth="yes"/>
      <point x="426" y="468.167"/>
      <point x="414.833" y="449.167"/>
      <point x="404.5" y="425.5" type="curve" smooth="yes"/>
      <point x="394.167" y="401.833"/>
      <point x="384.333" y="374.833"/>
      <point x="375" y="344.5" type="curve" smooth="yes"/>
      <point x="365.667" y="314.167"/>
      <point x="356.167" y="283.333"/>
      <point x="346.5" y="252" type="curve" smooth="yes"/>
      <point x="336.833" y="220.667"/>
      <point x="327" y="189.833"/>
      <point x="317" y="159.5" type="curve" smooth="yes"/>
      <point x="307" y="129.167"/>
      <point x="295.833" y="102.167"/>
      <point x="283.5" y="78.5" type="curve" smooth="yes"/>
      <point x="271.167" y="54.8333"/>
      <point x="257.333" y="35.8333"/>
      <point x="242" y="21.5" type="curve" smooth="yes"/>
      <point x="226.667" y="7.16667"/>
      <point x="209.667" y="0"/>
      <point x="191" y="0" type="curve" smooth="yes"/>
      <point x="52" y="0" type="line" smooth="yes"/>
      <point x="40.6667" y="0"/>
      <point x="31" y="1.33333"/>
      <point x="23" y="4" type="curve" smooth="yes"/>
      <point x="15" y="6.66667"/>
      <point x="8.5" y="11.6667"/>
      <point x="3.5" y="19" type="curve" smooth="yes"/>
      <point x="-1.5" y="26.3333"/>
      <point x="-5.16667" y="36.6667"/>
      <point x="-7.5" y="50" type="curve" smooth="yes"/>
      <point x="-9.83333" y="63.3333"/>
      <point x="-11" y="80.6667"/>
      <point x="-11" y="102" type="curve" smooth="yes"/>
      <point x="-11" y="123.333"/>
      <point x="-9.83333" y="140.667"/>
      <point x="-7.5" y="154" type="curve" smooth="yes"/>
      <point x="-5.16667" y="167.333"/>
      <point x="-1.33333" y="177.833"/>
      <point x="4" y="185.5" type="curve" smooth="yes"/>
      <point x="9.33333" y="193.167"/>
      <point x="15.8333" y="198.333"/>
      <point x="23.5" y="201" type="curve" smooth="yes"/>
      <point x="31.1667" y="203.667"/>
      <point x="40.6667" y="205"/>
      <point x="52" y="205" type="curve" smooth="yes"/>
      <point x="62" y="205" type="line" smooth="yes"/>
      <point x="76.6667" y="205"/>
      <point x="90.1667" y="215.667"/>
      <point x="102.5" y="237" type="curve" smooth="yes"/>
      <point x="114.833" y="258.333"/>
      <point x="127" y="285.167"/>
      <point x="139" y="317.5" type="curve" smooth="yes"/>
      <point x="151" y="349.833"/>
      <point x="163.5" y="384.667"/>
      <point x="176.5" y="422" type="curve" smooth="yes"/>
      <point x="189.5" y="459.333"/>
      <point x="203.667" y="494.167"/>
      <point x="219" y="526.5" type="curve" smooth="yes"/>
      <point x="234.333" y="558.833"/>
      <point x="251.667" y="585.833"/>
      <point x="271" y="607.5" type="curve" smooth="yes"/>
      <point x="290.333" y="629.167"/>
      <point x="312.333" y="640"/>
      <point x="337" y="640" type="curve"/>
      <point x="321" y="648"/>
      <point x="307.167" y="659.667"/>
      <point x="295.5" y="675" type="curve" smooth="yes"/>
      <point x="283.833" y="690.333"/>
      <point x="273.667" y="707.667"/>
      <point x="265" y="727" type="curve" smooth="yes"/>
      <point x="256.333" y="746.333"/>
      <point x="248.833" y="767.167"/>
      <point x="242.5" y="789.5" type="curve" smooth="yes"/>
      <point x="236.167" y="811.833"/>
      <point x="230.333" y="834"/>
      <point x="225" y="856" type="curve" smooth="yes"/>
      <point x="219.667" y="878"/>
      <point x="214.167" y="899.167"/>
      <point x="208.5" y="919.5" type="curve" smooth="yes"/>
      <point x="202.833" y="939.833"/>
      <point x="196.333" y="958"/>
      <point x="189" y="974" type="curve"/>
      <point x="189" y="838" type="line" smooth="yes"/>
      <point x="189" y="815.333"/>
      <point x="183" y="799.167"/>
      <point x="171" y="789.5" type="curve" smooth="yes"/>
      <point x="159" y="779.833"/>
      <point x="135.667" y="775"/>
      <point x="101" y="775" type="curve" smooth="yes"/>
      <point x="65" y="775"/>
      <point x="39" y="779.833"/>
      <point x="23" y="789.5" type="curve" smooth="yes"/>
      <point x="7" y="799.167"/>
      <point x="-1" y="815.333"/>
      <point x="-1" y="838" type="curve" smooth="yes"/>
      <point x="-1" y="1097" type="line" smooth="yes"/>
      <point x="-1" y="1107.67"/>
      <point x="0.166667" y="1117.33"/>
      <point x="2.5" y="1126" type="curve" smooth="yes"/>
      <point x="4.83333" y="1134.67"/>
      <point x="9" y="1142"/>
      <point x="15" y="1148" type="curve" smooth="yes"/>
      <point x="24.3333" y="1157.33"/>
      <point x="33.3333" y="1165.67"/>
      <point x="42" y="1173" type="curve" smooth="yes"/>
      <point x="50.6667" y="1180.33"/>
      <point x="60" y="1186.67"/>
      <point x="70" y="1192" type="curve" smooth="yes"/>
      <point x="80" y="1197.33"/>
      <point x="91.3333" y="1201.5"/>
      <point x="104" y="1204.5" type="curve" smooth="yes"/>
      <point x="116.667" y="1207.5"/>
      <point x="132" y="1209"/>
      <point x="150" y="1209" type="curve" smooth="yes"/>
      <point x="188" y="1209"/>
      <point x="220.5" y="1202"/>
      <point x="247.5" y="1188" type="curve" smooth="yes"/>
      <point x="274.5" y="1174"/>
      <point x="297.333" y="1155.5"/>
      <point x="316" y="1132.5" type="curve" smooth="yes"/>
      <point x="334.667" y="1109.5"/>
      <point x="349.833" y="1083.33"/>
      <point x="361.5" y="1054" type="curve" smooth="yes"/>
      <point x="373.167" y="1024.67"/>
      <point x="383.167" y="994.667"/>
      <point x="391.5" y="964" type="curve" smooth="yes"/>
      <point x="399.833" y="933.333"/>
      <point x="406.833" y="903.333"/>
      <point x="412.5" y="874" type="curve" smooth="yes"/>
      <point x="418.167" y="844.667"/>
      <point x="424.167" y="818.5"/>
      <point x="430.5" y="795.5" type="curve" smooth="yes"/>
      <point x="436.833" y="772.5"/>
      <point x="444" y="754"/>
      <point x="452" y="740" type="curve" smooth="yes"/>
      <point x="460" y="726"/>
      <point x="470.667" y="719"/>
      <point x="484" y="719" type="curve" smooth="yes"/>
      <point x="489" y="719" type="line"/>
      <point x="489" y="982" type="line"/>
      <point x="472" y="982" type="line" smooth="yes"/>
      <point x="460.667" y="982"/>
      <point x="451" y="983.333"/>
      <point x="443" y="986" type="curve" smooth="yes"/>
      <point x="435" y="988.667"/>
      <point x="428.5" y="993.833"/>
      <point x="423.5" y="1001.5" type="curve" smooth="yes"/>
      <point x="418.5" y="1009.17"/>
      <point x="414.833" y="1019.67"/>
      <point x="412.5" y="1033" type="curve" smooth="yes"/>
      <point x="410.167" y="1046.33"/>
      <point x="409" y="1063.67"/>
      <point x="409" y="1085" type="curve" smooth="yes"/>
      <point x="409" y="1106.33"/>
      <point x="410.167" y="1123.67"/>
      <point x="412.5" y="1137" type="curve" smooth="yes"/>
      <point x="414.833" y="1150.33"/>
      <point x="418.5" y="1160.67"/>
      <point x="423.5" y="1168" type="curve" smooth="yes"/>
      <point x="428.5" y="1175.33"/>
      <point x="435" y="1180.33"/>
      <point x="443" y="1183" type="curve" smooth="yes"/>
      <point x="451" y="1185.67"/>
      <point x="460.667" y="1187"/>
      <point x="472" y="1187" type="curve" smooth="yes"/>
      <point x="756" y="1187" type="line" smooth="yes"/>
      <point x="767.333" y="1187"/>
      <point x="777" y="1185.67"/>
      <point x="785" y="1183" type="curve" smooth="yes"/>
      <point x="793" y="1180.33"/>
      <point x="799.5" y="1175.33"/>
      <point x="804.5" y="1168" type="curve" smooth="yes"/>
      <point x="809.5" y="1160.67"/>
      <point x="813.167" y="1150.33"/>
      <point x="815.5" y="1137" type="curve" smooth="yes"/>
      <point x="817.833" y="1123.67"/>
      <point x="819" y="1106.33"/>
      <point x="819" y="1085" type="curve" smooth="yes"/>
      <point x="819" y="1063.67"/>
      <point x="817.833" y="1046.33"/>
      <point x="815.5" y="1033" type="curve" smooth="yes"/>
      <point x="813.167" y="1019.67"/>
      <point x="809.5" y="1009.17"/>
      <point x="804.5" y="1001.5" type="curve" smooth="yes"/>
      <point x="799.5" y="993.833"/>
      <point x="793" y="988.667"/>
      <point x="785" y="986" type="curve" smooth="yes"/>
      <point x="777" y="983.333"/>
      <point x="767.333" y="982"/>
      <point x="756" y="982" type="curve" smooth="yes"/>
      <point x="739" y="982" type="line"/>
      <point x="739" y="719" type="line"/>
      <point x="744" y="719" type="line" smooth="yes"/>
      <point x="757.333" y="719"/>
      <point x="768" y="726"/>
      <point x="776" y="740" type="curve" smooth="yes"/>
      <point x="784" y="754"/>
      <point x="791.167" y="772.5"/>
      <point x="797.5" y="795.5" type="curve" smooth="yes"/>
      <point x="803.833" y="818.5"/>
      <point x="809.833" y="844.667"/>
      <point x="815.5" y="874" type="curve" smooth="yes"/>
      <point x="821.167" y="903.333"/>
      <point x="828.167" y="933.333"/>
      <point x="836.5" y="964" type="curve" smooth="yes"/>
      <point x="844.833" y="994.667"/>
      <point x="854.833" y="1024.67"/>
      <point x="866.5" y="1054" type="curve" smooth="yes"/>
      <point x="878.167" y="1083.33"/>
      <point x="893.333" y="1109.5"/>
      <point x="912" y="1132.5" type="curve" smooth="yes"/>
      <point x="930.667" y="1155.5"/>
      <point x="953.5" y="1174"/>
      <point x="980.5" y="1188" type="curve" smooth="yes"/>
      <point x="1007.5" y="1202"/>
      <point x="1040" y="1209"/>
      <point x="1078" y="1209" type="curve" smooth="yes"/>
      <point x="1096" y="1209"/>
      <point x="1111.33" y="1207.5"/>
      <point x="1124" y="1204.5" type="curve" smooth="yes"/>
      <point x="1136.67" y="1201.5"/>
      <point x="1148" y="1197.33"/>
      <point x="1158" y="1192" type="curve" smooth="yes"/>
      <point x="1168" y="1186.67"/>
      <point x="1177.33" y="1180.33"/>
      <point x="1186" y="1173" type="curve" smooth="yes"/>
      <point x="1194.67" y="1165.67"/>
      <point x="1203.67" y="1157.33"/>
      <point x="1213" y="1148" type="curve" smooth="yes"/>
      <point x="1219" y="1142"/>
      <point x="1223.17" y="1134.67"/>
      <point x="1225.5" y="1126" type="curve" smooth="yes"/>
      <point x="1227.83" y="1117.33"/>
      <point x="1229" y="1107.67"/>
      <point x="1229" y="1097" type="curve" smooth="yes"/>
      <point x="1229" y="838" type="line" smooth="yes"/>
      <point x="1229" y="815.333"/>
      <point x="1221" y="799.167"/>
      <point x="1205" y="789.5" type="curve" smooth="yes"/>
      <point x="1189" y="779.833"/>
      <point x="1163" y="775"/>
    </contour>
  </outline>
</glyph>
<glyph name="Zecyrillic" format="1">
  <advance width="1228"/>
  <unicode hex="0417"/>
  <outline>
    <contour>
      <point x="625" y="992" type="curve" smooth="yes"/>
      <point x="581.667" y="992"/>
      <point x="543.833" y="986.5"/>
      <point x="511.5" y="975.5" type="curve" smooth="yes"/>
      <point x="479.167" y="964.5"/>
      <point x="452" y="949"/>
      <point x="430" y="929" type="curve" smooth="yes"/>
      <point x="408" y="909"/>
      <point x="391.5" y="884.833"/>
      <point x="380.5" y="856.5" type="curve" smooth="yes"/>
      <point x="369.5" y="828.167"/>
      <point x="364" y="796.667"/>
      <point x="364" y="762" type="curve" smooth="yes"/>
      <point x="364" y="750.667"/>
      <point x="362.333" y="741"/>
      <point x="359" y="733" type="curve" smooth="yes"/>
      <point x="355.667" y="725"/>
      <point x="349.5" y="718.5"/>
      <point x="340.5" y="713.5" type="curve" smooth="yes"/>
      <point x="331.5" y="708.5"/>
      <point x="319.5" y="704.833"/>
      <point x="304.5" y="702.5" type="curve" smooth="yes"/>
      <point x="289.5" y="700.167"/>
      <point x="270" y="699"/>
      <point x="246" y="699" type="curve" smooth="yes"/>
      <point x="198" y="699"/>
      <point x="164" y="703.833"/>
      <point x="144" y="713.5" type="curve" smooth="yes"/>
      <point x="124" y="723.167"/>
      <point x="114" y="739.333"/>
      <point x="114" y="762" type="curve" smooth="yes"/>
      <point x="114" y="1146" type="line" smooth="yes"/>
      <point x="114" y="1157.33"/>
      <point x="115.667" y="1167"/>
      <point x="119" y="1175" type="curve" smooth="yes"/>
      <point x="122.333" y="1183"/>
      <point x="128" y="1189.5"/>
      <point x="136" y="1194.5" type="curve" smooth="yes"/>
      <point x="144" y="1199.5"/>
      <point x="155" y="1203.17"/>
      <point x="169" y="1205.5" type="curve" smooth="yes"/>
      <point x="183" y="1207.83"/>
      <point x="200.667" y="1209"/>
      <point x="222" y="1209" type="curve" smooth="yes"/>
      <point x="264.667" y="1209"/>
      <point x="295.667" y="1204.17"/>
      <point x="315" y="1194.5" type="curve" smooth="yes"/>
      <point x="334.333" y="1184.83"/>
      <point x="344" y="1168.67"/>
      <point x="344" y="1146" type="curve" smooth="yes"/>
      <point x="344" y="1083" type="line"/>
      <point x="356.667" y="1102.33"/>
      <point x="373.167" y="1119.67"/>
      <point x="393.5" y="1135" type="curve" smooth="yes"/>
      <point x="413.833" y="1150.33"/>
      <point x="436.5" y="1163.5"/>
      <point x="461.5" y="1174.5" type="curve" smooth="yes"/>
      <point x="486.5" y="1185.5"/>
      <point x="513.667" y="1194"/>
      <point x="543" y="1200" type="curve" smooth="yes"/>
      <point x="572.333" y="1206"/>
      <point x="602.667" y="1209"/>
      <point x="634" y="1209" type="curve" smooth="yes"/>
      <point x="700" y="1209"/>
      <point x="760.667" y="1201.67"/>
      <point x="816" y="1187" type="curve" smooth="yes"/>
      <point x="871.333" y="1172.33"/>
      <point x="918.833" y="1150.67"/>
      <point x="958.5" y="1122" type="curve" smooth="yes"/>
      <point x="998.167" y="1093.33"/>
      <point x="1029.17" y="1057.83"/>
      <point x="1051.5" y="1015.5" type="curve" smooth="yes"/>
      <point x="1073.83" y="973.167"/>
      <point x="1085" y="924.333"/>
      <point x="1085" y="869" type="curve" smooth="yes"/>
      <point x="1085" y="808.333"/>
      <point x="1067.17" y="758.167"/>
      <point x="1031.5" y="718.5" type="curve" smooth="yes"/>
      <point x="995.833" y="678.833"/>
      <point x="946.667" y="647.333"/>
      <point x="884" y="624" type="curve"/>
      <point x="956" y="599.333"/>
      <point x="1013.33" y="565"/>
      <point x="1056" y="521" type="curve" smooth="yes"/>
      <point x="1098.67" y="477"/>
      <point x="1120" y="422"/>
      <point x="1120" y="356" type="curve" smooth="yes"/>
      <point x="1120" y="292.667"/>
      <point x="1107.5" y="237.333"/>
      <point x="1082.5" y="190" type="curve" smooth="yes"/>
      <point x="1057.5" y="142.667"/>
      <point x="1021.5" y="103.333"/>
      <point x="974.5" y="72" type="curve" smooth="yes"/>
      <point x="927.5" y="40.6667"/>
      <point x="870.5" y="17.1667"/>
      <point x="803.5" y="1.5" type="curve" smooth="yes"/>
      <point x="736.5" y="-14.1667"/>
      <point x="661.333" y="-22"/>
      <point x="578" y="-22" type="curve" smooth="yes"/>
      <point x="506" y="-22"/>
      <point x="434.5" y="-13"/>
      <point x="363.5" y="5" type="curve" smooth="yes"/>
      <point x="292.5" y="23"/>
      <point x="221.667" y="49.3333"/>
      <point x="151" y="84" type="curve" smooth="yes"/>
      <point x="129.667" y="94.6667"/>
      <point x="115.333" y="110.667"/>
      <point x="108" y="132" type="curve" smooth="yes"/>
      <point x="100.667" y="153.333"/>
      <point x="104.333" y="184.333"/>
      <point x="119" y="225" type="curve" smooth="yes"/>
      <point x="133.667" y="265"/>
      <point x="150.333" y="290"/>
      <point x="169" y="300" type="curve" smooth="yes"/>
      <point x="187.667" y="310"/>
      <point x="207" y="310"/>
      <point x="227" y="300" type="curve" smooth="yes"/>
      <point x="255.667" y="285.333"/>
      <point x="284" y="272.167"/>
      <point x="312" y="260.5" type="curve" smooth="yes"/>
      <point x="340" y="248.833"/>
      <point x="368.167" y="238.833"/>
      <point x="396.5" y="230.5" type="curve" smooth="yes"/>
      <point x="424.833" y="222.167"/>
      <point x="453.833" y="215.833"/>
      <point x="483.5" y="211.5" type="curve" smooth="yes"/>
      <point x="513.167" y="207.167"/>
      <point x="544.667" y="205"/>
      <point x="578" y="205" type="curve" smooth="yes"/>
      <point x="671.333" y="205"/>
      <point x="740.333" y="218.333"/>
      <point x="785" y="245" type="curve" smooth="yes"/>
      <point x="829.667" y="271.667"/>
      <point x="852" y="309.333"/>
      <point x="852" y="358" type="curve" smooth="yes"/>
      <point x="852" y="454.667"/>
      <point x="775.333" y="503"/>
      <point x="622" y="503" type="curve" smooth="yes"/>
      <point x="519" y="503" type="line" smooth="yes"/>
      <point x="496.333" y="503"/>
      <point x="480.167" y="510.333"/>
      <point x="470.5" y="525" type="curve" smooth="yes"/>
      <point x="460.833" y="539.667"/>
      <point x="456" y="568"/>
      <point x="456" y="610" type="curve" smooth="yes"/>
      <point x="456" y="631.333"/>
      <point x="457.167" y="649"/>
      <point x="459.5" y="663" type="curve" smooth="yes"/>
      <point x="461.833" y="677"/>
      <point x="465.5" y="688"/>
      <point x="470.5" y="696" type="curve" smooth="yes"/>
      <point x="475.5" y="704"/>
      <point x="482" y="709.667"/>
      <point x="490" y="713" type="curve" smooth="yes"/>
      <point x="498" y="716.333"/>
      <point x="507.667" y="718"/>
      <point x="519" y="718" type="curve" smooth="yes"/>
      <point x="595" y="718" type="line" smooth="yes"/>
      <point x="675.667" y="718"/>
      <point x="735.167" y="728.667"/>
      <point x="773.5" y="750" type="curve" smooth="yes"/>
      <point x="811.833" y="771.333"/>
      <point x="831" y="806"/>
      <point x="831" y="854" type="curve" smooth="yes"/>
      <point x="831" y="876.667"/>
      <point x="825.833" y="896.667"/>
      <point x="815.5" y="914" type="curve" smooth="yes"/>
      <point x="805.167" y="931.333"/>
      <point x="790.667" y="945.833"/>
      <point x="772" y="957.5" type="curve" smooth="yes"/>
      <point x="753.333" y="969.167"/>
      <point x="731.5" y="977.833"/>
      <point x="706.5" y="983.5" type="curve" smooth="yes"/>
      <point x="681.5" y="989.167"/>
      <point x="654.333" y="992"/>
    </contour>
  </outline>
</glyph>
<glyph name="Iicyrillic" format="1">
  <advance width="1228"/>
  <unicode hex="0418"/>
  <outline>
    <contour>
      <point x="808" y="724" type="line"/>
      <point x="443" y="27" type="line" smooth="yes"/>
      <point x="437.667" y="17"/>
      <point x="430.167" y="10"/>
      <point x="420.5" y="6" type="curve" smooth="yes"/>
      <point x="410.833" y="2"/>
      <point x="399.667" y="0"/>
      <point x="387" y="0" type="curve" smooth="yes"/>
      <point x="113" y="0" type="line" smooth="yes"/>
      <point x="101.667" y="0"/>
      <point x="92" y="1.33333"/>
      <point x="84" y="4" type="curve" smooth="yes"/>
      <point x="76" y="6.66667"/>
      <point x="69.5" y="11.8333"/>
      <point x="64.5" y="19.5" type="curve" smooth="yes"/>
      <point x="59.5" y="27.1667"/>
      <point x="55.8333" y="37.6667"/>
      <point x="53.5" y="51" type="curve" smooth="yes"/>
      <point x="51.1667" y="64.3333"/>
      <point x="50" y="81.6667"/>
      <point x="50" y="103" type="curve" smooth="yes"/>
      <point x="50" y="124.333"/>
      <point x="51.1667" y="141.667"/>
      <point x="53.5" y="155" type="curve" smooth="yes"/>
      <point x="55.8333" y="168.333"/>
      <point x="59.5" y="178.667"/>
      <point x="64.5" y="186" type="curve" smooth="yes"/>
      <point x="69.5" y="193.333"/>
      <point x="76" y="198.333"/>
      <point x="84" y="201" type="curve" smooth="yes"/>
      <point x="92" y="203.667"/>
      <point x="101.667" y="205"/>
      <point x="113" y="205" type="curve" smooth="yes"/>
      <point x="170" y="205" type="line"/>
      <point x="170" y="982" type="line"/>
      <point x="113" y="982" type="line" smooth="yes"/>
      <point x="101.667" y="982"/>
      <point x="92" y="983.333"/>
      <point x="84" y="986" type="curve" smooth="yes"/>
      <point x="76" y="988.667"/>
      <point x="69.5" y="993.667"/>
      <point x="64.5" y="1001" type="curve" smooth="yes"/>
      <point x="59.5" y="1008.33"/>
      <point x="55.8333" y="1018.67"/>
      <point x="53.5" y="1032" type="curve" smooth="yes"/>
      <point x="51.1667" y="1045.33"/>
      <point x="50" y="1062.67"/>
      <point x="50" y="1084" type="curve" smooth="yes"/>
      <point x="50" y="1105.33"/>
      <point x="51.1667" y="1122.67"/>
      <point x="53.5" y="1136" type="curve" smooth="yes"/>
      <point x="55.8333" y="1149.33"/>
      <point x="59.5" y="1159.83"/>
      <point x="64.5" y="1167.5" type="curve" smooth="yes"/>
      <point x="69.5" y="1175.17"/>
      <point x="76" y="1180.33"/>
      <point x="84" y="1183" type="curve" smooth="yes"/>
      <point x="92" y="1185.67"/>
      <point x="101.667" y="1187"/>
      <point x="113" y="1187" type="curve" smooth="yes"/>
      <point x="488" y="1187" type="line" smooth="yes"/>
      <point x="499.333" y="1187"/>
      <point x="509" y="1185.67"/>
      <point x="517" y="1183" type="curve" smooth="yes"/>
      <point x="525" y="1180.33"/>
      <point x="531.5" y="1175.17"/>
      <point x="536.5" y="1167.5" type="curve" smooth="yes"/>
      <point x="541.5" y="1159.83"/>
      <point x="545.167" y="1149.33"/>
      <point x="547.5" y="1136" type="curve" smooth="yes"/>
      <point x="549.833" y="1122.67"/>
      <point x="551" y="1105.33"/>
      <point x="551" y="1084" type="curve" smooth="yes"/>
      <point x="551" y="1062.67"/>
      <point x="549.833" y="1045.33"/>
      <point x="547.5" y="1032" type="curve" smooth="yes"/>
      <point x="545.167" y="1018.67"/>
      <point x="541.5" y="1008.33"/>
      <point x="536.5" y="1001" type="curve" smooth="yes"/>
      <point x="531.5" y="993.667"/>
      <point x="525" y="988.667"/>
      <point x="517" y="986" type="curve" smooth="yes"/>
      <point x="509" y="983.333"/>
      <point x="499.333" y="982"/>
      <point x="488" y="982" type="curve" smooth="yes"/>
      <point x="420" y="982" type="line"/>
      <point x="420" y="463" type="line"/>
      <point x="815" y="1160" type="line" smooth="yes"/>
      <point x="820.333" y="1170"/>
      <point x="827.833" y="1177"/>
      <point x="837.5" y="1181" type="curve" smooth="yes"/>
      <point x="847.167" y="1185"/>
      <point x="858.333" y="1187"/>
      <point x="871" y="1187" type="curve" smooth="yes"/>
      <point x="1115" y="1187" type="line" smooth="yes"/>
      <point x="1126.33" y="1187"/>
      <point x="1136" y="1185.67"/>
      <point x="1144" y="1183" type="curve" smooth="yes"/>
      <point x="1152" y="1180.33"/>
      <point x="1158.5" y="1175.17"/>
      <point x="1163.5" y="1167.5" type="curve" smooth="yes"/>
      <point x="1168.5" y="1159.83"/>
      <point x="1172.17" y="1149.33"/>
      <point x="1174.5" y="1136" type="curve" smooth="yes"/>
      <point x="1176.83" y="1122.67"/>
      <point x="1178" y="1105.33"/>
      <point x="1178" y="1084" type="curve" smooth="yes"/>
      <point x="1178" y="1062.67"/>
      <point x="1176.83" y="1045.33"/>
      <point x="1174.5" y="1032" type="curve" smooth="yes"/>
      <point x="1172.17" y="1018.67"/>
      <point x="1168.5" y="1008.33"/>
      <point x="1163.5" y="1001" type="curve" smooth="yes"/>
      <point x="1158.5" y="993.667"/>
      <point x="1152" y="988.667"/>
      <point x="1144" y="986" type="curve" smooth="yes"/>
      <point x="1136" y="983.333"/>
      <point x="1126.33" y="982"/>
      <point x="1115" y="982" type="curve" smooth="yes"/>
      <point x="1058" y="982" type="line"/>
      <point x="1058" y="205" type="line"/>
      <point x="1115" y="205" type="line" smooth="yes"/>
      <point x="1126.33" y="205"/>
      <point x="1136" y="203.667"/>
      <point x="1144" y="201" type="curve" smooth="yes"/>
      <point x="1152" y="198.333"/>
      <point x="1158.5" y="193.167"/>
      <point x="1163.5" y="185.5" type="curve" smooth="yes"/>
      <point x="1168.5" y="177.833"/>
      <point x="1172.17" y="167.333"/>
      <point x="1174.5" y="154" type="curve" smooth="yes"/>
      <point x="1176.83" y="140.667"/>
      <point x="1178" y="123.333"/>
      <point x="1178" y="102" type="curve" smooth="yes"/>
      <point x="1178" y="80.6667"/>
      <point x="1176.83" y="63.3333"/>
      <point x="1174.5" y="50" type="curve" smooth="yes"/>
      <point x="1172.17" y="36.6667"/>
      <point x="1168.5" y="26.3333"/>
      <point x="1163.5" y="19" type="curve" smooth="yes"/>
      <point x="1158.5" y="11.6667"/>
      <point x="1152" y="6.66667"/>
      <point x="1144" y="4" type="curve" smooth="yes"/>
      <point x="1136" y="1.33333"/>
      <point x="1126.33" y="0"/>
      <point x="1115" y="0" type="curve" smooth="yes"/>
      <point x="741" y="0" type="line" smooth="yes"/>
      <point x="729.667" y="0"/>
      <point x="720" y="1.33333"/>
      <point x="712" y="4" type="curve" smooth="yes"/>
      <point x="704" y="6.66667"/>
      <point x="697.5" y="11.6667"/>
      <point x="692.5" y="19" type="curve" smooth="yes"/>
      <point x="687.5" y="26.3333"/>
      <point x="683.833" y="36.6667"/>
      <point x="681.5" y="50" type="curve" smooth="yes"/>
      <point x="679.167" y="63.3333"/>
      <point x="678" y="80.6667"/>
      <point x="678" y="102" type="curve" smooth="yes"/>
      <point x="678" y="123.333"/>
      <point x="679.167" y="140.667"/>
      <point x="681.5" y="154" type="curve" smooth="yes"/>
      <point x="683.833" y="167.333"/>
      <point x="687.5" y="177.833"/>
      <point x="692.5" y="185.5" type="curve" smooth="yes"/>
      <point x="697.5" y="193.167"/>
      <point x="704" y="198.333"/>
      <point x="712" y="201" type="curve" smooth="yes"/>
      <point x="720" y="203.667"/>
      <point x="729.667" y="205"/>
      <point x="741" y="205" type="curve" smooth="yes"/>
      <point x="808" y="205" type="line"/>
    </contour>
  </outline>
</glyph>
<glyph name="Iishortcyrillic" format="1">
  <advance width="1228"/>
  <unicode hex="0419"/>
  <outline>
    <contour>
      <point x="808" y="724" type="line"/>
      <point x="443" y="27" type="line" smooth="yes"/>
      <point x="437.667" y="17"/>
      <point x="430.167" y="10"/>
      <point x="420.5" y="6" type="curve" smooth="yes"/>
      <point x="410.833" y="2"/>
      <point x="399.667" y="0"/>
      <point x="387" y="0" type="curve" smooth="yes"/>
      <point x="113" y="0" type="line" smooth="yes"/>
      <point x="101.667" y="0"/>
      <point x="92" y="1.33333"/>
      <point x="84" y="4" type="curve" smooth="yes"/>
      <point x="76" y="6.66667"/>
      <point x="69.5" y="11.8333"/>
      <point x="64.5" y="19.5" type="curve" smooth="yes"/>
      <point x="59.5" y="27.1667"/>
      <point x="55.8333" y="37.6667"/>
      <point x="53.5" y="51" type="curve" smooth="yes"/>
      <point x="51.1667" y="64.3333"/>
      <point x="50" y="81.6667"/>
      <point x="50" y="103" type="curve" smooth="yes"/>
      <point x="50" y="124.333"/>
      <point x="51.1667" y="141.667"/>
      <point x="53.5" y="155" type="curve" smooth="yes"/>
      <point x="55.8333" y="168.333"/>
      <point x="59.5" y="178.667"/>
      <point x="64.5" y="186" type="curve" smooth="yes"/>
      <point x="69.5" y="193.333"/>
      <point x="76" y="198.333"/>
      <point x="84" y="201" type="curve" smooth="yes"/>
      <point x="92" y="203.667"/>
      <point x="101.667" y="205"/>
      <point x="113" y="205" type="curve" smooth="yes"/>
      <point x="170" y="205" type="line"/>
      <point x="170" y="982" type="line"/>
      <point x="113" y="982" type="line" smooth="yes"/>
      <point x="101.667" y="982"/>
      <point x="92" y="983.333"/>
      <point x="84" y="986" type="curve" smooth="yes"/>
      <point x="76" y="988.667"/>
      <point x="69.5" y="993.667"/>
      <point x="64.5" y="1001" type="curve" smooth="yes"/>
      <point x="59.5" y="1008.33"/>
      <point x="55.8333" y="1018.67"/>
      <point x="53.5" y="1032" type="curve" smooth="yes"/>
      <point x="51.1667" y="1045.33"/>
      <point x="50" y="1062.67"/>
      <point x="50" y="1084" type="curve" smooth="yes"/>
      <point x="50" y="1105.33"/>
      <point x="51.1667" y="1122.67"/>
      <point x="53.5" y="1136" type="curve" smooth="yes"/>
      <point x="55.8333" y="1149.33"/>
      <point x="59.5" y="1159.83"/>
      <point x="64.5" y="1167.5" type="curve" smooth="yes"/>
      <point x="69.5" y="1175.17"/>
      <point x="76" y="1180.33"/>
      <point x="84" y="1183" type="curve" smooth="yes"/>
      <point x="92" y="1185.67"/>
      <point x="101.667" y="1187"/>
      <point x="113" y="1187" type="curve" smooth="yes"/>
      <point x="488" y="1187" type="line" smooth="yes"/>
      <point x="499.333" y="1187"/>
      <point x="509" y="1185.67"/>
      <point x="517" y="1183" type="curve" smooth="yes"/>
      <point x="525" y="1180.33"/>
      <point x="531.5" y="1175.17"/>
      <point x="536.5" y="1167.5" type="curve" smooth="yes"/>
      <point x="541.5" y="1159.83"/>
      <point x="545.167" y="1149.33"/>
      <point x="547.5" y="1136" type="curve" smooth="yes"/>
      <point x="549.833" y="1122.67"/>
      <point x="551" y="1105.33"/>
      <point x="551" y="1084" type="curve" smooth="yes"/>
      <point x="551" y="1062.67"/>
      <point x="549.833" y="1045.33"/>
      <point x="547.5" y="1032" type="curve" smooth="yes"/>
      <point x="545.167" y="1018.67"/>
      <point x="541.5" y="1008.33"/>
      <point x="536.5" y="1001" type="curve" smooth="yes"/>
      <point x="531.5" y="993.667"/>
      <point x="525" y="988.667"/>
      <point x="517" y="986" type="curve" smooth="yes"/>
      <point x="509" y="983.333"/>
      <point x="499.333" y="982"/>
      <point x="488" y="982" type="curve" smooth="yes"/>
      <point x="420" y="982" type="line"/>
      <point x="420" y="463" type="line"/>
      <point x="815" y="1160" type="line" smooth="yes"/>
      <point x="820.333" y="1170"/>
      <point x="827.833" y="1177"/>
      <point x="837.5" y="1181" type="curve" smooth="yes"/>
      <point x="847.167" y="1185"/>
      <point x="858.333" y="1187"/>
      <point x="871" y="1187" type="curve" smooth="yes"/>
      <point x="1115" y="1187" type="line" smooth="yes"/>
      <point x="1126.33" y="1187"/>
      <point x="1136" y="1185.67"/>
      <point x="1144" y="1183" type="curve" smooth="yes"/>
      <point x="1152" y="1180.33"/>
      <point x="1158.5" y="1175.17"/>
      <point x="1163.5" y="1167.5" type="curve" smooth="yes"/>
      <point x="1168.5" y="1159.83"/>
      <point x="1172.17" y="1149.33"/>
      <point x="1174.5" y="1136" type="curve" smooth="yes"/>
      <point x="1176.83" y="1122.67"/>
      <point x="1178" y="1105.33"/>
      <point x="1178" y="1084" type="curve" smooth="yes"/>
      <point x="1178" y="1062.67"/>
      <point x="1176.83" y="1045.33"/>
      <point x="1174.5" y="1032" type="curve" smooth="yes"/>
      <point x="1172.17" y="1018.67"/>
      <point x="1168.5" y="1008.33"/>
      <point x="1163.5" y="1001" type="curve" smooth="yes"/>
      <point x="1158.5" y="993.667"/>
      <point x="1152" y="988.667"/>
      <point x="1144" y="986" type="curve" smooth="yes"/>
      <point x="1136" y="983.333"/>
      <point x="1126.33" y="982"/>
      <point x="1115" y="982" type="curve" smooth="yes"/>
      <point x="1058" y="982" type="line"/>
      <point x="1058" y="205" type="line"/>
      <point x="1115" y="205" type="line" smooth="yes"/>
      <point x="1126.33" y="205"/>
      <point x="1136" y="203.667"/>
      <point x="1144" y="201" type="curve" smooth="yes"/>
      <point x="1152" y="198.333"/>
      <point x="1158.5" y="193.167"/>
      <point x="1163.5" y="185.5" type="curve" smooth="yes"/>
      <point x="1168.5" y="177.833"/>
      <point x="1172.17" y="167.333"/>
      <point x="1174.5" y="154" type="curve" smooth="yes"/>
      <point x="1176.83" y="140.667"/>
      <point x="1178" y="123.333"/>
      <point x="1178" y="102" type="curve" smooth="yes"/>
      <point x="1178" y="80.6667"/>
      <point x="1176.83" y="63.3333"/>
      <point x="1174.5" y="50" type="curve" smooth="yes"/>
      <point x="1172.17" y="36.6667"/>
      <point x="1168.5" y="26.3333"/>
      <point x="1163.5" y="19" type="curve" smooth="yes"/>
      <point x="1158.5" y="11.6667"/>
      <point x="1152" y="6.66667"/>
      <point x="1144" y="4" type="curve" smooth="yes"/>
      <point x="1136" y="1.33333"/>
      <point x="1126.33" y="0"/>
      <point x="1115" y="0" type="curve" smooth="yes"/>
      <point x="741" y="0" type="line" smooth="yes"/>
      <point x="729.667" y="0"/>
      <point x="720" y="1.33333"/>
      <point x="712" y="4" type="curve" smooth="yes"/>
      <point x="704" y="6.66667"/>
      <point x="697.5" y="11.6667"/>
      <point x="692.5" y="19" type="curve" smooth="yes"/>
      <point x="687.5" y="26.3333"/>
      <point x="683.833" y="36.6667"/>
      <point x="681.5" y="50" type="curve" smooth="yes"/>
      <point x="679.167" y="63.3333"/>
      <point x="678" y="80.6667"/>
      <point x="678" y="102" type="curve" smooth="yes"/>
      <point x="678" y="123.333"/>
      <point x="679.167" y="140.667"/>
      <point x="681.5" y="154" type="curve" smooth="yes"/>
      <point x="683.833" y="167.333"/>
      <point x="687.5" y="177.833"/>
      <point x="692.5" y="185.5" type="curve" smooth="yes"/>
      <point x="697.5" y="193.167"/>
      <point x="704" y="198.333"/>
      <point x="712" y="201" type="curve" smooth="yes"/>
      <point x="720" y="203.667"/>
      <point x="729.667" y="205"/>
      <point x="741" y="205" type="curve" smooth="yes"/>
      <point x="808" y="205" type="line"/>
    </contour>
    <contour>
      <point x="614" y="1254" type="curve" smooth="yes"/>
      <point x="514.667" y="1254"/>
      <point x="435.333" y="1277.17"/>
      <point x="376" y="1323.5" type="curve" smooth="yes"/>
      <point x="316.667" y="1369.83"/>
      <point x="277" y="1432.33"/>
      <point x="257" y="1511" type="curve" smooth="yes"/>
      <point x="253.667" y="1523"/>
      <point x="254.833" y="1534.17"/>
      <point x="260.5" y="1544.5" type="curve" smooth="yes"/>
      <point x="266.167" y="1554.83"/>
      <point x="274.167" y="1564"/>
      <point x="284.5" y="1572" type="curve" smooth="yes"/>
      <point x="294.833" y="1580"/>
      <point x="306.833" y="1586.33"/>
      <point x="320.5" y="1591" type="curve" smooth="yes"/>
      <point x="334.167" y="1595.67"/>
      <point x="347" y="1598"/>
      <point x="359" y="1598" type="curve" smooth="yes"/>
      <point x="381" y="1598"/>
      <point x="395.667" y="1591.33"/>
      <point x="403" y="1578" type="curve" smooth="yes"/>
      <point x="414.333" y="1560"/>
      <point x="426.5" y="1543.5"/>
      <point x="439.5" y="1528.5" type="curve" smooth="yes"/>
      <point x="452.5" y="1513.5"/>
      <point x="467.167" y="1500.83"/>
      <point x="483.5" y="1490.5" type="curve" smooth="yes"/>
      <point x="499.833" y="1480.17"/>
      <point x="518.667" y="1472.17"/>
      <point x="540" y="1466.5" type="curve" smooth="yes"/>
      <point x="561.333" y="1460.83"/>
      <point x="586" y="1458"/>
      <point x="614" y="1458" type="curve" smooth="yes"/>
      <point x="642" y="1458"/>
      <point x="666.667" y="1460.83"/>
      <point x="688" y="1466.5" type="curve" smooth="yes"/>
      <point x="709.333" y="1472.17"/>
      <point x="728.167" y="1480.17"/>
      <point x="744.5" y="1490.5" type="curve" smooth="yes"/>
      <point x="760.833" y="1500.83"/>
      <point x="775.5" y="1513.5"/>
      <point x="788.5" y="1528.5" type="curve" smooth="yes"/>
      <point x="801.5" y="1543.5"/>
      <point x="813.667" y="1560"/>
      <point x="825" y="1578" type="curve" smooth="yes"/>
      <point x="832.333" y="1591.33"/>
      <point x="847" y="1598"/>
      <point x="869" y="1598" type="curve" smooth="yes"/>
      <point x="881" y="1598"/>
      <point x="893.667" y="1595.67"/>
      <point x="907" y="1591" type="curve" smooth="yes"/>
      <point x="920.333" y="1586.33"/>
      <point x="932.333" y="1580"/>
      <point x="943" y="1572" type="curve" smooth="yes"/>
      <point x="953.667" y="1564"/>
      <point x="961.833" y="1554.83"/>
      <point x="967.5" y="1544.5" type="curve" smooth="yes"/>
      <point x="973.167" y="1534.17"/>
      <point x="974.333" y="1523"/>
      <point x="971" y="1511" type="curve" smooth="yes"/>
      <point x="951" y="1432.33"/>
      <point x="911.333" y="1369.83"/>
      <point x="852" y="1323.5" type="curve" smooth="yes"/>
      <point x="792.667" y="1277.17"/>
      <point x="713.333" y="1254"/>
    </contour>
  </outline>
</glyph>
